<?xml version="1.0" encoding="utf-8"?>
<!-- Generator: Adobe Illustrator 15.1.0, SVG Export Plug-In . SVG Version: 6.00 Build 0)  -->
<!DOCTYPE svg PUBLIC "-//W3C//DTD SVG 1.1//EN" "http://www.w3.org/Graphics/SVG/1.1/DTD/svg11.dtd">
<svg version="1.1" id="Capa_1" xmlns="http://www.w3.org/2000/svg" xmlns:xlink="http://www.w3.org/1999/xlink" x="0px" y="0px"
	 width="31.678px" height="31.678px" viewBox="0 0 31.678 31.678" enable-background="new 0 0 31.678 31.678" xml:space="preserve">
<g>
	<path fill="#DAA520" d="M29.17,14.495c0,0.574-1.07,1.072-1.143,1.626c-0.074,0.567,0.831,1.324,0.686,1.866
		c-0.146,0.551-1.31,0.754-1.525,1.273c-0.218,0.525,0.46,1.493,0.177,1.98c-0.284,0.491-1.46,0.386-1.804,0.834
		c-0.346,0.449,0.059,1.559-0.342,1.958c-0.4,0.4-1.509-0.004-1.958,0.341c-0.447,0.344-0.342,1.52-0.833,1.804
		c-0.488,0.282-1.454-0.395-1.979-0.177c-0.52,0.215-0.724,1.378-1.274,1.525c-0.541,0.145-1.298-0.761-1.865-0.687
		c-0.555,0.072-1.052,1.143-1.626,1.143c-0.574,0-1.072-1.07-1.626-1.143c-0.567-0.074-1.324,0.831-1.866,0.686
		c-0.551-0.146-0.754-1.31-1.274-1.525c-0.525-0.218-1.492,0.459-1.98,0.177c-0.491-0.284-0.386-1.46-0.834-1.804
		c-0.449-0.346-1.558,0.059-1.958-0.341c-0.4-0.4,0.004-1.51-0.341-1.959C5.46,21.626,4.284,21.731,4,21.24
		c-0.282-0.488,0.395-1.454,0.177-1.979c-0.215-0.52-1.378-0.724-1.525-1.274c-0.145-0.541,0.76-1.298,0.686-1.865
		c-0.072-0.554-1.142-1.052-1.142-1.626c0-0.574,1.07-1.072,1.143-1.626c0.074-0.567-0.831-1.324-0.686-1.866
		c0.147-0.551,1.31-0.754,1.525-1.274c0.218-0.525-0.458-1.492-0.176-1.98c0.284-0.491,1.46-0.386,1.804-0.834
		c0.345-0.449-0.059-1.558,0.341-1.958s1.508,0.004,1.958-0.34c0.448-0.344,0.343-1.521,0.834-1.805
		c0.488-0.282,1.454,0.395,1.979,0.177c0.52-0.215,0.723-1.378,1.274-1.525c0.542-0.145,1.298,0.76,1.865,0.686
		c0.554-0.072,1.052-1.142,1.626-1.142c0.574,0,1.072,1.07,1.626,1.142c0.567,0.074,1.324-0.831,1.866-0.686
		c0.551,0.147,0.755,1.31,1.274,1.525c0.525,0.218,1.491-0.459,1.979-0.177c0.491,0.284,0.386,1.46,0.833,1.804
		c0.449,0.345,1.56-0.059,1.959,0.341c0.4,0.4-0.005,1.509,0.341,1.958c0.344,0.448,1.52,0.343,1.804,0.834
		c0.282,0.488-0.395,1.454-0.178,1.979c0.216,0.519,1.379,0.723,1.526,1.273c0.145,0.542-0.761,1.298-0.687,1.866
		C28.1,13.423,29.17,13.921,29.17,14.495z"/>
</g>
<circle fill="none" stroke="#FFFFFF" stroke-width="0.75" stroke-miterlimit="10" cx="15.527" cy="14.651" r="9.875"/>
<text transform="matrix(1 0 0 1 7.7766 16.2764)" fill="#FFFFFF" font-family="'HelveticaNeue-Bold'" font-size="4">AWARD!</text>
</svg>
