<?xml version="1.0" encoding="utf-8"?>
<!-- Generator: Adobe Illustrator 15.1.0, SVG Export Plug-In . SVG Version: 6.00 Build 0)  -->
<!DOCTYPE svg PUBLIC "-//W3C//DTD SVG 1.1//EN" "http://www.w3.org/Graphics/SVG/1.1/DTD/svg11.dtd">
<svg version="1.1" id="Ebene_1" xmlns="http://www.w3.org/2000/svg" xmlns:xlink="http://www.w3.org/1999/xlink" x="0px" y="0px"
	 width="1280px" height="1248px" viewBox="0 0 1280 1248" enable-background="new 0 0 1280 1248" xml:space="preserve">
<g transform="translate(0.000000,1248.000000) scale(0.100000,-0.100000)">
	<path fill="#E7C065" d="M5235.002,12453.998c-38.008-13.999-162.002-51.001-275-83.999
		c-521.006-150-686.006-267.002-789.004-557.998l-25.996-74.004L3913,11583.998c-127.998-83.999-232.998-151.997-232.998-148.999
		c0,2.002,17.998,32.998,40.996,67.002c55.996,86.997,112.002,207.998,152.998,330c36.006,108.999,140,507.998,132.998,513.999
		c-1.992,1.997-51.992-26.001-110.996-61.001c-447.002-268.999-730-548.999-845.996-838.999c-63.008-156.001-75-286.001-40-420
		l20.996-78.003L2988,10911c-99.004-83.999-275.996-252.002-365-346.001c-79.004-83.999-90.996-93.999-75-60
		c57.002,117.002,112.002,322.002,132.002,490c17.998,162.002,7.998,446.001-25,692.002l-6.006,42.998l-112.998-142.998
		c-178.994-227.002-257.998-334.004-337.998-457.002c-145.996-223.999-189.004-337.002-219.004-573.999
		c-26.992-218.999,18.008-530,85-585c15-12.002,21.006-11.001,46.006,6.997c15.996,12.002,32.002,22.002,35,22.002
		s-27.998-46.001-69.004-102.002c-77.002-107.998-247.002-375.995-310-489.999c-20.996-37.998-38.994-67.998-40-67.998
		c-2.002,0,1.006,23.998,7.002,52.998C1738,9421,1743,9526,1743,9625c0,262.001-17.002,347.997-172.998,842.997
		c-41.006,128.003-77.002,229.004-80,225c-7.002-7.998-99.004-290.996-174.004-532.998
		C1267.004,10001,1203.997,9753.998,1183.997,9640c-10.996-61.002-17.998-149-17.998-245c0-167.002,17.002-260,76.006-399
		c33.994-78.998,157.998-308.998,168.994-313.998c4.004-2.002-3.994-33.004-17.998-70
		C1350.002,8501,1253.997,8210,1233.997,8132.998c-10-40-20.996-72.998-25-72.998c-3.994,0-10,20.996-13.994,47.998
		c-10,71.006-100,331-160,464.004c-29.004,65-74.004,145.996-99.004,181.996c-25,36.002-97.002,150-160,253.004
		C630.999,9247.998,610.002,9256,610.002,9075c0-44-5-150-10-235C553,8125.996,580.002,7845,718,7575
		c57.002-110,152.998-212.002,260.996-275c73.008-42.998,73.008-44.004,67.002-80c-15-92.998-37.002-372.002-42.998-542.002
		L997.004,6490L948,6582.001c-65,120-184.004,312.002-260.996,417.998C575.002,7155.996,508,7230,395.999,7320
		c-60.996,49.004-142.002,114.004-178.994,144.004c-99.004,80.996-118.008,75-93.008-27.002
		c8.008-34.004,38.008-187.998,66.006-342.002c77.002-430,127.998-615.996,225.996-824.004c122.002-258.994,320-461.992,575-591.992
		l57.002-28.008l10.996-82.998c24.004-167.002,76.006-433.994,111.006-572.002c10-38.994,17.002-71.992,15.996-72.998
		c-2.002-2.002-17.998,17.998-35.996,42.998c-57.998,81.006-172.002,188.008-270,254.004c-52.002,35-162.002,110.996-245,170
		C398,5557.998,25.999,5800,5.002,5800c-15,0,5-47.998,110-269.004c160-337.998,335-680.996,410-805.996
		C705.999,4422.002,968,4212.002,1308,4095c57.002-19.004,120-35,139.004-35c32.998,0,35.996-2.998,60.996-62.998
		c37.998-91.006,252.002-511.006,300.996-590c44.004-72.002,42.002-72.998-25.996-21.006
		c-109.004,83.008-327.002,204.004-507.998,283.008C1140.002,3727.998,1043,3760,875.999,3800
		c-70.996,17.002-192.002,54.004-267.998,80c-205,72.998-212.998,59.004-70-115.996c52.998-66.006,142.998-180,197.998-254.004
		c130-172.998,244.004-299.004,386.006-427.002C1405.999,2827.002,1530.002,2750.996,1778,2680
		c204.004-59.004,310-69.004,475.996-49.004l89.004,11.006l25.996-34.004c100-127.998,339.004-375.996,546.006-567.002l80-73.994
		L2843,2044.004c-170.996,85.996-197.002,92.998-527.998,140c-485,68.994-997.002,110.996-1057.998,87.998
		c-15-7.002-13.008-12.002,20-42.998c70.996-68.008,496.992-378.008,656.992-479.004c127.002-80,248.008-139.004,406.006-197.998
		c282.002-105,395.996-126.006,640.996-119.004c202.002,6.006,267.998,17.998,429.004,82.002l115.996,45.996L3663.996,1475
		c150-94.004,392.998-230,496.006-277.998c167.998-77.998,186.992-87.998,150-82.002c-19.004,2.998-140,7.998-268.008,12.002
		c-317.998,7.998-392.998-1.006-901.992-101.006c-151.006-30-359.004-68.994-462.002-87.998c-220.996-38.994-235-50-109.004-85.996
		c43.008-12.002,202.002-61.006,352.002-107.998c514.004-160,614.004-178.008,969.004-179.004
		c227.998,0,266.992,2.002,362.998,22.998c230,47.998,385.996,122.002,525.996,247.998c62.002,56.006,89.004,75,105,71.006
		c11.006-2.002,89.004-22.998,172.002-46.006c82.998-22.998,224.004-56.992,312.998-75c87.998-17.998,162.998-35,166.006-37.998
		c1.992-2.002-19.004-10-48.008-17.002c-132.998-33.994-493.994-202.998-1026.992-480C4158,94.004,4065.998,39.004,4083,27.998
		c30.996-20,545.996,0,842.002,32.998c365,40,833.994,203.008,1025.996,357.002c70.996,57.002,145,131.006,220,219.004L6206.994,680
		h205H6618l142.998-137.002C7008,307.002,7046.994,285.996,7490.002,152.002c253.994-77.002,330-89.004,820.996-122.998
		c440.996-31.006,469.004-31.006,469.004,1.992c0,25-265,168.008-430,232.002c-52.002,20-138.008,64.004-190,97.998
		C8023.996,449.004,7910.998,510,7775.002,570C7650.998,624.004,7318,740,7288,740c-10,0-17.998,2.998-17.998,7.998
		c0,4.004,45.996,16.006,102.998,26.006c120.996,21.992,370,83.994,515,127.998c55.996,17.002,102.998,28.994,105,27.002
		c0.996-2.002,8.994-17.002,17.002-34.004c50-97.002,385-270,610-314.004c175-35,547.998-31.992,740,4.004
		c172.998,34.004,785.996,220.996,880,270c40.996,20.996,38.994,50-2.002,64.004c-52.002,15.996-402.002,86.992-647.998,130
		c-400,70.996-517.002,85-720,85c-179.004,0-223.008-5-458.008-49.004c-15-2.998-3.994,5,23.008,17.002
		c237.998,103.994,605.996,307.002,841.992,465.996c117.002,79.004,121.006,80,109.004,49.004
		c-24.004-57.998,4.004-92.998,105.996-131.006c116.006-43.994,227.002-60,408.008-60c180.996,0,252.998,11.006,445,69.004
		c175,52.998,310,114.004,475.996,215c277.002,167.998,659.003,430,717.997,494.004c30,31.992,22.002,52.998-23.994,61.992
		c-59.004,11.006-709.003-37.998-949.999-71.992c-295-41.006-564.004-126.006-765-243.008l-55-31.992l55,47.998
		c216.992,188.994,431.992,407.998,623.994,635c54.004,63.994,57.998,67.002,79.004,53.994c92.998-57.998,350-38.994,615.995,46.006
		c132.002,42.002,215,85.996,356.006,187.002c330,235.996,455.996,362.998,652.998,656.992c82.998,124.004,150,204.004,225,265
		c70,58.008,87.998,85,65.996,100c-18.994,13.008-60.996,5-213.994-40.996c-71.006-20.996-195-55-275-75.996
		c-149.004-38.008-259.004-76.006-390-137.002c-180-82.998-420-231.006-569.003-351.006c-80.996-65-82.998-65.996-60-28.994
		c122.998,198.994,315.995,565.996,384.003,730.996c15,36.006,28.994,55,36.992,52.002c75-25.996,355,80.996,560,215
		c122.002,80.996,296.006,247.998,361.006,350c122.998,192.998,470,884.004,532.998,1062.002
		c29.004,82.002,14.004,82.998-107.002,10.996c-140.996-85-580-377.002-708.994-472.998c-119.004-89.004-265-230-333.008-324.004
		c-25.996-35-46.992-60.996-46.992-58.994c0,2.998,12.998,55.996,30,118.994c35.996,141.006,82.998,371.006,110,549.004
		c11.992,74.004,21.992,135,22.998,135c0.996,0.996,20,7.002,42.998,12.998c57.998,17.002,250,134.004,322.998,197.002
		c126.006,110.996,216.006,230.996,302.002,405c95.996,192.998,157.002,405,219.004,762.002c21.992,127.998,55,290,71.992,358.994
		c43.008,176.006,32.002,195-68.994,111.006c-129.004-109.004-491.006-500-612.998-662.998
		c-74.004-99.004-144.004-222.002-190-332.002l-37.002-87.002l-6.006,217.002c-5.996,190-23.994,435-42.998,585
		c-5.996,43.994-5,45.996,14.004,40.996c38.994-10,113.994,37.998,212.998,136.006c84.004,83.994,102.002,107.998,140.996,190.996
		c79.004,165.996,120,327.998,138.008,547.002c16.992,210.997,11.992,383.999-25,852.999c-24.004,301-8.008,292.002-139.004,78.998
		c-210-342.998-369.004-643.998-417.002-793.998c-17.998-57.998-22.998-100-27.002-247.999c-1.992-97.998-5.996-177.002-7.998-175
		s-18.994,67.002-38.994,142.998c-45,175-139.004,470-204.004,637.999c-32.998,86-42.998,123.002-32.002,113.002
		c45-41,96.006,0,166.006,136.002c51.992,100.996,115.996,285.996,140.996,407.998c29.004,146,7.998,302.998-92.002,674.999
		c-50.996,190-187.002,608.999-203.994,630c-33.008,40-81.006-48.999-190-350c-49.004-137.002-61.006-211.001-72.002-476.001
		c-7.998-181.996-9.004-293.998-1.006-385c5-71,9.004-130,8.008-131.996c-2.002-2.002-28.007,43.998-58.007,100.996
		c-115,214.004-285.996,481-435.996,681c-79.004,106.001-82.002,125-5.996,46.001c21.992-22.998,61.992-57.998,88.994-77.998
		L10763,9956l22.998,26.997c47.998,56.001,77.002,219.004,77.002,432.002c0,347.002-87.998,566.001-377.002,940
		c-57.002,73.999-285.996,355-317.998,390c-9.004,10-4.004-212.998,12.998-646.001c9.004-246.997,22.998-361.001,54.004-453.999
		c18.994-56.001,90-207.002,130-275c15-25,20-36.001,10.996-26.001c-109.004,133.999-399.004,425-559.004,563.999
		c-33.994,29.004-36.992,34.004-22.998,48.003c27.998,26.997,40,96.997,40,223.999c0,145-12.998,207.998-60.996,305
		c-87.002,175-291.006,410-501.006,577.002c-125,98.999-370,257.998-398.994,257.998c-30,0-1.006-160,82.002-438.999
		c63.994-216.001,105.996-298.999,233.994-465c45-58.003,49.004-67.002,25-51.001c-15.996,10-92.002,52.998-168.994,96.001
		c-175,96.001-317.002,177.998-329.004,188.999c-5,5-12.998,37.002-17.998,72.002c-19.004,137.998-132.002,305.996-281.006,418.999
		c-140,106.001-271.992,157.998-755.996,300c-154.004,45-180.996,47.998-180.996,18.999c0-43.999,268.994-402.002,436.992-580
		c138.008-147.002,328.008-252.998,527.002-296.001c64.004-12.998,86.006-26.001,277.998-161.001
		c114.004-80,207.002-147.998,205-150c-1.992-0.996-55,1.001-116.992,6.001c-137.002,11.001-258.008,1.001-418.008-35
		c-145-31.997-347.998-92.998-466.992-138.999c-255-98.999-226.006-115,320-175c153.994-17.002,286.992-32.998,295-35
		c7.998-2.998,97.998-8.999,198.994-15c204.004-12.002,517.998,1.001,631.006,23.999l65,13.999l115-93.999
		c62.998-51.001,143.994-120,180-151.997l65-60l-90,23.999c-181.006,47.998-289.004,58.999-585,57.998
		c-299.004-1.001-362.002-8.999-368.008-50c-3.994-30,21.006-46.997,158.008-106.997c68.994-30,225.996-103.003,350-162.002
		c221.992-106.001,441.992-197.002,551.992-228.999c84.004-23.999,270-53.999,386.006-62.002l103.994-6.997l105-137.002
		c57.002-76.001,132.002-177.998,166.006-226.001c52.998-76.996,57.998-86,32.002-68.998
		c-221.006,146-708.008,322.997-941.006,342.001c-75.996,5.996-92.998-2.002-75-36.001c20-36.001,729.004-636,872.002-737.002
		c205-146,442.998-281.996,532.998-305l45-11l47.002-106.998c47.997-108.002,174.003-435,174.003-451
		c0-5-51.006,42.998-112.002,107.002c-141.005,143.998-254.003,230-444.003,338.998
		c-282.002,161.998-463.994,241.002-463.994,201.998c0-20.996,48.994-91.998,120.996-172.998
		c120-137.998,265.996-354,392.998-584.004c32.002-56.993,74.004-126.993,95-155c120-161.992,346.005-380.996,512.997-497.998
		c49.004-35,96.006-67.002,104.004-72.998c22.002-15,65-317.002,92.998-645c4.004-52.002,7.002-95.996,6.006-97.998
		c-1.006-1.006-17.002,38.994-35,90c-43.008,125.996-108.008,248.994-175,332.998c-70,87.002-624.003,660-639.003,660
		c-20.996,0-7.998-62.002,62.998-305c147.998-502.998,245-767.998,371.005-1015c100-197.998,221.992-377.998,350-517.998
		l52.998-57.998l-7.002-82.001c-15.996-181.006-82.998-617.002-95.996-617.002c-4.004,0-10,27.998-13.008,62.998
		c-18.994,202.998-132.998,460-404.999,912.001c-112.998,189.004-170,267.002-190,262.998c-25-5-25.996-92.998-6.992-412.998
		c33.994-587.001,63.994-912.001,96.992-1040c45-182.002,174.003-467.998,259.003-575.996l27.998-36.006l-57.998-143.994
		c-94.003-232.002-270.995-601.006-270.995-564.004c0,5.996,5,75,10,154.004c20,296.992-38.008,697.998-151.006,1035.996
		c-43.994,132.998-78.994,195-108.994,195c-27.002,0-37.002-24.004-45-115c-9.004-102.998-43.008-280-110-575
		c-110-482.002-130-620-122.002-857.998c5.996-179.004,17.002-240,78.994-419.004l32.002-92.002L10388,2927.998
		c-89.004-117.002-277.998-340.996-299.004-353.994c-8.994-5-10,0-5,16.992c12.998,48.008,46.006,256.006,56.006,358.008
		c15,150.996,11.992,486.992-5,705.996c-9.004,104.004-17.002,195-19.004,200c-2.002,5.996-37.998-60-80.996-145
		c-117.002-234.004-270-512.002-347.002-632.998c-195-307.002-240-475-264.004-982.002L9418,1954.004l-62.002-45
		C9220.002,1807.002,8910.002,1600,8895.002,1600c-3.008,0,12.998,29.004,35,64.004c110,172.998,220,455.996,273.994,703.994
		c22.002,99.004,66.006,385,60,391.006c-7.002,7.998-542.998-530-697.002-699.004c-293.994-324.004-422.998-545.996-451.992-780.996
		l-7.002-56.006l-136.006-45.996C7861.994,1140,7588.996,1060,7573,1060c-2.002,0,40.996,45,95.996,100
		c207.998,207.998,406.006,510.996,454.004,695c32.998,130,47.002,125-120,40.996c-132.002-65-256.006-117.998-517.998-217.998
		c-44.004-17.002-134.004-57.998-200-92.002c-108.008-55-130-70.996-221.006-160.996c-165.996-165.996-305-372.002-307.998-455
		l-0.996-37.002l-74.004-7.002c-112.002-8.994-537.002-6.992-562.998,3.008c-16.006,5.996-30,27.998-47.002,71.992
		c-32.002,86.006-94.004,210-132.998,267.002c-52.002,77.002-167.002,185-261.006,246.006
		c-101.992,66.992-221.992,125-396.992,190.996c-235,87.998-456.006,189.004-569.004,257.002L4678,1982.998l7.002-33.994
		c50.996-229.004,236.992-520,510-797.002c60.996-62.002,103.994-110,95.996-107.998c-9.004,2.998-79.004,20.996-155.996,40.996
		c-77.002,20-201.006,55.996-276.006,80.996L4723,1210l-7.002,62.998C4688,1522.002,4608.996,1672.002,4343.996,1970
		c-95,105.996-765,802.002-768.994,797.998c-9.004-7.998,48.994-323.994,85-465c80.996-322.002,172.998-545,296.992-720.996
		c14.004-20,8.008-17.998-47.998,13.994c-85,49.004-325,207.002-422.002,279.004c-55.996,40.996-76.992,62.002-71.992,72.998
		c2.998,7.998,10.996,50,15.996,91.006c27.998,195-32.002,500.996-155.996,796.992c-50,119.004-85,184.004-186.006,351.006
		c-65.996,107.998-226.992,407.002-305,565.996C2763,3795,2740.998,3830,2733.996,3830c-17.998,0-23.994-135-23.994-545
		c0-500.996,7.002-577.002,75.996-785c10-29.004-208.994,215.996-348.994,392.998L2350.999,3000l25,57.002
		c52.998,120,104.004,405.996,104.004,585.996c0,172.998-36.006,392.002-144.004,874.004C2270.002,4812.002,2233,5007.998,2228,5090
		c-2.002,34.004-7.002,45.996-20.996,47.998c-13.008,2.998-27.002-15.996-56.006-80C2087.004,4920.996,2015.002,4644.004,1953,4300
		c-35-197.998-37.002-412.002-5-590c12.002-62.998,19.004-115.996,17.998-117.998c-2.002-1.006-55,100-117.998,225
		c-100.996,200.996-210,445.996-249.004,555l-11.992,35.996l60.996,67.998c104.004,113.008,235,404.004,267.002,592.002
		c40.996,241.006,117.998,1314.003,98.994,1374.003c-7.998,25.996-25.996,22.002-60-14.004
		c-112.998-120.996-421.992-672.001-487.998-868.994c-35-105-65-266.006-72.998-386.006c-2.998-57.002-7.998-102.002-10-100
		c-15.996,17.002-100,502.998-124.004,719.004L1247.004,5900l25.996,20c72.998,57.998,395,522.002,467.998,675
		c85,177.998,401.006,1182.998,387.002,1227.002c-5.996,15.996-144.004-110-342.998-312.998
		c-351.006-356.006-427.998-480-544.004-869.004c-27.998-92.002,7.998,392.002,51.006,682.998L1313,7470.996l40.996,21.006
		c70,35,225,155.996,324.004,252.002c185,178.994,315,345,560,715.997c85,128.998,197.998,293.998,252.002,366
		c53.994,71.998,102.998,141.002,108.994,151.998c16.006,29.004,14.004,52.002-3.994,52.002c-41.006,0-415-210-655-369
		c-119.004-78.002-281.006-225-361.006-327.002c-23.994-31-51.992-66-60.996-78.002c-32.002-38.994,145.996,443.002,215,584.004
		c20,38.998,27.002,46,70.996,57.002c64.004,15.996,232.002,96.996,366.006,177.998c217.002,131,420.996,283.998,625,468.998
		c65.996,60,173.994,154,240,208.999c175,145,216.992,186.001,212.998,211.001c-4.004,30-47.002,31.001-172.998,6.001
		c-325-66.001-615-182.998-854.004-346.001c-50.996-35-95-63.998-97.002-63.998c-15.996,0,321.006,464.999,362.002,501
		c15,12.998,50,17.998,149.004,21.997c287.998,13.003,536.992,88.003,905,272.002c90.996,45,235,112.998,320,150
		s170,78.999,187.998,92.002c92.998,70-17.002,102.998-342.998,102.998c-285,0-538.008-35-704.004-97.998
		c-22.002-8.003,157.002,150,280.996,248.999c68.008,53.999,106.006,77.998,117.002,73.999
		c52.998-21.001,194.004-46.001,306.006-56.001c160.996-12.998,327.998-1.997,725,46.001c156.992,20,356.992,41.001,445,47.998
		c156.992,13.003,210,26.001,201.992,50c-15.996,49.004-346.992,175-596.992,227.002c-196.006,40-472.002,50-620,21.001
		c-25-5-46.006-8.003-48.008-7.002c-0.996,2.002,85,71.001,191.006,153.003l192.998,150.996l110,11.001
		c240,23.999,407.002,116.001,645,353.003c134.004,133.999,254.004,275.996,329.004,390
		c62.998,93.999,76.992,131.997,58.994,153.999C5323.996,12483.998,5318.996,12482.997,5235.002,12453.998z"/>
</g>
<g>
	<path fill="#E7C065" d="M1036.698,607.819c0,25.145-24.927,47.514-29.627,71.278c-4.845,24.487,9.534,54.664,0.191,77.194
		c-9.505,22.924-41.105,34.055-54.746,54.43c-13.746,20.531-12.018,53.961-29.425,71.368c-17.408,17.408-50.837,15.68-71.369,29.425
		c-20.375,13.641-31.505,45.241-54.429,54.747c-22.53,9.342-52.707-5.036-77.194-0.192c-23.765,4.7-46.133,29.627-71.277,29.627
		s-47.513-24.927-71.278-29.628c-24.487-4.844-54.665,9.535-77.195,0.192c-22.923-9.506-34.054-41.106-54.429-54.747
		c-20.532-13.745-53.961-12.018-71.369-29.425c-17.408-17.408-15.679-50.837-29.424-71.369
		c-13.641-20.375-45.241-31.506-54.747-54.429c-9.342-22.53,5.036-52.707,0.192-77.194c-4.701-23.765-29.627-46.133-29.627-71.277
		s24.926-47.513,29.627-71.278c4.844-24.487-9.535-54.665-0.192-77.195c9.505-22.923,41.106-34.053,54.747-54.428
		c13.746-20.532,12.018-53.961,29.425-71.369s50.837-15.68,71.368-29.425c20.375-13.641,31.505-45.241,54.429-54.747
		c22.53-9.342,52.707,5.036,77.194,0.192c23.765-4.701,46.133-29.627,71.278-29.627s47.514,24.926,71.278,29.627
		c24.487,4.844,54.664-9.535,77.194-0.192c22.924,9.505,34.054,41.105,54.43,54.747c20.531,13.746,53.961,12.017,71.368,29.425
		s15.68,50.837,29.425,71.369c13.641,20.375,45.24,31.506,54.746,54.429c9.342,22.53-5.036,52.707-0.192,77.194
		C1011.771,560.306,1036.698,582.675,1036.698,607.819z"/>
</g>
<g>
	<path fill="#FFFFFF" d="M402.08,651.5H367.5v-5.32c1.492-0.932,3.102-1.75,4.83-2.449c1.726-0.701,3.43-1.236,5.11-1.61l36.12-90.3
		h10.36l35.14,90.3c1.866,0.374,3.732,0.909,5.6,1.61c1.866,0.699,3.5,1.518,4.9,2.449v5.32h-43.82v-5.32
		c1.771-0.84,3.686-1.631,5.74-2.38c2.052-0.745,4.012-1.306,5.88-1.68l-8.12-22.26h-31.08l-8.26,22.26
		c4.292,0.56,8.352,1.914,12.18,4.06V651.5z M401.52,610.76h24.78l-9.1-26.74l-2.66-12.04h-0.28l-3.08,12.32L401.52,610.76z"/>
	<path fill="#FFFFFF" d="M577.36,562.88c-3.733-0.56-7.653-1.912-11.759-4.06v-5.32h35.281v5.32c-1.588,1.028-3.27,1.868-5.041,2.52
		c-1.773,0.654-3.5,1.168-5.18,1.54l-24.78,88.62l-14.56,1.68l-21.7-67.76l-21.14,66.08l-14.7,1.68l-27.3-90.3
		c-1.96-0.372-3.78-0.91-5.46-1.61c-1.68-0.7-3.268-1.516-4.76-2.45v-5.32h45.36v5.32c-1.588,0.84-3.384,1.61-5.39,2.31
		c-2.008,0.7-4.084,1.284-6.23,1.75l13.02,49.42l2.94,18.2h0.28l4.9-18.9l18.62-58.1h8.26l19.88,57.4l4.76,18.2h0.28l3.22-18.479
		L577.36,562.88z"/>
	<path fill="#FFFFFF" d="M621.46,651.5h-34.58v-5.32c1.492-0.932,3.102-1.75,4.83-2.449c1.726-0.701,3.43-1.236,5.11-1.61
		l36.119-90.3h10.36l35.14,90.3c1.866,0.374,3.732,0.909,5.601,1.61c1.866,0.699,3.5,1.518,4.899,2.449v5.32H645.12v-5.32
		c1.771-0.84,3.686-1.631,5.74-2.38c2.052-0.745,4.012-1.306,5.88-1.68l-8.12-22.26h-31.08l-8.26,22.26
		c4.291,0.56,8.352,1.914,12.18,4.06V651.5z M620.9,610.76h24.78l-9.1-26.74l-2.66-12.04h-0.28l-3.08,12.32L620.9,610.76z"/>
	<path fill="#FFFFFF" d="M724.219,642.15c2.146,0.464,4.06,1.068,5.739,1.807c1.681,0.742,3.312,1.483,4.9,2.223v5.32h-43.12v-5.32
		c2.052-1.119,4.012-1.981,5.88-2.59c1.866-0.605,3.732-1.096,5.601-1.47v-79.24c-4.668-1.026-8.494-2.38-11.48-4.06v-5.32h14.84
		c1.866,0,3.99-0.046,6.37-0.14c2.38-0.092,4.876-0.21,7.49-0.35c2.612-0.14,5.271-0.28,7.98-0.42c2.705-0.14,5.319-0.21,7.84-0.21
		c5.132,0,9.87,0.586,14.21,1.759s8.071,2.931,11.2,5.276c3.125,2.345,5.552,5.276,7.279,8.794c1.727,3.517,2.59,7.619,2.59,12.309
		c0,6.755-1.634,12.29-4.899,16.604c-3.269,4.313-7.748,7.549-13.44,9.706c3.732,5.841,7.7,11.8,11.9,17.873
		c4.2,6.072,8.632,11.937,13.3,17.592l6.72,4.449v4.76h-23.38l-6.02-4.59c-4.294-5.099-8.099-11.01-11.41-17.731
		c-3.314-6.722-6.23-13.329-8.75-19.819h-11.34V642.15z M731.258,561.48c-2.909,0-5.257,0.28-7.039,0.84v39.06h8.306
		c4.786,0,8.868-1.702,12.246-5.11c3.377-3.406,5.068-8.47,5.068-15.19c0-3.452-0.471-6.416-1.409-8.89
		c-0.938-2.472-2.253-4.502-3.941-6.09c-1.689-1.586-3.66-2.752-5.913-3.5C736.323,561.854,733.883,561.48,731.258,561.48z"/>
	<path fill="#FFFFFF" d="M789.318,651.5v-5.32c1.586-0.932,3.36-1.75,5.32-2.449c1.96-0.701,4.012-1.236,6.16-1.61v-79.24
		c-2.148-0.466-4.225-1.05-6.23-1.75c-2.008-0.7-3.758-1.47-5.25-2.31v-5.32h16.24c1.586,0,3.546-0.046,5.88-0.14
		c2.332-0.092,4.76-0.21,7.28-0.35c2.52-0.14,4.97-0.28,7.35-0.42c2.38-0.14,4.41-0.21,6.09-0.21c8.12,0,15.376,1.074,21.771,3.22
		c6.392,2.148,11.806,5.274,16.24,9.38c4.432,4.108,7.84,9.194,10.22,15.26c2.38,6.068,3.57,13.068,3.57,21
		c0,7.748-1.12,14.794-3.36,21.14c-2.24,6.349-5.6,11.761-10.08,16.24s-10.15,7.958-17.01,10.43c-6.86,2.472-14.91,3.71-24.15,3.71
		c-1.214,0-2.848-0.07-4.899-0.21c-2.055-0.14-4.249-0.28-6.58-0.42c-2.334-0.14-4.669-0.28-7-0.42
		c-2.334-0.14-4.389-0.21-6.16-0.21H789.318z M830.338,561.48c-1.681,0-3.36,0.048-5.04,0.14c-1.681,0.094-3.128,0.234-4.34,0.42
		v81.06c0.371,0.094,1.025,0.164,1.96,0.211c0.932,0.047,1.89,0.094,2.869,0.14c0.98,0.048,1.937,0.094,2.87,0.14
		c0.933,0.049,1.632,0.07,2.101,0.07c5.412,0,10.01-1.12,13.79-3.36c3.779-2.239,6.882-5.271,9.31-9.1
		c2.426-3.826,4.2-8.306,5.32-13.44c1.12-5.132,1.68-10.592,1.68-16.38c0-5.132-0.584-10.08-1.75-14.84
		c-1.168-4.76-2.964-9.006-5.39-12.74c-2.429-3.731-5.578-6.72-9.45-8.96C840.394,562.6,835.749,561.48,830.338,561.48z"/>
	<path fill="#FFFFFF" d="M904.957,641.561c0-3.36,1.089-6.066,3.27-8.121c2.179-2.051,5.034-3.08,8.561-3.08
		c3.525,0,6.402,1.029,8.629,3.08c2.228,2.055,3.341,4.761,3.341,8.121c0,3.359-1.113,6.043-3.341,8.049
		c-2.227,2.006-5.104,3.011-8.629,3.011c-3.526,0-6.382-1.005-8.561-3.011C906.046,647.604,904.957,644.92,904.957,641.561z
		 M913.637,620.98l-7-27.16V554.9c0.932-0.56,2.332-0.956,4.2-1.19c1.865-0.232,3.825-0.35,5.88-0.35c2.052,0,3.99,0.118,5.81,0.35
		c1.82,0.234,3.242,0.63,4.271,1.19v38.92l-7,27.16H913.637z"/>
</g>
</svg>
