<svg xmlns="http://www.w3.org/2000/svg" xmlns:xlink="http://www.w3.org/1999/xlink" id="Ebene_1" width="1086.199" height="905.458" x="0" y="0" enable-background="new 0 0 1086.199 905.458" version="1.1" viewBox="0 0 1086.199 905.458" xml:space="preserve"><path fill="#fff" fill-rule="evenodd" d="M52.987,3.439c35.204-5.168,79.38-1,118.985-1c19.19,0,39.425,0,58.993,0	c18.718,0,41.023-2.718,55.993,2c15.655,4.934,28.92,19.042,33.996,32.996c5.853,16.091,3,35.416,3,57.993	c0,52.217,0,129.683,0,179.978c0,51.579,0,122.438,0,180.978c0,20.295,2.137,42.871-3,56.993	c-12.149,33.403-41.063,33.995-88.989,33.995c-23.42,0-44.155,0-62.992,0c-38.583,0-91.462,5.783-122.985-2.999	c-15.762-4.393-28.873-15.038-34.996-29.997c-9.741-23.797-4-81.141-4-116.985c0-52.344,0-70.776,0-120.984	c0-64.62,0-118.719,0-181.978c0-20.694-2.189-42.149,3-56.993C15.78,20.878,32.565,6.437,52.987,3.439z M51.987,86.429	c0,112.985,0,225.973,0,338.958c76.324,0,152.647,0,228.971,0c-0.666-113.652,1.333-229.972-1-341.958	c-75.656,0-151.314,0-226.971,0C51.822,83.598,51.901,85.01,51.987,86.429z M137.976,484.379	c4.024,30.354,63.146,31.516,54.993-10.998c-2.58-13.45-18.421-23.438-33.996-19.998	C143.752,456.744,135.909,468.785,137.976,484.379z" clip-rule="evenodd"/><path fill="#fff" fill-rule="evenodd" d="M169.972,362.395c19.722-19.994,38.235-50.069,40.995-87.989	c3.533-48.537-15.9-86.831-40.995-109.986c4.924-8.074,12.408-13.589,18.998-19.997c0.667,0,1.333,0,2,0	c24.011,27.224,52.886,66.338,48.994,128.983c-2.032,32.715-14.817,64.374-31.996,87.989c-4.275,5.876-14.593,21.852-17.998,21.997	C183.529,383.667,175.117,365.753,169.972,362.395z" clip-rule="evenodd"/><path fill="#fff" fill-rule="evenodd" d="M155.974,348.396c-8.578-4.754-13.251-13.412-20.997-18.998	c15.453-16.86,29.237-42.71,26.997-73.991c-1.87-26.106-14.724-44.9-26.997-59.993c6.75-5.915,13.082-12.248,18.998-18.998	c0.85-0.184,0.943,0.39,1,1c18.841,17.702,34.38,45.549,35.996,79.99C192.766,295.722,174.672,327.924,155.974,348.396z" clip-rule="evenodd"/><path fill="#fff" fill-rule="evenodd" d="M360.948,176.417c152.227,0,305.57,0,461.942,0	c38.763,0,69.547-4.601,80.989,21.998c7.562,17.578,3,52.088,3,72.991c0,74.825,0,155.285,0,225.972	c-14.513-6.881-41.088-3.429-50.993,1.999c0-84.989,0-169.979,0-254.968c-163.313-2.333-330.958-0.333-495.938-1	c0-21.331,0-42.661,0-63.992C359.862,177.998,359.783,176.586,360.948,176.417z" clip-rule="evenodd"/><path fill="#fff" fill-rule="evenodd" d="M120.978,312.4c-8.578-4.754-13.251-13.412-20.997-18.998	c14.386-14.264,15.125-47.934,0-61.992c6.75-5.916,13.082-12.248,18.998-18.998C146.828,230.403,144.599,291.541,120.978,312.4z" clip-rule="evenodd"/><path fill="#fff" fill-rule="evenodd" d="M745.9,377.393c-3.018,12.981-9.159,22.837-11.999,35.995	c-51.304-16.374-90.82,13.539-106.986,47.994c-12.102-3.563-22.267-9.062-34.996-11.998	C607.688,394.639,676.497,353.888,745.9,377.393z" clip-rule="evenodd"/><path fill="#fff" fill-rule="evenodd" d="M784.896,529.373c14.495-12.409,50.953-13.794,63.991,1	c13.035-14.254,38.921-22.101,60.993-10.998c2.612,1.314,6.424,5.993,6.999,5.999c3.958,0.043,14.268-11.21,18.997-12.998	c56.533-21.379,71.454,40.161,85.989,74.99c15.894,38.081,32.035,73.87,47.994,112.986c7.997,19.601,14.998,40.697,14.998,64.991	c0,42.288-18.634,74.232-43.994,96.988c-26.902,24.139-70.75,45.593-120.985,41.994c-53.307-3.818-95.128-38.316-134.982-60.992	c-30.251-17.211-62.704-35.152-97.988-48.993c-12.036-4.722-26.145-5.844-37.995-10.999c-31.753-13.812-36.914-71.271-4-88.989	c28.562-15.374,69.288,0.439,96.988,9.999c0.81,0.189,0.996,1.003,2,1c-20.574-47.658-41.949-102.313-62.992-152.981	c-8.056-19.396-21.779-37.636-21.997-59.992c-0.457-46.77,54.621-67.789,88.988-38.995	C770.057,471.947,771.702,503.878,784.896,529.373z M700.905,503.377c26.874,70.826,58.219,140.588,86.989,209.974	c7.825,18.871,20.343,45.445-2,49.994c-12.19,2.481-25.821-7.429-30.996-9.999c-8.912-4.428-19.159-9.346-27.996-12.999	c-8.907-3.682-53.015-23.316-64.992-8.998c-15.669,18.73,22.126,23.156,32.996,26.996c66.232,23.396,107.633,51.438,161.979,82.99	c20.364,11.822,45.556,24.049,73.991,23.996c37.637-0.068,71.513-18.884,90.988-38.995c12.103-12.497,22.412-32.1,23.997-52.993	c2.324-30.625-8.73-51.484-17.997-72.99c-15.4-35.739-29.403-70.712-44.995-108.986c-6.598-16.197-15.222-48.086-31.996-44.995	c-21.712,4.001,2.081,41.937,8.999,57.993c3.858,8.955,9.21,21.517,12.998,29.996c4.52,10.114,12.379,21.057,10.999,32.996	c-1.146,9.909-9.28,17.436-21.997,15.998c-13.733-1.553-17.966-17.095-22.997-28.997c-12.273-29.033-19.33-46.393-30.996-73.99	c-4.871-11.523-7.294-31.203-21.997-30.996c-20.32,0.286-10.59,24.799-6,35.995c8.176,19.939,16.132,37.963,23.997,56.993	c6.106,14.773,18.79,46.5-9.998,45.994c-13.172-0.231-19.561-14.82-24.997-27.996c-12.14-29.418-19.426-46.633-30.996-74.991	c-5.633-13.804-7.864-32.071-22.997-30.996c-18.999,1.351-9.538,21.068-5,31.996c7.882,18.976,16.136,40.879,23.997,59.992	c4.373,10.631,10.905,22.822,8.999,31.996c-2.037,9.807-9.381,14.922-17.998,14.998c-19.219,0.171-25.925-29.294-32.995-45.994	c-17.641-41.663-30.802-71.555-46.994-110.985c-6.501-15.831-16.125-60.992-35.996-57.993	C695.438,480.412,696.351,491.372,700.905,503.377z" clip-rule="evenodd"/><path fill="#fff" fill-rule="evenodd" d="M136.976,584.366c16.332,0,32.663,0,48.994,0c5.018,1.981-0.356,14.354,3,17.998	c163.979,0,327.96,0,491.938,0c8.84,24.822,20.156,47.169,28.996,71.991c-45.323-11.921-90.417,2.771-101.987,36.995	c-123.656,0-263.268,0-393.951,0c-18.423,0-40.847,2.652-53.993-2c-38.943-13.779-19.228-76.202-23.997-121.984	C135.89,585.947,135.811,584.534,136.976,584.366z M522.928,679.354c27.823-0.885,28.846-52.053-5.999-44.994	C489.856,639.844,495.734,680.219,522.928,679.354z" clip-rule="evenodd"/></svg>