<?xml version="1.0" encoding="utf-8"?>
<!-- Generator: Adobe Illustrator 15.1.0, SVG Export Plug-In . SVG Version: 6.00 Build 0)  -->
<!DOCTYPE svg PUBLIC "-//W3C//DTD SVG 1.1//EN" "http://www.w3.org/Graphics/SVG/1.1/DTD/svg11.dtd">
<svg version="1.1" id="Ebene_1" xmlns="http://www.w3.org/2000/svg" xmlns:xlink="http://www.w3.org/1999/xlink" x="0px" y="0px"
	 width="116.457px" height="116.525px" viewBox="0 0 116.457 116.525" enable-background="new 0 0 116.457 116.525"
	 xml:space="preserve">
<circle fill="none" stroke="#2da7fa" stroke-width="3" cx="58.319" cy="58.307" r="55.137"/>
<path fill="#FFFFFF" fill-opacity="0" stroke="#2da7fa" stroke-width="3" stroke-miterlimit="10" d="M35.664,31.25c0,0-5.64,0-5.64,5.64V49.11
	c0,0,0,5.641,5.64,5.641h12.221c0,0,5.64,0,5.64-5.641V36.89c0,0,0-5.64-5.64-5.64H35.664z"/>
<path fill="#FFFFFF" fill-opacity="0" stroke="#2da7fa" stroke-width="3" stroke-miterlimit="10" d="M65.746,31.25c0,0-5.64,0-5.64,5.64V49.11
	c0,0,0,5.641,5.64,5.641h12.221c0,0,5.641,0,5.641-5.641V36.89c0,0,0-5.64-5.641-5.64H65.746z"/>
<path fill="#FFFFFF" fill-opacity="0" stroke="#2da7fa" stroke-width="3" stroke-miterlimit="10" d="M35.664,61.248c0,0-5.64,0-5.64,5.64v12.221
	c0,0,0,5.642,5.64,5.642h12.221c0,0,5.64,0,5.64-5.642V66.888c0,0,0-5.64-5.64-5.64H35.664z"/>
<text transform="matrix(1 0 0 1 58.8096 83.8066)" fill="#2da7fa" stroke-miterlimit="10" font-family="'Avenir-Light'" font-size="37.2079">+</text>
</svg>
