<?xml version="1.0" encoding="UTF-8" standalone="no"?>
<!DOCTYPE svg PUBLIC "-//W3C//DTD SVG 1.1//EN" "http://www.w3.org/Graphics/SVG/1.1/DTD/svg11.dtd">
<svg width="100%" height="100%" viewBox="0 0 125 79" version="1.1" xmlns="http://www.w3.org/2000/svg" xmlns:xlink="http://www.w3.org/1999/xlink" xml:space="preserve" xmlns:serif="http://www.serif.com/" style="fill-rule:evenodd;clip-rule:evenodd;stroke-linejoin:round;stroke-miterlimit:2;">
    <g transform="matrix(1,0,0,1,-336.866,-226.12)">
        <g transform="matrix(1,0,0,1,0,-31.0669)">
            <path d="M408.218,269.394C415.318,261.879 425.375,257.187 436.52,257.187C446.126,257.187 454.924,260.673 461.718,266.45C457.102,270.374 453.412,275.356 451.023,281.021C447.193,277.485 442.074,275.323 436.455,275.323C428.356,275.323 421.298,279.813 417.637,286.437C415.973,279.95 412.679,274.114 408.218,269.394Z" style="fill:white;"/>
        </g>
        <g transform="matrix(1,0,0,1,0,-30.0669)">
            <path d="M398.026,323.858C397.71,323.055 397.461,322.251 397.401,321.604C397.042,317.721 397.17,302.114 397.217,297.448C397.223,297.238 397.226,297.025 397.226,296.811L397.231,296.123L397.216,296.134C396.858,284.587 387.371,275.323 375.738,275.323C363.878,275.323 354.25,284.952 354.25,296.811C354.25,308.671 363.878,318.3 375.738,318.3C382.7,318.3 388.892,314.982 392.821,309.842C392.7,313.597 392.555,320.197 392.921,322.844C393.212,324.942 395.156,328.361 395.837,329.509C389.984,333.032 383.128,335.06 375.802,335.06C354.313,335.06 336.866,317.613 336.866,296.123C336.866,274.634 354.313,257.187 375.802,257.187C397.292,257.187 414.739,274.634 414.739,296.123L414.739,335.06C414.739,335.06 404.266,333.951 399.559,326.965C399.559,326.965 398.344,324.808 398.026,323.858Z" style="fill:white;"/>
        </g>
    </g>
</svg>
