<svg xmlns="http://www.w3.org/2000/svg" xmlns:xlink="http://www.w3.org/1999/xlink" id="Ebene_1" width="196.096" height="224.6" x="0" y="0" enable-background="new 0 0 196.096 224.6" version="1.1" viewBox="0 0 196.096 224.6" xml:space="preserve"><g><defs><rect id="SVGID_1_" width="192.067" height="216.965" x="2.741" y="1.22"/></defs><clipPath id="SVGID_2_"><use overflow="visible" xlink:href="#SVGID_1_"/></clipPath><path fill="#FFF" d="M130.563,160.691c8.957-7.047,27.369-25.92,33.768-47.396 C149.759,95.369,88.439,18.884,74.281,1.22c-1.447,16.765-16.178,52.043-41.734,63.834C20.805,70.783,9.101,74.355,4.648,75.619 l87.45,105.898C101.978,178.33,121.5,167.804,130.563,160.691" clip-path="url(#SVGID_2_)"/><path fill="#FFF" d="M189.637,167.339c-14.546,8.461-29.945,16.295-46.268,22.221 c-19.317,7.014-42.631,14.951-50.097,17.15v11.475l96.333-34.641L189.637,167.339z" clip-path="url(#SVGID_2_)"/><polygon fill="#FFF" points="2.741 110.802 89.598 217.9 89.672 184.236 2.741 78.972" clip-path="url(#SVGID_2_)"/><path fill="#FFF" d="M185.86,156.302c-11.23,8.809-25.481,17.727-40.904,25.43 c-14.594,7.309-46.726,17.16-51.68,18.662v2.561c8.249-2.439,29.172-8.725,47.526-15.695c20.373-7.736,49.502-26.021,49.502-26.021 L185.86,156.302z" clip-path="url(#SVGID_2_)"/><path fill="#FFF" d="M168.314,112.472l-0.255,0.902c-6.38,22.697-25.176,42.203-35.273,50.15 c-9.455,7.428-29.113,18.023-39.511,21.396v4.85c14.613-4.551,35.036-14.232,46.371-22.203 c19.468-13.713,38.481-32.74,50.173-50.139l0.104,0.08c-13.171-14.868-86.372-98.657-91.116-104.681 c-1.608,3.036-3.062,5.068-5.42,6.461c24.242,30.229,63.999,79.773,74.336,92.457L168.314,112.472z" clip-path="url(#SVGID_2_)"/><path fill="#FFF" d="M182.735,132.816c0,0-25.934,27.078-41.016,37.699 c-12.748,8.971-32.45,17.773-48.445,22.756v3.352c1.549-0.475,4.114-1.266,7.314-2.285c11.785-3.754,32.249-10.566,42.758-15.826 c20.822-10.402,39.438-22.992,51.1-34.432c0.121-0.119,0.236-0.238,0.361-0.359L182.735,132.816z" clip-path="url(#SVGID_2_)"/><g clip-path="url(#SVGID_2_)"><path d="M35.459,98.421l-6.826-5.046l1.625-1.17l2.795,2.199c0.792,0.627,1.528,1.22,2.273,1.925l0.029-0.021 c-0.402-0.908-0.759-1.833-1.074-2.744l-1.182-3.405l1.577-1.135l2.514,8.15L35.459,98.421z"/><path d="M39.413,92.678c0.48,0.585,1.304,0.436,1.995-0.062c0.506-0.364,0.866-0.727,1.167-1.151l0.917,0.863 c-0.339,0.555-0.863,1.08-1.505,1.542c-1.616,1.163-3.213,0.895-4.285-0.595c-0.869-1.207-1.08-3.08,0.575-4.271 c1.537-1.107,2.983-0.331,3.831,0.847c0.183,0.253,0.314,0.499,0.372,0.619L39.413,92.678z M40.426,90.411 c-0.259-0.36-0.849-0.851-1.531-0.36c-0.623,0.449-0.462,1.205-0.221,1.622L40.426,90.411z"/><path d="M39.814,84.793l1.479-1.065l1.962,2.725l0.019-0.014c0.002-0.326,0.077-0.632,0.227-0.917 c0.14-0.278,0.363-0.542,0.636-0.738c0.944-0.68,2.133-0.546,3.171,0.895l1.997,2.774l-1.479,1.065l-1.885-2.618 c-0.449-0.623-0.971-0.897-1.526-0.498c-0.389,0.28-0.45,0.708-0.361,1.058c0.024,0.116,0.105,0.25,0.183,0.356l2.032,2.822 l-1.479,1.065L39.814,84.793z"/><path d="M47.645,80.411c0.294,0.409,0.231,0.957-0.266,1.314c-0.467,0.336-1.007,0.223-1.301-0.187 c-0.301-0.418-0.221-0.963,0.256-1.307C46.811,79.888,47.333,79.999,47.645,80.411z M50.497,87.594l-3.427-4.759l1.48-1.065 l3.427,4.759L50.497,87.594z"/><path d="M56.646,82.975c-0.172,0.315-0.598,0.771-1.163,1.177c-1.538,1.107-3.201,0.871-4.273-0.618 c-1.002-1.392-0.868-3.217,0.903-4.493c0.39-0.281,0.866-0.521,1.262-0.628l0.559,1.268c-0.231,0.048-0.543,0.17-0.932,0.45 c-0.779,0.561-0.885,1.479-0.315,2.251c0.624,0.866,1.544,0.913,2.265,0.394c0.351-0.252,0.581-0.507,0.735-0.766L56.646,82.975z"/><path d="M52.582,75.6l1.479-1.065l4.976,6.911l-1.48,1.065L52.582,75.6z"/><path d="M60,77.855c0.48,0.585,1.304,0.436,1.995-0.062c0.506-0.364,0.866-0.727,1.167-1.15l0.917,0.862 c-0.339,0.555-0.863,1.08-1.505,1.542c-1.616,1.164-3.213,0.895-4.285-0.594c-0.869-1.207-1.08-3.08,0.575-4.271 c1.538-1.107,2.983-0.331,3.831,0.847c0.183,0.253,0.314,0.498,0.372,0.619L60,77.855z M61.014,75.588 c-0.26-0.36-0.85-0.851-1.531-0.36c-0.623,0.448-0.462,1.205-0.221,1.622L61.014,75.588z"/><path d="M71.132,68.923c-0.597-0.768-1.313-1.7-2-2.654l-0.02,0.014c0.389,0.991,0.789,2.122,1.089,3.073l1.045,3.134 l-1.158,0.834l-2.522-2.026c-0.774-0.625-1.662-1.405-2.444-2.143l-0.02,0.014c0.608,0.907,1.299,1.947,1.848,2.793l1.667,2.583 l-1.372,0.988l-4.305-6.861l1.976-1.423l2.219,1.727c0.761,0.605,1.544,1.283,2.244,1.947l0.039-0.028 c-0.371-0.885-0.771-1.913-1.073-2.804l-0.878-2.678l1.947-1.402l5.074,6.308l-1.44,1.037L71.132,68.923z"/><path d="M78.746,65.511c0.322,0.447,0.657,0.872,0.905,1.092l-1.333,0.96l-0.431-0.414l-0.029,0.021 c-0.038,0.604-0.377,1.159-0.942,1.565c-0.963,0.693-2.042,0.407-2.589-0.353c-0.89-1.236-0.201-2.619,1.483-3.832l-0.042-0.059 c-0.189-0.263-0.585-0.525-1.315,0.001c-0.486,0.35-0.883,0.887-1.055,1.306l-0.959-0.757c0.198-0.423,0.675-1.136,1.541-1.76 c1.587-1.142,2.755-0.565,3.568,0.564L78.746,65.511z M76.523,65.441c-0.778,0.561-1.249,1.18-0.843,1.744 c0.273,0.38,0.66,0.383,0.99,0.145c0.36-0.259,0.497-0.727,0.377-1.099c-0.037-0.092-0.09-0.187-0.153-0.274L76.523,65.441z"/><path d="M78.419,62.568c-0.428-0.594-0.805-1.076-1.132-1.491l1.285-0.925l0.544,0.613l0.029-0.021 c-0.029-0.451,0.118-1.252,0.917-1.827c0.973-0.701,2.172-0.575,3.182,0.827l2.025,2.813l-1.479,1.065l-1.899-2.638 c-0.441-0.613-0.958-0.877-1.493-0.492c-0.409,0.294-0.449,0.751-0.359,1.101c0.031,0.125,0.119,0.269,0.217,0.405l1.977,2.745 l-1.479,1.065L78.419,62.568z"/><path d="M89.847,56.941c0.449,0.623,0.833,1.115,1.139,1.5l-1.285,0.925l-0.552-0.623l-0.029,0.021 c0.025,0.425-0.072,1.234-0.929,1.851c-0.973,0.701-2.109,0.602-3.167-0.868l-2.011-2.793l1.48-1.065l1.843,2.56 c0.498,0.691,1.023,0.948,1.548,0.57c0.409-0.294,0.449-0.751,0.368-1.048c-0.024-0.116-0.082-0.237-0.173-0.363l-2.039-2.833 l1.479-1.065L89.847,56.941z"/><path d="M95.272,53.612c0.322,0.447,0.657,0.872,0.905,1.092l-1.333,0.96l-0.431-0.414l-0.029,0.021 c-0.038,0.604-0.377,1.159-0.942,1.565c-0.963,0.693-2.042,0.407-2.589-0.353c-0.89-1.236-0.201-2.619,1.483-3.832l-0.042-0.059 c-0.189-0.263-0.584-0.525-1.314,0c-0.487,0.351-0.883,0.888-1.055,1.307l-0.959-0.758c0.198-0.423,0.675-1.136,1.541-1.76 c1.586-1.143,2.755-0.565,3.568,0.564L95.272,53.612z M93.049,53.542c-0.779,0.561-1.249,1.18-0.843,1.745 c0.273,0.379,0.66,0.383,0.99,0.145c0.36-0.259,0.497-0.727,0.377-1.099c-0.037-0.092-0.09-0.187-0.153-0.274L93.049,53.542z"/><path d="M92.304,47l1.479-1.065l4.976,6.91l-1.48,1.065L92.304,47z"/></g><g clip-path="url(#SVGID_2_)"><polygon fill="none" stroke="#000" stroke-width="3" points="135.691 121.69 95.707 150.956 90.354 101.696"/><g><path d="M106.662,124.888c-1.176-1.306-2.179-2.337-3.008-3.094c-0.83-0.757-1.533-1.367-2.111-1.829 c-0.579-0.464-1.065-0.841-1.459-1.132c-0.395-0.29-0.75-0.628-1.067-1.014c-0.521-0.635-0.722-1.215-0.602-1.741 c0.121-0.525,0.499-1.05,1.134-1.57c0.598-0.491,1.171-0.738,1.721-0.741c0.549-0.003,1.069,0.295,1.56,0.893 c0.317,0.385,0.584,0.8,0.804,1.246c0.219,0.445,0.496,0.998,0.832,1.661c0.335,0.662,0.79,1.477,1.364,2.442 c0.574,0.967,1.375,2.164,2.401,3.593L106.662,124.888z M111.429,125.631c0.398,0.486,0.568,1.03,0.509,1.631 c-0.06,0.6-0.319,1.089-0.78,1.467c-0.486,0.398-1.029,0.568-1.629,0.51c-0.601-0.061-1.101-0.333-1.499-0.819 c-0.378-0.46-0.537-0.99-0.479-1.591c0.06-0.6,0.332-1.1,0.817-1.498c0.461-0.378,0.992-0.538,1.592-0.479 C110.562,124.912,111.051,125.171,111.429,125.631z"/></g></g></g></svg>