<?xml version="1.0" encoding="utf-8"?>
<!-- Generator: Adobe Illustrator 15.1.0, SVG Export Plug-In . SVG Version: 6.00 Build 0)  -->
<!DOCTYPE svg PUBLIC "-//W3C//DTD SVG 1.1//EN" "http://www.w3.org/Graphics/SVG/1.1/DTD/svg11.dtd">
<svg version="1.1" id="Ebene_1" xmlns="http://www.w3.org/2000/svg" xmlns:xlink="http://www.w3.org/1999/xlink" x="0px" y="0px"
	 width="390.41px" height="470.889px" viewBox="0 0 390.41 470.889" enable-background="new 0 0 390.41 470.889"
	 xml:space="preserve">
<g>
	<defs>
		<rect id="SVGID_1_" x="-1.342" y="-1.275" width="451.118" height="509.193"/>
	</defs>
	<clipPath id="SVGID_2_">
		<use xlink:href="#SVGID_1_"  overflow="visible"/>
	</clipPath>
	<polygon clip-path="url(#SVGID_2_)" fill="#C8A600" points="178.648,505.548 178.648,507.918 178.648,505.548 178.648,503.179 	"/>
	
		<linearGradient id="SVGID_3_" gradientUnits="userSpaceOnUse" x1="0.9922" y1="843.21" x2="1.9922" y2="843.21" gradientTransform="matrix(298.368 0 0 -298.368 -253.75 251989.25)">
		<stop  offset="0" style="stop-color:#328029"/>
		<stop  offset="0.1132" style="stop-color:#4F8625"/>
		<stop  offset="0.5472" style="stop-color:#999805"/>
		<stop  offset="0.8527" style="stop-color:#BBA200"/>
		<stop  offset="1" style="stop-color:#C8A500"/>
	</linearGradient>
	<path clip-path="url(#SVGID_2_)" fill="url(#SVGID_3_)" d="M50.82,393.456v6.336h0.157c2.92-4.693,6.74-7.04,11.46-7.04
		c5.502,0,9.374,2.881,11.617,8.644c3.39-5.763,7.562-8.644,12.517-8.644c3.729,0,6.741,1.329,9.036,3.989
		c2.294,2.66,3.442,6.193,3.442,10.601v22.1h-3.833v-20.418c0-3.886-0.821-6.943-2.464-9.173c-1.643-2.229-3.951-3.344-6.923-3.344
		c-2.217,0-4.146,0.665-5.789,1.994c-1.643,1.33-3.338,3.469-5.085,6.415v24.525h-3.872v-20.496c0-3.99-0.854-7.061-2.562-9.212
		c-1.708-2.151-3.997-3.227-6.865-3.227c-4.172,0-7.784,2.568-10.835,7.705v25.229h-3.833v-35.985H50.82z M133.089,429.441v-5.945
		h-0.156c-1.669,2.399-3.384,4.106-5.144,5.124c-1.76,1.017-3.997,1.525-6.708,1.525c-3.859,0-7.054-1.252-9.583-3.755
		c-2.53-2.504-3.794-6.05-3.794-10.64v-22.295h3.833v22.217c0,3.338,0.913,5.959,2.738,7.862s4.198,2.855,7.119,2.855
		c2.503,0,4.635-0.573,6.396-1.722c1.76-1.146,3.526-3.129,5.3-5.945v-25.268h3.833v35.985H133.089z M177.623,410.118h-28.358
		c-0.078,0.626-0.117,1.252-0.117,1.878c0,4.016,1.434,7.419,4.302,10.209c2.868,2.791,6.258,4.186,10.17,4.186
		c4.563,0,9.022-1.786,13.377-5.359v4.342c-4.121,3.182-8.736,4.772-13.847,4.772c-5.189,0-9.479-1.8-12.869-5.398
		c-3.39-3.599-5.085-8.175-5.085-13.729c0-5.268,1.564-9.629,4.694-13.084c3.129-3.455,7.066-5.183,11.812-5.183
		c4.459,0,8.227,1.558,11.304,4.674C176.084,400.542,177.623,404.773,177.623,410.118z M149.773,407.028h23.312
		c-1.356-7.015-5.15-10.521-11.382-10.521c-2.947,0-5.496,0.919-7.647,2.758C151.905,401.103,150.477,403.69,149.773,407.028z
		 M195.499,392.752c2.946,0,6.154,1.017,9.622,3.051v4.146c-3.651-2.45-6.937-3.677-9.857-3.677c-2.165,0-3.99,0.586-5.476,1.756
		s-2.229,2.612-2.229,4.329c0,1.222,0.452,2.347,1.355,3.374c0.904,1.026,3.395,2.328,7.471,3.902
		c4.077,1.576,6.741,3.211,7.993,4.905c1.251,1.696,1.877,3.586,1.877,5.672c0,2.791-1.134,5.144-3.403,7.061
		s-5.072,2.875-8.41,2.875c-3.625,0-7.224-1.096-10.796-3.286v-3.755c4.25,2.19,8.019,3.286,11.304,3.286
		c2.216,0,4.035-0.586,5.457-1.759c1.421-1.173,2.132-2.672,2.132-4.496c0-1.251-0.463-2.404-1.39-3.46
		c-0.927-1.056-3.43-2.393-7.51-4.012c-4.08-1.618-6.727-3.217-7.939-4.795c-1.213-1.577-1.819-3.331-1.819-5.261
		c0-2.738,1.127-5.065,3.383-6.981C189.52,393.71,192.265,392.752,195.499,392.752L195.499,392.752z M218.185,374.798v54.644h-3.873
		v-54.644H218.185z M233.246,374.798v6.571h-3.873v-6.571H233.246z M233.246,393.456v35.985h-3.873v-35.985H233.246z
		 M256.559,430.146c-3.989,0-8.24-0.899-12.751-2.699v-52.648h3.833v23.821c3.833-3.912,8.161-5.867,12.985-5.867
		c4.694,0,8.541,1.637,11.539,4.908c2.998,3.273,4.498,7.491,4.498,12.654c0,5.998-1.832,10.802-5.495,14.413
		C267.504,428.34,262.634,430.146,256.559,430.146L256.559,430.146z M260.158,395.959c-4.277,0-8.449,2.321-12.517,6.963v21.786
		c2.973,1.122,5.919,1.683,8.84,1.683c4.642,0,8.481-1.493,11.519-4.479c3.038-2.986,4.558-6.773,4.558-11.363
		c0-4.25-1.173-7.745-3.521-10.482C266.69,397.328,263.73,395.959,260.158,395.959L260.158,395.959z M308.287,426.391
		c0.73,0,2.438-1.069,5.125-3.208v3.208c-3.312,2.503-5.738,3.755-7.275,3.755c-0.887,0-1.5-0.294-1.84-0.88
		c-0.338-0.587-0.586-1.78-0.742-3.579c-3.781,2.973-7.537,4.459-11.266,4.459c-2.712,0-5.006-0.887-6.884-2.66
		c-1.878-1.772-2.815-3.924-2.815-6.454c0-3.911,1.812-6.994,5.437-9.25c3.624-2.256,8.801-3.553,15.529-3.893v-4.576
		c0-4.902-2.66-7.354-7.98-7.354c-3.39,0-7.054,1.525-10.991,4.576v-3.95c4.068-2.556,7.94-3.833,11.617-3.833
		c3.26,0,5.946,0.802,8.057,2.405c2.113,1.604,3.168,3.931,3.168,6.981v22.413C307.426,425.778,307.713,426.391,308.287,426.391
		L308.287,426.391z M293.541,426.977c3.286,0,6.624-1.551,10.014-4.654v-11.226c-4.929-0.183-9.016,0.685-12.262,2.601
		c-3.247,1.917-4.871,4.361-4.871,7.334c0,1.67,0.678,3.077,2.035,4.225C289.812,426.403,291.507,426.977,293.541,426.977
		L293.541,426.977z M335.531,392.752c2.346,0,5.098,1.421,8.252,4.263l-2.229,3.599c-3-2.737-5.412-4.106-7.236-4.106
		c-3.6,0-7.445,3.441-11.539,10.326v22.608h-3.834v-35.985h3.834v9.466h0.156C327.238,396.142,331.436,392.752,335.531,392.752
		L335.531,392.752z"/>
	<g clip-path="url(#SVGID_2_)">
		<defs>
			<rect id="SVGID_4_" x="-1.342" y="-1.275" width="451.118" height="509.193"/>
		</defs>
		<clipPath id="SVGID_5_">
			<use xlink:href="#SVGID_4_"  overflow="visible"/>
		</clipPath>
		<g opacity="0.65" clip-path="url(#SVGID_5_)">
			<g>
				<defs>
					<rect id="SVGID_6_" x="13.063" y="89.862" width="78.526" height="62.524"/>
				</defs>
				<clipPath id="SVGID_7_">
					<use xlink:href="#SVGID_6_"  overflow="visible"/>
				</clipPath>
				<path clip-path="url(#SVGID_7_)" fill="#BF1717" d="M52.327,151.388c16.714,0,30.263-13.549,30.263-30.264
					c0-16.713-13.549-30.263-30.263-30.263c-16.714,0-30.263,13.55-30.263,30.263C22.063,137.839,35.612,151.388,52.327,151.388"/>
			</g>
		</g>
		<g opacity="0.65" clip-path="url(#SVGID_5_)">
			<g>
				<defs>
					<rect id="SVGID_8_" x="112.738" y="247.844" width="127.768" height="111.768"/>
				</defs>
				<clipPath id="SVGID_9_">
					<use xlink:href="#SVGID_8_"  overflow="visible"/>
				</clipPath>
				<path clip-path="url(#SVGID_9_)" fill="#1A5318" d="M176.621,358.611c30.311,0,54.882-24.572,54.882-54.884
					s-24.571-54.884-54.882-54.884s-54.883,24.572-54.883,54.884S146.31,358.611,176.621,358.611"/>
			</g>
		</g>
		<g opacity="0.65" clip-path="url(#SVGID_5_)">
			<g>
				<defs>
					<rect id="SVGID_10_" x="88.921" y="180.116" width="88.912" height="77.94"/>
				</defs>
				<clipPath id="SVGID_11_">
					<use xlink:href="#SVGID_10_"  overflow="visible"/>
				</clipPath>
				<path clip-path="url(#SVGID_11_)" fill="#AC0053" d="M125.459,246.698c15.249,4.373,31.156-4.445,35.529-19.694
					c4.372-15.249-4.445-31.156-19.694-35.529c-15.25-4.372-31.156,4.445-35.529,19.694
					C101.392,226.419,110.21,242.325,125.459,246.698"/>
			</g>
		</g>
		<g opacity="0.65" clip-path="url(#SVGID_5_)">
			<g>
				<defs>
					<rect id="SVGID_12_" x="237.214" y="271.439" width="78.004" height="62.005"/>
				</defs>
				<clipPath id="SVGID_13_">
					<use xlink:href="#SVGID_12_"  overflow="visible"/>
				</clipPath>
				<path clip-path="url(#SVGID_13_)" fill="#E6007E" d="M276.216,332.444c16.57,0,30.002-13.434,30.002-30.003
					s-13.432-30.003-30.002-30.003s-30.003,13.434-30.003,30.003S259.646,332.444,276.216,332.444"/>
			</g>
		</g>
		<g opacity="0.65" clip-path="url(#SVGID_5_)">
			<g>
				<defs>
					<rect id="SVGID_14_" x="269.015" y="154.491" width="108.78" height="92.78"/>
				</defs>
				<clipPath id="SVGID_15_">
					<use xlink:href="#SVGID_14_"  overflow="visible"/>
				</clipPath>
				<path clip-path="url(#SVGID_15_)" fill="#1A5318" d="M323.406,246.271c25.066,0,45.389-20.321,45.389-45.39
					c0-25.069-20.322-45.391-45.389-45.391c-25.069,0-45.391,20.321-45.391,45.391C278.015,225.95,298.337,246.271,323.406,246.271"
					/>
			</g>
		</g>
		<g opacity="0.65" clip-path="url(#SVGID_5_)">
			<g>
				<defs>
					<rect id="SVGID_16_" x="72.571" y="12.923" width="108.78" height="92.78"/>
				</defs>
				<clipPath id="SVGID_17_">
					<use xlink:href="#SVGID_16_"  overflow="visible"/>
				</clipPath>
				<path clip-path="url(#SVGID_17_)" fill="#BF1717" d="M126.961,104.703c25.068,0,45.39-20.322,45.39-45.39
					c0-25.069-20.322-45.391-45.39-45.391s-45.39,20.322-45.39,45.391C81.571,84.381,101.894,104.703,126.961,104.703"/>
			</g>
		</g>
		<g opacity="0.65" clip-path="url(#SVGID_5_)">
			<g>
				<defs>
					<rect id="SVGID_18_" x="225.929" y="9.845" width="74.84" height="58.841"/>
				</defs>
				<clipPath id="SVGID_19_">
					<use xlink:href="#SVGID_18_"  overflow="visible"/>
				</clipPath>
				<path clip-path="url(#SVGID_19_)" fill="#009EBC" d="M263.349,67.686c15.696,0,28.42-12.724,28.42-28.42
					c0-15.696-12.724-28.421-28.42-28.421c-15.695,0-28.42,12.725-28.42,28.421C234.929,54.962,247.654,67.686,263.349,67.686"/>
			</g>
		</g>
		<g opacity="0.65" clip-path="url(#SVGID_5_)">
			<g>
				<defs>
					<rect id="SVGID_20_" x="314.152" y="107.302" width="59.035" height="43.034"/>
				</defs>
				<clipPath id="SVGID_21_">
					<use xlink:href="#SVGID_20_"  overflow="visible"/>
				</clipPath>
				<path clip-path="url(#SVGID_21_)" fill="#009EBC" d="M343.67,149.336c11.332,0,20.518-9.187,20.518-20.518
					c0-11.332-9.186-20.517-20.518-20.517c-11.33,0-20.518,9.185-20.518,20.517C323.152,140.149,332.34,149.336,343.67,149.336"/>
			</g>
		</g>
		<g opacity="0.65" clip-path="url(#SVGID_5_)">
			<g>
				<defs>
					<rect id="SVGID_22_" x="120.266" y="105.763" width="84.515" height="68.516"/>
				</defs>
				<clipPath id="SVGID_23_">
					<use xlink:href="#SVGID_22_"  overflow="visible"/>
				</clipPath>
				<path clip-path="url(#SVGID_23_)" fill="#BF1717" d="M162.523,173.277c18.368,0,33.257-14.89,33.257-33.257
					c0-18.368-14.889-33.258-33.257-33.258c-18.368,0-33.257,14.89-33.257,33.258C129.266,158.388,144.155,173.277,162.523,173.277"
					/>
			</g>
		</g>
		<g opacity="0.65" clip-path="url(#SVGID_5_)">
			<g>
				<defs>
					<rect id="SVGID_24_" x="53.585" y="262.206" width="73.397" height="57.396"/>
				</defs>
				<clipPath id="SVGID_25_">
					<use xlink:href="#SVGID_24_"  overflow="visible"/>
				</clipPath>
				<path clip-path="url(#SVGID_25_)" fill="#544771" d="M90.283,318.603c15.297,0,27.698-12.401,27.698-27.698
					s-12.401-27.698-27.698-27.698s-27.698,12.401-27.698,27.698S74.986,318.603,90.283,318.603"/>
			</g>
		</g>
		<g opacity="0.65" clip-path="url(#SVGID_5_)">
			<g>
				<defs>
					<rect id="SVGID_26_" x="194.128" y="74.474" width="108.11" height="92.11"/>
				</defs>
				<clipPath id="SVGID_27_">
					<use xlink:href="#SVGID_26_"  overflow="visible"/>
				</clipPath>
				<path clip-path="url(#SVGID_27_)" fill="#AC0053" d="M248.183,165.584c24.883,0,45.055-20.173,45.055-45.056
					s-20.172-45.055-45.055-45.055c-24.884,0-45.056,20.172-45.056,45.055S223.299,165.584,248.183,165.584"/>
			</g>
		</g>
		<g opacity="0.65" clip-path="url(#SVGID_5_)">
			<g>
				<defs>
					<rect id="SVGID_28_" x="5.63" y="181.14" width="93.393" height="77.96"/>
				</defs>
				<clipPath id="SVGID_29_">
					<use xlink:href="#SVGID_28_"  overflow="visible"/>
				</clipPath>
				<path clip-path="url(#SVGID_29_)" fill="#009EBC" d="M51.056,256.516c20.101,0.702,36.965-15.023,37.667-35.125
					c0.702-20.101-15.024-36.965-35.125-37.667c-20.101-0.701-36.965,15.024-37.667,35.125
					C15.229,238.95,30.955,255.813,51.056,256.516"/>
			</g>
		</g>
		<g opacity="0.65" clip-path="url(#SVGID_5_)">
			<g>
				<defs>
					<rect id="SVGID_30_" x="71.024" y="142.181" width="54.501" height="38.501"/>
				</defs>
				<clipPath id="SVGID_31_">
					<use xlink:href="#SVGID_30_"  overflow="visible"/>
				</clipPath>
				<path clip-path="url(#SVGID_31_)" fill="#009EBC" d="M98.275,179.682c10.079,0,18.25-8.171,18.25-18.25
					c0-10.08-8.171-18.251-18.25-18.251s-18.25,8.171-18.25,18.251C80.025,171.511,88.196,179.682,98.275,179.682"/>
			</g>
		</g>
		<g opacity="0.65" clip-path="url(#SVGID_5_)">
			<g>
				<defs>
					<rect id="SVGID_32_" x="188.999" y="185.267" width="81.603" height="65.604"/>
				</defs>
				<clipPath id="SVGID_33_">
					<use xlink:href="#SVGID_32_"  overflow="visible"/>
				</clipPath>
				<path clip-path="url(#SVGID_33_)" fill="#C8A600" d="M229.8,249.87c17.563,0,31.802-14.238,31.802-31.802
					s-14.238-31.802-31.802-31.802c-17.564,0-31.802,14.238-31.802,31.802S212.236,249.87,229.8,249.87"/>
			</g>
		</g>
		<g opacity="0.65" clip-path="url(#SVGID_5_)">
			<g>
				<defs>
					<rect id="SVGID_34_" x="293.636" y="52.931" width="47.7" height="31.701"/>
				</defs>
				<clipPath id="SVGID_35_">
					<use xlink:href="#SVGID_34_"  overflow="visible"/>
				</clipPath>
				<path clip-path="url(#SVGID_35_)" fill="#544771" d="M317.486,83.632c8.201,0,14.85-6.649,14.85-14.85
					c0-8.202-6.648-14.851-14.85-14.851s-14.85,6.649-14.85,14.851C302.637,76.983,309.285,83.632,317.486,83.632"/>
			</g>
		</g>
		<g opacity="0.65" clip-path="url(#SVGID_5_)">
			<g>
				<defs>
					<rect id="SVGID_36_" x="301.842" y="254.048" width="47.701" height="31.701"/>
				</defs>
				<clipPath id="SVGID_37_">
					<use xlink:href="#SVGID_36_"  overflow="visible"/>
				</clipPath>
				<path clip-path="url(#SVGID_37_)" fill="#BF1717" d="M325.693,284.749c8.201,0,14.85-6.649,14.85-14.85
					c0-8.202-6.648-14.852-14.85-14.852c-8.203,0-14.85,6.649-14.85,14.852C310.844,278.1,317.49,284.749,325.693,284.749"/>
			</g>
		</g>
		<g opacity="0.65" clip-path="url(#SVGID_5_)">
			<g>
				<defs>
					<rect id="SVGID_38_" x="169.507" y="59.086" width="47.701" height="31.701"/>
				</defs>
				<clipPath id="SVGID_39_">
					<use xlink:href="#SVGID_38_"  overflow="visible"/>
				</clipPath>
				<path clip-path="url(#SVGID_39_)" fill="#1A5318" d="M193.357,89.787c8.202,0,14.85-6.649,14.85-14.85
					c0-8.202-6.648-14.851-14.85-14.851s-14.85,6.649-14.85,14.851C178.507,83.138,185.155,89.787,193.357,89.787"/>
			</g>
		</g>
		<g opacity="0.65" clip-path="url(#SVGID_5_)">
			<g>
				<defs>
					<rect id="SVGID_40_" x="291.681" y="107.777" width="99.268" height="93.412"/>
				</defs>
				<clipPath id="SVGID_41_">
					<use xlink:href="#SVGID_40_"  overflow="visible"/>
				</clipPath>
				<path clip-path="url(#SVGID_41_)" fill="#BF1717" d="M326.186,128.274c-14.477,8.357-19.436,26.865-11.078,41.34
					s26.865,19.435,41.34,11.077c14.475-8.356,19.434-26.865,11.078-41.34C359.168,124.877,340.658,119.918,326.186,128.274"/>
			</g>
		</g>
		<g opacity="0.65" clip-path="url(#SVGID_5_)">
			<g>
				<defs>
					<rect id="SVGID_42_" x="59.106" y="-21.847" width="166.532" height="160.677"/>
				</defs>
				<clipPath id="SVGID_43_">
					<use xlink:href="#SVGID_42_"  overflow="visible"/>
				</clipPath>
				<path clip-path="url(#SVGID_43_)" fill="#1A5318" d="M114.931,10.961c-26.25,15.156-35.244,48.722-20.089,74.972
					c15.156,26.25,48.722,35.245,74.972,20.089c26.251-15.156,35.245-48.722,20.089-74.972
					C174.747,4.799,141.181-4.195,114.931,10.961"/>
			</g>
		</g>
		<g opacity="0.65" clip-path="url(#SVGID_5_)">
			<g>
				<defs>
					<rect id="SVGID_44_" x="178.349" y="72.203" width="87.588" height="75.935"/>
				</defs>
				<clipPath id="SVGID_45_">
					<use xlink:href="#SVGID_44_"  overflow="visible"/>
				</clipPath>
				<path clip-path="url(#SVGID_45_)" fill="#AC0053" d="M215.194,82.3c-15.393,3.838-24.76,19.427-20.922,34.819
					s19.427,24.76,34.82,20.922c15.394-3.838,24.761-19.428,20.922-34.819C246.176,87.829,230.587,78.461,215.194,82.3"/>
			</g>
		</g>
		<g opacity="0.65" clip-path="url(#SVGID_5_)">
			<g>
				<defs>
					<rect id="SVGID_46_" x="7.485" y="63.053" width="98.557" height="92.7"/>
				</defs>
				<clipPath id="SVGID_47_">
					<use xlink:href="#SVGID_46_"  overflow="visible"/>
				</clipPath>
				<path clip-path="url(#SVGID_47_)" fill="#E6007E" d="M41.762,83.42c-14.35,8.285-19.267,26.634-10.982,40.984
					c8.285,14.35,26.635,19.267,40.985,10.981c14.35-8.284,19.266-26.634,10.981-40.983C74.461,80.052,56.112,75.135,41.762,83.42"
					/>
			</g>
		</g>
		<g opacity="0.65" clip-path="url(#SVGID_5_)">
			<g>
				<defs>
					<rect id="SVGID_48_" x="-3.623" y="153.581" width="140.597" height="134.741"/>
				</defs>
				<clipPath id="SVGID_49_">
					<use xlink:href="#SVGID_48_"  overflow="visible"/>
				</clipPath>
				<path clip-path="url(#SVGID_49_)" fill="#1A5318" d="M43.981,181.642c-21.71,12.534-29.148,40.295-16.614,62.005
					c12.534,21.71,40.294,29.148,62.004,16.613c21.71-12.533,29.149-40.294,16.614-62.004
					C93.451,176.546,65.691,169.108,43.981,181.642"/>
			</g>
		</g>
		<g opacity="0.65" clip-path="url(#SVGID_5_)">
			<g>
				<defs>
					<rect id="SVGID_50_" x="237.288" y="177.961" width="140.597" height="134.741"/>
				</defs>
				<clipPath id="SVGID_51_">
					<use xlink:href="#SVGID_50_"  overflow="visible"/>
				</clipPath>
				<path clip-path="url(#SVGID_51_)" fill="#C8A600" d="M284.89,206.021c-21.709,12.534-29.147,40.294-16.613,62.005
					c12.534,21.71,40.293,29.148,62.004,16.613c21.709-12.534,29.148-40.294,16.613-62.004
					C334.361,200.926,306.602,193.488,284.89,206.021"/>
			</g>
		</g>
		<g opacity="0.65" clip-path="url(#SVGID_5_)">
			<g>
				<defs>
					<rect id="SVGID_52_" x="152.376" y="286.698" width="94.235" height="88.378"/>
				</defs>
				<clipPath id="SVGID_53_">
					<use xlink:href="#SVGID_52_"  overflow="visible"/>
				</clipPath>
				<path clip-path="url(#SVGID_53_)" fill="#C8A600" d="M185.284,306.274c-13.593,7.848-18.251,25.229-10.403,38.822
					c7.848,13.594,25.23,18.251,38.823,10.403c13.594-7.849,18.25-25.229,10.403-38.823S198.877,298.426,185.284,306.274"/>
			</g>
		</g>
		<g opacity="0.65" clip-path="url(#SVGID_5_)">
			<g>
				<defs>
					<rect id="SVGID_54_" x="48.837" y="260.099" width="72.642" height="66.786"/>
				</defs>
				<clipPath id="SVGID_55_">
					<use xlink:href="#SVGID_54_"  overflow="visible"/>
				</clipPath>
				<path clip-path="url(#SVGID_55_)" fill="#009EBC" d="M74.899,275.724c-9.813,5.666-13.175,18.214-7.51,28.026
					c5.666,9.813,18.214,13.175,28.027,7.511c9.813-5.666,13.176-18.215,7.51-28.027C97.26,273.42,84.712,270.058,74.899,275.724"/>
			</g>
		</g>
		<g opacity="0.65" clip-path="url(#SVGID_5_)">
			<g>
				<defs>
					<rect id="SVGID_56_" x="182.711" y="142.421" width="107.449" height="101.593"/>
				</defs>
				<clipPath id="SVGID_57_">
					<use xlink:href="#SVGID_56_"  overflow="visible"/>
				</clipPath>
				<path clip-path="url(#SVGID_57_)" fill="#BF1717" d="M219.806,164.416c-15.907,9.184-21.357,29.523-12.173,45.431
					c9.184,15.906,29.524,21.356,45.431,12.173s21.356-29.523,12.174-45.431C256.053,160.682,235.713,155.231,219.806,164.416"/>
			</g>
		</g>
		<g opacity="0.65" clip-path="url(#SVGID_5_)">
			<g>
				<defs>
					<rect id="SVGID_58_" x="177.424" y="-16.774" width="92.261" height="86.404"/>
				</defs>
				<clipPath id="SVGID_59_">
					<use xlink:href="#SVGID_58_"  overflow="visible"/>
				</clipPath>
				<path clip-path="url(#SVGID_59_)" fill="#544771" d="M209.706,2.44c-13.248,7.649-17.787,24.589-10.138,37.836
					c7.648,13.248,24.588,17.787,37.836,10.139c13.248-7.649,17.787-24.589,10.138-37.837C239.894-0.668,222.954-5.208,209.706,2.44
					"/>
			</g>
		</g>
		<g opacity="0.65" clip-path="url(#SVGID_5_)">
			<g>
				<defs>
					<rect id="SVGID_60_" x="102.158" y="186.015" width="139.68" height="133.824"/>
				</defs>
				<clipPath id="SVGID_61_">
					<use xlink:href="#SVGID_60_"  overflow="visible"/>
				</clipPath>
				<path clip-path="url(#SVGID_61_)" fill="#AC0053" d="M149.47,213.908c-21.549,12.442-28.933,39.997-16.491,61.546
					c12.441,21.549,39.996,28.934,61.546,16.491c21.549-12.441,28.933-39.996,16.491-61.546
					C198.574,208.851,171.019,201.467,149.47,213.908"/>
			</g>
		</g>
		<g opacity="0.65" clip-path="url(#SVGID_5_)">
			<g>
				<defs>
					<rect id="SVGID_62_" x="234.15" y="14.39" width="115.336" height="108.721"/>
				</defs>
				<clipPath id="SVGID_63_">
					<use xlink:href="#SVGID_62_"  overflow="visible"/>
				</clipPath>
				<path clip-path="url(#SVGID_63_)" fill="#009EBC" d="M274.721,36.595c-17.759,9.443-24.5,31.494-15.058,49.252
					c9.441,17.759,31.494,24.501,49.252,15.058c17.758-9.442,24.5-31.493,15.057-49.252
					C314.531,33.895,292.48,27.152,274.721,36.595"/>
			</g>
		</g>
		<g opacity="0.65" clip-path="url(#SVGID_5_)">
			<g>
				<defs>
					<rect id="SVGID_64_" x="248.146" y="112.254" width="66.45" height="60.594"/>
				</defs>
				<clipPath id="SVGID_65_">
					<use xlink:href="#SVGID_64_"  overflow="visible"/>
				</clipPath>
				<path clip-path="url(#SVGID_65_)" fill="#009EBC" d="M272.246,126.745c-8.729,5.04-11.721,16.201-6.681,24.931
					c5.04,8.729,16.201,11.72,24.931,6.681c8.729-5.04,11.719-16.202,6.681-24.931C292.136,124.696,280.974,121.706,272.246,126.745
					"/>
			</g>
		</g>
		<g opacity="0.65" clip-path="url(#SVGID_5_)">
			<g>
				<defs>
					<rect id="SVGID_66_" x="238.12" y="289.803" width="66.451" height="60.594"/>
				</defs>
				<clipPath id="SVGID_67_">
					<use xlink:href="#SVGID_66_"  overflow="visible"/>
				</clipPath>
				<path clip-path="url(#SVGID_67_)" fill="#BF1717" d="M262.22,304.295c-8.729,5.04-11.721,16.201-6.681,24.93
					c5.04,8.729,16.201,11.72,24.931,6.681c8.729-5.04,11.72-16.201,6.681-24.931C282.111,302.246,270.949,299.255,262.22,304.295"
					/>
			</g>
		</g>
		<g opacity="0.65" clip-path="url(#SVGID_5_)">
			<g>
				<defs>
					<rect id="SVGID_68_" x="87.412" y="110.456" width="103.472" height="97.616"/>
				</defs>
				<clipPath id="SVGID_69_">
					<use xlink:href="#SVGID_68_"  overflow="visible"/>
				</clipPath>
				<path clip-path="url(#SVGID_69_)" fill="#C8A600" d="M123.247,131.723c-15.21,8.782-20.422,28.231-11.64,43.442
					c8.782,15.21,28.231,20.422,43.442,11.64c15.21-8.781,20.422-28.23,11.64-43.441
					C157.907,128.153,138.457,122.941,123.247,131.723"/>
			</g>
		</g>
		<g opacity="0.65" clip-path="url(#SVGID_5_)">
			<g>
				<defs>
					<rect id="SVGID_70_" x="109.273" y="306.742" width="57.16" height="51.303"/>
				</defs>
				<clipPath id="SVGID_71_">
					<use xlink:href="#SVGID_70_"  overflow="visible"/>
				</clipPath>
				<path clip-path="url(#SVGID_71_)" fill="#544771" d="M130.427,319.532c-7.103,4.102-9.536,13.184-5.436,20.286
					c4.101,7.104,13.184,9.536,20.286,5.437c7.103-4.102,9.537-13.185,5.436-20.286C146.612,317.865,137.53,315.432,130.427,319.532
					"/>
			</g>
		</g>
		<g opacity="0.65" clip-path="url(#SVGID_5_)">
			<g>
				<defs>
					<rect id="SVGID_72_" x="1.606" y="136.672" width="57.16" height="51.304"/>
				</defs>
				<clipPath id="SVGID_73_">
					<use xlink:href="#SVGID_72_"  overflow="visible"/>
				</clipPath>
				<path clip-path="url(#SVGID_73_)" fill="#BF1717" d="M22.761,149.463c-7.103,4.102-9.536,13.184-5.436,20.286
					c4.101,7.104,13.184,9.536,20.286,5.437c7.103-4.102,9.537-13.185,5.436-20.286C38.946,147.797,29.864,145.362,22.761,149.463"
					/>
			</g>
		</g>
		<g opacity="0.65" clip-path="url(#SVGID_5_)">
			<g>
				<defs>
					<rect id="SVGID_74_" x="213.694" y="239.347" width="57.159" height="51.305"/>
				</defs>
				<clipPath id="SVGID_75_">
					<use xlink:href="#SVGID_74_"  overflow="visible"/>
				</clipPath>
				<path clip-path="url(#SVGID_75_)" fill="#1A5318" d="M234.849,252.138c-7.104,4.102-9.537,13.183-5.437,20.286
					c4.101,7.103,13.185,9.536,20.286,5.436c7.103-4.101,9.537-13.184,5.436-20.285
					C251.034,250.471,241.952,248.037,234.849,252.138"/>
			</g>
		</g>
	</g>
	<g clip-path="url(#SVGID_2_)">
		<path fill="#FFFFFF" d="M11.432,454.604v-10.248h3.46c1.396,0,2.5,0.209,3.313,0.628s1.459,1.034,1.939,1.848
			c0.48,0.812,0.72,1.699,0.72,2.659c0,0.686-0.132,1.342-0.397,1.969c-0.264,0.627-0.642,1.178-1.131,1.653
			c-0.5,0.489-1.08,0.859-1.741,1.109c-0.387,0.151-0.742,0.253-1.065,0.305s-0.94,0.077-1.852,0.077H11.432z M14.738,445.663
			h-1.837v7.633h1.881c0.735,0,1.305-0.05,1.712-0.15c0.406-0.101,0.746-0.229,1.018-0.383c0.271-0.154,0.52-0.344,0.746-0.569
			c0.725-0.734,1.087-1.662,1.087-2.784c0-1.102-0.372-2-1.116-2.696c-0.274-0.259-0.589-0.473-0.944-0.639
			c-0.355-0.167-0.692-0.276-1.01-0.331C15.955,445.689,15.443,445.663,14.738,445.663z"/>
		<path fill="#FFFFFF" d="M38.241,444.296h1.033l4.602,10.322h-1.504l-1.368-3.041h-4.378l-1.283,3.041h-1.51L38.241,444.296z
			 M40.4,450.269l-1.656-3.717l-1.536,3.717H40.4z"/>
		<path fill="#FFFFFF" d="M60.631,450.318l-1.117-0.679c-0.701-0.428-1.199-0.849-1.495-1.263c-0.296-0.413-0.444-0.89-0.444-1.429
			c0-0.808,0.28-1.464,0.841-1.969c0.561-0.505,1.289-0.757,2.186-0.757c0.857,0,1.643,0.24,2.358,0.722v1.668
			c-0.739-0.712-1.535-1.067-2.387-1.067c-0.48,0-0.875,0.111-1.183,0.333c-0.309,0.223-0.463,0.506-0.463,0.853
			c0,0.308,0.114,0.596,0.341,0.863c0.228,0.269,0.593,0.551,1.097,0.846l1.122,0.664c1.252,0.748,1.878,1.699,1.878,2.855
			c0,0.822-0.275,1.491-0.827,2.005c-0.551,0.515-1.267,0.771-2.149,0.771c-1.014,0-1.937-0.312-2.77-0.935v-1.866
			c0.793,1.006,1.712,1.508,2.755,1.508c0.46,0,0.844-0.128,1.15-0.384c0.306-0.257,0.459-0.577,0.459-0.963
			C61.983,451.471,61.532,450.879,60.631,450.318z"/>
		<path fill="#FFFFFF" d="M103.487,444.355h1.374v10.263h-1.477v-7.985l-3.155,3.967h-0.272l-3.192-3.967v7.985h-1.469v-10.263
			h1.391l3.41,4.215L103.487,444.355z"/>
		<path fill="#FFFFFF" d="M127.304,444.355h1.477v5.825c0,0.789-0.058,1.384-0.173,1.785c-0.115,0.402-0.257,0.736-0.426,1.003
			c-0.169,0.268-0.376,0.506-0.621,0.717c-0.813,0.7-1.876,1.05-3.188,1.05c-1.337,0-2.41-0.348-3.218-1.043
			c-0.245-0.216-0.452-0.456-0.621-0.724c-0.169-0.267-0.309-0.594-0.419-0.98c-0.11-0.387-0.165-0.994-0.165-1.822v-5.811h1.477
			v5.825c0,0.965,0.11,1.636,0.331,2.013c0.22,0.378,0.556,0.68,1.006,0.908c0.451,0.228,0.982,0.341,1.594,0.341
			c0.872,0,1.582-0.228,2.13-0.683c0.289-0.245,0.497-0.534,0.625-0.867s0.191-0.903,0.191-1.712V444.355z M122.939,442.085
			c0.191,0,0.356,0.068,0.496,0.206c0.14,0.137,0.209,0.304,0.209,0.499c0,0.196-0.066,0.361-0.198,0.496
			c-0.132,0.135-0.294,0.202-0.485,0.202c-0.196,0-0.363-0.07-0.5-0.21s-0.206-0.305-0.206-0.495c0-0.196,0.067-0.361,0.202-0.496
			S122.753,442.085,122.939,442.085z M125.768,442.085c0.191,0,0.356,0.068,0.496,0.206c0.139,0.137,0.209,0.304,0.209,0.499
			c0,0.196-0.066,0.361-0.198,0.496s-0.294,0.202-0.485,0.202c-0.196,0-0.362-0.07-0.5-0.21s-0.206-0.305-0.206-0.495
			c0-0.196,0.067-0.361,0.202-0.496C125.421,442.152,125.582,442.085,125.768,442.085z"/>
		<path fill="#FFFFFF" d="M146.432,450.318l-1.117-0.679c-0.701-0.428-1.199-0.849-1.495-1.263c-0.296-0.413-0.444-0.89-0.444-1.429
			c0-0.808,0.28-1.464,0.841-1.969c0.561-0.505,1.289-0.757,2.186-0.757c0.857,0,1.643,0.24,2.358,0.722v1.668
			c-0.739-0.712-1.535-1.067-2.387-1.067c-0.48,0-0.875,0.111-1.183,0.333c-0.309,0.223-0.463,0.506-0.463,0.853
			c0,0.308,0.114,0.596,0.341,0.863c0.228,0.269,0.593,0.551,1.097,0.846l1.122,0.664c1.252,0.748,1.878,1.699,1.878,2.855
			c0,0.822-0.275,1.491-0.827,2.005c-0.551,0.515-1.267,0.771-2.149,0.771c-1.014,0-1.937-0.312-2.77-0.935v-1.866
			c0.793,1.006,1.712,1.508,2.755,1.508c0.46,0,0.844-0.128,1.15-0.384c0.306-0.257,0.459-0.577,0.459-0.963
			C147.783,451.471,147.333,450.879,146.432,450.318z"/>
		<path fill="#FFFFFF" d="M163.855,444.355h1.469v8.926h4.621v1.337h-6.09V444.355z"/>
		<path fill="#FFFFFF" d="M184.321,444.355h1.469v10.263h-1.469V444.355z"/>
		<path fill="#FFFFFF" d="M218.427,444.355h5.473v1.308h-4.004v2.865h4.004v1.308h-4.004v4.782h-1.469V444.355z"/>
		<path fill="#FFFFFF" d="M245.688,444.355h1.477v5.825c0,0.789-0.058,1.384-0.173,1.785c-0.115,0.402-0.257,0.736-0.426,1.003
			c-0.169,0.268-0.376,0.506-0.621,0.717c-0.813,0.7-1.876,1.05-3.188,1.05c-1.337,0-2.41-0.348-3.218-1.043
			c-0.245-0.216-0.452-0.456-0.621-0.724c-0.169-0.267-0.309-0.594-0.419-0.98c-0.11-0.387-0.165-0.994-0.165-1.822v-5.811h1.477
			v5.825c0,0.965,0.11,1.636,0.331,2.013c0.22,0.378,0.556,0.68,1.006,0.908c0.451,0.228,0.982,0.341,1.594,0.341
			c0.872,0,1.582-0.228,2.13-0.683c0.289-0.245,0.497-0.534,0.625-0.867s0.191-0.903,0.191-1.712V444.355z M241.324,442.085
			c0.191,0,0.356,0.068,0.496,0.206c0.14,0.137,0.209,0.304,0.209,0.499c0,0.196-0.066,0.361-0.198,0.496
			c-0.132,0.135-0.294,0.202-0.485,0.202c-0.196,0-0.363-0.07-0.5-0.21s-0.206-0.305-0.206-0.495c0-0.196,0.067-0.361,0.202-0.496
			S241.138,442.085,241.324,442.085z M244.153,442.085c0.191,0,0.356,0.068,0.496,0.206c0.139,0.137,0.209,0.304,0.209,0.499
			c0,0.196-0.066,0.361-0.198,0.496s-0.294,0.202-0.485,0.202c-0.196,0-0.362-0.07-0.5-0.21s-0.206-0.305-0.206-0.495
			c0-0.196,0.067-0.361,0.202-0.496C243.806,442.152,243.967,442.085,244.153,442.085z"/>
		<path fill="#FFFFFF" d="M262.319,454.618v-10.263h2.571c1.039,0,1.862,0.257,2.472,0.771c0.61,0.515,0.915,1.21,0.915,2.087
			c0,0.598-0.149,1.114-0.448,1.55c-0.299,0.437-0.728,0.762-1.286,0.978c0.328,0.216,0.649,0.509,0.962,0.882
			c0.313,0.372,0.754,1.021,1.322,1.946c0.357,0.583,0.644,1.021,0.859,1.315l0.544,0.734h-1.749l-0.448-0.676
			c-0.015-0.024-0.044-0.066-0.088-0.125l-0.286-0.404l-0.455-0.75l-0.492-0.802c-0.303-0.421-0.581-0.757-0.833-1.006
			s-0.48-0.429-0.684-0.539s-0.545-0.165-1.026-0.165h-0.383v4.467H262.319z M264.229,445.604h-0.441v3.24h0.559
			c0.745,0,1.255-0.063,1.532-0.191c0.277-0.127,0.492-0.319,0.646-0.576s0.231-0.55,0.231-0.878c0-0.323-0.086-0.616-0.257-0.878
			s-0.413-0.447-0.724-0.555S264.949,445.604,264.229,445.604z"/>
		<path fill="#FFFFFF" d="M301.723,454.604v-10.248h3.459c1.396,0,2.5,0.209,3.314,0.628c0.812,0.419,1.459,1.034,1.939,1.848
			c0.479,0.812,0.719,1.699,0.719,2.659c0,0.686-0.131,1.342-0.396,1.969c-0.264,0.627-0.641,1.178-1.131,1.653
			c-0.5,0.489-1.08,0.859-1.742,1.109c-0.387,0.151-0.742,0.253-1.064,0.305c-0.324,0.052-0.939,0.077-1.852,0.077H301.723z
			 M305.027,445.663h-1.836v7.633h1.881c0.734,0,1.305-0.05,1.711-0.15s0.746-0.229,1.018-0.383s0.521-0.344,0.746-0.569
			c0.725-0.734,1.088-1.662,1.088-2.784c0-1.102-0.373-2-1.117-2.696c-0.275-0.259-0.59-0.473-0.943-0.639
			c-0.355-0.167-0.693-0.276-1.012-0.331C306.244,445.689,305.732,445.663,305.027,445.663z"/>
		<path fill="#FFFFFF" d="M326.098,444.355h1.469v10.263h-1.469V444.355z"/>
		<path fill="#FFFFFF" d="M351.764,452.238v1.616c-1.078,0.587-2.322,0.881-3.732,0.881c-1.146,0-2.119-0.229-2.916-0.69
			c-0.799-0.46-1.432-1.095-1.896-1.902c-0.465-0.809-0.697-1.683-0.697-2.623c0-1.494,0.533-2.75,1.598-3.769
			s2.379-1.528,3.941-1.528c1.078,0,2.275,0.282,3.592,0.845v1.58c-1.199-0.686-2.373-1.029-3.518-1.029
			c-1.176,0-2.152,0.371-2.928,1.113c-0.777,0.742-1.164,1.672-1.164,2.788c0,1.127,0.381,2.053,1.145,2.777
			s1.742,1.087,2.932,1.087C349.363,453.384,350.578,453.002,351.764,452.238z"/>
		<path fill="#FFFFFF" d="M373.883,444.355h1.469v10.263h-1.469v-4.467h-5.768v4.467h-1.469v-10.263h1.469v4.437h5.768V444.355z"/>
	</g>
	<g clip-path="url(#SVGID_2_)">
		<defs>
			<rect id="SVGID_76_" x="-1.342" y="-1.275" width="451.118" height="509.193"/>
		</defs>
		<clipPath id="SVGID_77_">
			<use xlink:href="#SVGID_76_"  overflow="visible"/>
		</clipPath>
		<g opacity="0.65" clip-path="url(#SVGID_77_)">
			<g>
				<defs>
					<rect id="SVGID_78_" x="271.043" y="78.988" width="57.16" height="51.304"/>
				</defs>
				<clipPath id="SVGID_79_">
					<use xlink:href="#SVGID_78_"  overflow="visible"/>
				</clipPath>
				<path clip-path="url(#SVGID_79_)" fill="#BF1717" d="M292.199,91.779c-7.104,4.101-9.536,13.183-5.437,20.286
					c4.101,7.103,13.185,9.536,20.287,5.436c7.104-4.101,9.537-13.184,5.436-20.286S299.301,87.678,292.199,91.779"/>
			</g>
		</g>
	</g>
</g>
</svg>
