<svg xmlns="http://www.w3.org/2000/svg" xmlns:xlink="http://www.w3.org/1999/xlink" id="Ebene_1" width="390.41" height="470.889" x="0" y="0" enable-background="new 0 0 390.41 470.889" version="1.1" viewBox="0 0 390.41 470.889" xml:space="preserve"><g><defs><rect id="SVGID_1_" width="451.118" height="509.193" x="-1.342" y="-1.275"/></defs><clipPath id="SVGID_2_"><use overflow="visible" xlink:href="#SVGID_1_"/></clipPath><polygon fill="#C8A600" points="178.648 505.548 178.648 507.918 178.648 505.548 178.648 503.179" clip-path="url(#SVGID_2_)"/><g clip-path="url(#SVGID_2_)"><defs><rect id="SVGID_3_" width="451.118" height="509.193" x="-1.342" y="-1.275"/></defs><clipPath id="SVGID_4_"><use overflow="visible" xlink:href="#SVGID_3_"/></clipPath><g clip-path="url(#SVGID_4_)" opacity=".65"><g><defs><rect id="SVGID_5_" width="78.526" height="62.524" x="13.063" y="89.862"/></defs><clipPath id="SVGID_6_"><use overflow="visible" xlink:href="#SVGID_5_"/></clipPath><path fill="#BF1717" d="M52.327,151.388c16.714,0,30.263-13.549,30.263-30.264 c0-16.713-13.549-30.263-30.263-30.263c-16.714,0-30.263,13.55-30.263,30.263C22.063,137.839,35.612,151.388,52.327,151.388" clip-path="url(#SVGID_6_)"/></g></g><g clip-path="url(#SVGID_4_)" opacity=".65"><g><defs><rect id="SVGID_7_" width="127.768" height="111.768" x="112.738" y="247.844"/></defs><clipPath id="SVGID_8_"><use overflow="visible" xlink:href="#SVGID_7_"/></clipPath><path fill="#1A5318" d="M176.621,358.611c30.311,0,54.882-24.572,54.882-54.884 s-24.571-54.884-54.882-54.884s-54.883,24.572-54.883,54.884S146.31,358.611,176.621,358.611" clip-path="url(#SVGID_8_)"/></g></g><g clip-path="url(#SVGID_4_)" opacity=".65"><g><defs><rect id="SVGID_9_" width="88.912" height="77.94" x="88.921" y="180.116"/></defs><clipPath id="SVGID_10_"><use overflow="visible" xlink:href="#SVGID_9_"/></clipPath><path fill="#AC0053" d="M125.459,246.698c15.249,4.373,31.156-4.445,35.529-19.694 c4.372-15.249-4.445-31.156-19.694-35.529c-15.25-4.372-31.156,4.445-35.529,19.694 C101.392,226.419,110.21,242.325,125.459,246.698" clip-path="url(#SVGID_10_)"/></g></g><g clip-path="url(#SVGID_4_)" opacity=".65"><g><defs><rect id="SVGID_11_" width="78.004" height="62.005" x="237.214" y="271.439"/></defs><clipPath id="SVGID_12_"><use overflow="visible" xlink:href="#SVGID_11_"/></clipPath><path fill="#E6007E" d="M276.216,332.444c16.57,0,30.002-13.434,30.002-30.003 s-13.432-30.003-30.002-30.003s-30.003,13.434-30.003,30.003S259.646,332.444,276.216,332.444" clip-path="url(#SVGID_12_)"/></g></g><g clip-path="url(#SVGID_4_)" opacity=".65"><g><defs><rect id="SVGID_13_" width="108.78" height="92.78" x="269.015" y="154.491"/></defs><clipPath id="SVGID_14_"><use overflow="visible" xlink:href="#SVGID_13_"/></clipPath><path fill="#1A5318" d="M323.406,246.271c25.066,0,45.389-20.321,45.389-45.39 c0-25.069-20.322-45.391-45.389-45.391c-25.069,0-45.391,20.321-45.391,45.391C278.015,225.95,298.337,246.271,323.406,246.271" clip-path="url(#SVGID_14_)"/></g></g><g clip-path="url(#SVGID_4_)" opacity=".65"><g><defs><rect id="SVGID_15_" width="108.78" height="92.78" x="72.571" y="12.923"/></defs><clipPath id="SVGID_16_"><use overflow="visible" xlink:href="#SVGID_15_"/></clipPath><path fill="#BF1717" d="M126.961,104.703c25.068,0,45.39-20.322,45.39-45.39 c0-25.069-20.322-45.391-45.39-45.391s-45.39,20.322-45.39,45.391C81.571,84.381,101.894,104.703,126.961,104.703" clip-path="url(#SVGID_16_)"/></g></g><g clip-path="url(#SVGID_4_)" opacity=".65"><g><defs><rect id="SVGID_17_" width="74.84" height="58.841" x="225.929" y="9.845"/></defs><clipPath id="SVGID_18_"><use overflow="visible" xlink:href="#SVGID_17_"/></clipPath><path fill="#009EBC" d="M263.349,67.686c15.696,0,28.42-12.724,28.42-28.42 c0-15.696-12.724-28.421-28.42-28.421c-15.695,0-28.42,12.725-28.42,28.421C234.929,54.962,247.654,67.686,263.349,67.686" clip-path="url(#SVGID_18_)"/></g></g><g clip-path="url(#SVGID_4_)" opacity=".65"><g><defs><rect id="SVGID_19_" width="59.035" height="43.034" x="314.152" y="107.302"/></defs><clipPath id="SVGID_20_"><use overflow="visible" xlink:href="#SVGID_19_"/></clipPath><path fill="#009EBC" d="M343.67,149.336c11.332,0,20.518-9.187,20.518-20.518 c0-11.332-9.186-20.517-20.518-20.517c-11.33,0-20.518,9.185-20.518,20.517C323.152,140.149,332.34,149.336,343.67,149.336" clip-path="url(#SVGID_20_)"/></g></g><g clip-path="url(#SVGID_4_)" opacity=".65"><g><defs><rect id="SVGID_21_" width="84.515" height="68.516" x="120.266" y="105.763"/></defs><clipPath id="SVGID_22_"><use overflow="visible" xlink:href="#SVGID_21_"/></clipPath><path fill="#BF1717" d="M162.523,173.277c18.368,0,33.257-14.89,33.257-33.257 c0-18.368-14.889-33.258-33.257-33.258c-18.368,0-33.257,14.89-33.257,33.258C129.266,158.388,144.155,173.277,162.523,173.277" clip-path="url(#SVGID_22_)"/></g></g><g clip-path="url(#SVGID_4_)" opacity=".65"><g><defs><rect id="SVGID_23_" width="73.397" height="57.396" x="53.585" y="262.206"/></defs><clipPath id="SVGID_24_"><use overflow="visible" xlink:href="#SVGID_23_"/></clipPath><path fill="#544771" d="M90.283,318.603c15.297,0,27.698-12.401,27.698-27.698 s-12.401-27.698-27.698-27.698s-27.698,12.401-27.698,27.698S74.986,318.603,90.283,318.603" clip-path="url(#SVGID_24_)"/></g></g><g clip-path="url(#SVGID_4_)" opacity=".65"><g><defs><rect id="SVGID_25_" width="108.11" height="92.11" x="194.128" y="74.474"/></defs><clipPath id="SVGID_26_"><use overflow="visible" xlink:href="#SVGID_25_"/></clipPath><path fill="#AC0053" d="M248.183,165.584c24.883,0,45.055-20.173,45.055-45.056 s-20.172-45.055-45.055-45.055c-24.884,0-45.056,20.172-45.056,45.055S223.299,165.584,248.183,165.584" clip-path="url(#SVGID_26_)"/></g></g><g clip-path="url(#SVGID_4_)" opacity=".65"><g><defs><rect id="SVGID_27_" width="93.393" height="77.96" x="5.63" y="181.14"/></defs><clipPath id="SVGID_28_"><use overflow="visible" xlink:href="#SVGID_27_"/></clipPath><path fill="#009EBC" d="M51.056,256.516c20.101,0.702,36.965-15.023,37.667-35.125 c0.702-20.101-15.024-36.965-35.125-37.667c-20.101-0.701-36.965,15.024-37.667,35.125 C15.229,238.95,30.955,255.813,51.056,256.516" clip-path="url(#SVGID_28_)"/></g></g><g clip-path="url(#SVGID_4_)" opacity=".65"><g><defs><rect id="SVGID_29_" width="54.501" height="38.501" x="71.024" y="142.181"/></defs><clipPath id="SVGID_30_"><use overflow="visible" xlink:href="#SVGID_29_"/></clipPath><path fill="#009EBC" d="M98.275,179.682c10.079,0,18.25-8.171,18.25-18.25 c0-10.08-8.171-18.251-18.25-18.251s-18.25,8.171-18.25,18.251C80.025,171.511,88.196,179.682,98.275,179.682" clip-path="url(#SVGID_30_)"/></g></g><g clip-path="url(#SVGID_4_)" opacity=".65"><g><defs><rect id="SVGID_31_" width="81.603" height="65.604" x="188.999" y="185.267"/></defs><clipPath id="SVGID_32_"><use overflow="visible" xlink:href="#SVGID_31_"/></clipPath><path fill="#C8A600" d="M229.8,249.87c17.563,0,31.802-14.238,31.802-31.802 s-14.238-31.802-31.802-31.802c-17.564,0-31.802,14.238-31.802,31.802S212.236,249.87,229.8,249.87" clip-path="url(#SVGID_32_)"/></g></g><g clip-path="url(#SVGID_4_)" opacity=".65"><g><defs><rect id="SVGID_33_" width="47.7" height="31.701" x="293.636" y="52.931"/></defs><clipPath id="SVGID_34_"><use overflow="visible" xlink:href="#SVGID_33_"/></clipPath><path fill="#544771" d="M317.486,83.632c8.201,0,14.85-6.649,14.85-14.85 c0-8.202-6.648-14.851-14.85-14.851s-14.85,6.649-14.85,14.851C302.637,76.983,309.285,83.632,317.486,83.632" clip-path="url(#SVGID_34_)"/></g></g><g clip-path="url(#SVGID_4_)" opacity=".65"><g><defs><rect id="SVGID_35_" width="47.701" height="31.701" x="301.842" y="254.048"/></defs><clipPath id="SVGID_36_"><use overflow="visible" xlink:href="#SVGID_35_"/></clipPath><path fill="#BF1717" d="M325.693,284.749c8.201,0,14.85-6.649,14.85-14.85 c0-8.202-6.648-14.852-14.85-14.852c-8.203,0-14.85,6.649-14.85,14.852C310.844,278.1,317.49,284.749,325.693,284.749" clip-path="url(#SVGID_36_)"/></g></g><g clip-path="url(#SVGID_4_)" opacity=".65"><g><defs><rect id="SVGID_37_" width="47.701" height="31.701" x="169.507" y="59.086"/></defs><clipPath id="SVGID_38_"><use overflow="visible" xlink:href="#SVGID_37_"/></clipPath><path fill="#1A5318" d="M193.357,89.787c8.202,0,14.85-6.649,14.85-14.85 c0-8.202-6.648-14.851-14.85-14.851s-14.85,6.649-14.85,14.851C178.507,83.138,185.155,89.787,193.357,89.787" clip-path="url(#SVGID_38_)"/></g></g><g clip-path="url(#SVGID_4_)" opacity=".65"><g><defs><rect id="SVGID_39_" width="99.268" height="93.412" x="291.681" y="107.777"/></defs><clipPath id="SVGID_40_"><use overflow="visible" xlink:href="#SVGID_39_"/></clipPath><path fill="#BF1717" d="M326.186,128.274c-14.477,8.357-19.436,26.865-11.078,41.34 s26.865,19.435,41.34,11.077c14.475-8.356,19.434-26.865,11.078-41.34C359.168,124.877,340.658,119.918,326.186,128.274" clip-path="url(#SVGID_40_)"/></g></g><g clip-path="url(#SVGID_4_)" opacity=".65"><g><defs><rect id="SVGID_41_" width="166.532" height="160.677" x="59.106" y="-21.847"/></defs><clipPath id="SVGID_42_"><use overflow="visible" xlink:href="#SVGID_41_"/></clipPath><path fill="#1A5318" d="M114.931,10.961c-26.25,15.156-35.244,48.722-20.089,74.972 c15.156,26.25,48.722,35.245,74.972,20.089c26.251-15.156,35.245-48.722,20.089-74.972 C174.747,4.799,141.181-4.195,114.931,10.961" clip-path="url(#SVGID_42_)"/></g></g><g clip-path="url(#SVGID_4_)" opacity=".65"><g><defs><rect id="SVGID_43_" width="87.588" height="75.935" x="178.349" y="72.203"/></defs><clipPath id="SVGID_44_"><use overflow="visible" xlink:href="#SVGID_43_"/></clipPath><path fill="#AC0053" d="M215.194,82.3c-15.393,3.838-24.76,19.427-20.922,34.819 s19.427,24.76,34.82,20.922c15.394-3.838,24.761-19.428,20.922-34.819C246.176,87.829,230.587,78.461,215.194,82.3" clip-path="url(#SVGID_44_)"/></g></g><g clip-path="url(#SVGID_4_)" opacity=".65"><g><defs><rect id="SVGID_45_" width="98.557" height="92.7" x="7.485" y="63.053"/></defs><clipPath id="SVGID_46_"><use overflow="visible" xlink:href="#SVGID_45_"/></clipPath><path fill="#E6007E" d="M41.762,83.42c-14.35,8.285-19.267,26.634-10.982,40.984 c8.285,14.35,26.635,19.267,40.985,10.981c14.35-8.284,19.266-26.634,10.981-40.983C74.461,80.052,56.112,75.135,41.762,83.42" clip-path="url(#SVGID_46_)"/></g></g><g clip-path="url(#SVGID_4_)" opacity=".65"><g><defs><rect id="SVGID_47_" width="140.597" height="134.741" x="-3.623" y="153.581"/></defs><clipPath id="SVGID_48_"><use overflow="visible" xlink:href="#SVGID_47_"/></clipPath><path fill="#1A5318" d="M43.981,181.642c-21.71,12.534-29.148,40.295-16.614,62.005 c12.534,21.71,40.294,29.148,62.004,16.613c21.71-12.533,29.149-40.294,16.614-62.004 C93.451,176.546,65.691,169.108,43.981,181.642" clip-path="url(#SVGID_48_)"/></g></g><g clip-path="url(#SVGID_4_)" opacity=".65"><g><defs><rect id="SVGID_49_" width="140.597" height="134.741" x="237.288" y="177.961"/></defs><clipPath id="SVGID_50_"><use overflow="visible" xlink:href="#SVGID_49_"/></clipPath><path fill="#C8A600" d="M284.89,206.021c-21.709,12.534-29.147,40.294-16.613,62.005 c12.534,21.71,40.293,29.148,62.004,16.613c21.709-12.534,29.148-40.294,16.613-62.004 C334.361,200.926,306.602,193.488,284.89,206.021" clip-path="url(#SVGID_50_)"/></g></g><g clip-path="url(#SVGID_4_)" opacity=".65"><g><defs><rect id="SVGID_51_" width="94.235" height="88.378" x="152.376" y="286.698"/></defs><clipPath id="SVGID_52_"><use overflow="visible" xlink:href="#SVGID_51_"/></clipPath><path fill="#C8A600" d="M185.284,306.274c-13.593,7.848-18.251,25.229-10.403,38.822 c7.848,13.594,25.23,18.251,38.823,10.403c13.594-7.849,18.25-25.229,10.403-38.823S198.877,298.426,185.284,306.274" clip-path="url(#SVGID_52_)"/></g></g><g clip-path="url(#SVGID_4_)" opacity=".65"><g><defs><rect id="SVGID_53_" width="72.642" height="66.786" x="48.837" y="260.099"/></defs><clipPath id="SVGID_54_"><use overflow="visible" xlink:href="#SVGID_53_"/></clipPath><path fill="#009EBC" d="M74.899,275.724c-9.813,5.666-13.175,18.214-7.51,28.026 c5.666,9.813,18.214,13.175,28.027,7.511c9.813-5.666,13.176-18.215,7.51-28.027C97.26,273.42,84.712,270.058,74.899,275.724" clip-path="url(#SVGID_54_)"/></g></g><g clip-path="url(#SVGID_4_)" opacity=".65"><g><defs><rect id="SVGID_55_" width="107.449" height="101.593" x="182.711" y="142.421"/></defs><clipPath id="SVGID_56_"><use overflow="visible" xlink:href="#SVGID_55_"/></clipPath><path fill="#BF1717" d="M219.806,164.416c-15.907,9.184-21.357,29.523-12.173,45.431 c9.184,15.906,29.524,21.356,45.431,12.173s21.356-29.523,12.174-45.431C256.053,160.682,235.713,155.231,219.806,164.416" clip-path="url(#SVGID_56_)"/></g></g><g clip-path="url(#SVGID_4_)" opacity=".65"><g><defs><rect id="SVGID_57_" width="92.261" height="86.404" x="177.424" y="-16.774"/></defs><clipPath id="SVGID_58_"><use overflow="visible" xlink:href="#SVGID_57_"/></clipPath><path fill="#544771" d="M209.706,2.44c-13.248,7.649-17.787,24.589-10.138,37.836 c7.648,13.248,24.588,17.787,37.836,10.139c13.248-7.649,17.787-24.589,10.138-37.837C239.894-0.668,222.954-5.208,209.706,2.44" clip-path="url(#SVGID_58_)"/></g></g><g clip-path="url(#SVGID_4_)" opacity=".65"><g><defs><rect id="SVGID_59_" width="139.68" height="133.824" x="102.158" y="186.015"/></defs><clipPath id="SVGID_60_"><use overflow="visible" xlink:href="#SVGID_59_"/></clipPath><path fill="#AC0053" d="M149.47,213.908c-21.549,12.442-28.933,39.997-16.491,61.546 c12.441,21.549,39.996,28.934,61.546,16.491c21.549-12.441,28.933-39.996,16.491-61.546 C198.574,208.851,171.019,201.467,149.47,213.908" clip-path="url(#SVGID_60_)"/></g></g><g clip-path="url(#SVGID_4_)" opacity=".65"><g><defs><rect id="SVGID_61_" width="115.336" height="108.721" x="234.15" y="14.39"/></defs><clipPath id="SVGID_62_"><use overflow="visible" xlink:href="#SVGID_61_"/></clipPath><path fill="#009EBC" d="M274.721,36.595c-17.759,9.443-24.5,31.494-15.058,49.252 c9.441,17.759,31.494,24.501,49.252,15.058c17.758-9.442,24.5-31.493,15.057-49.252 C314.531,33.895,292.48,27.152,274.721,36.595" clip-path="url(#SVGID_62_)"/></g></g><g clip-path="url(#SVGID_4_)" opacity=".65"><g><defs><rect id="SVGID_63_" width="66.45" height="60.594" x="248.146" y="112.254"/></defs><clipPath id="SVGID_64_"><use overflow="visible" xlink:href="#SVGID_63_"/></clipPath><path fill="#009EBC" d="M272.246,126.745c-8.729,5.04-11.721,16.201-6.681,24.931 c5.04,8.729,16.201,11.72,24.931,6.681c8.729-5.04,11.719-16.202,6.681-24.931C292.136,124.696,280.974,121.706,272.246,126.745" clip-path="url(#SVGID_64_)"/></g></g><g clip-path="url(#SVGID_4_)" opacity=".65"><g><defs><rect id="SVGID_65_" width="66.451" height="60.594" x="238.12" y="289.803"/></defs><clipPath id="SVGID_66_"><use overflow="visible" xlink:href="#SVGID_65_"/></clipPath><path fill="#BF1717" d="M262.22,304.295c-8.729,5.04-11.721,16.201-6.681,24.93 c5.04,8.729,16.201,11.72,24.931,6.681c8.729-5.04,11.72-16.201,6.681-24.931C282.111,302.246,270.949,299.255,262.22,304.295" clip-path="url(#SVGID_66_)"/></g></g><g clip-path="url(#SVGID_4_)" opacity=".65"><g><defs><rect id="SVGID_67_" width="103.472" height="97.616" x="87.412" y="110.456"/></defs><clipPath id="SVGID_68_"><use overflow="visible" xlink:href="#SVGID_67_"/></clipPath><path fill="#C8A600" d="M123.247,131.723c-15.21,8.782-20.422,28.231-11.64,43.442 c8.782,15.21,28.231,20.422,43.442,11.64c15.21-8.781,20.422-28.23,11.64-43.441 C157.907,128.153,138.457,122.941,123.247,131.723" clip-path="url(#SVGID_68_)"/></g></g><g clip-path="url(#SVGID_4_)" opacity=".65"><g><defs><rect id="SVGID_69_" width="57.16" height="51.303" x="109.273" y="306.742"/></defs><clipPath id="SVGID_70_"><use overflow="visible" xlink:href="#SVGID_69_"/></clipPath><path fill="#544771" d="M130.427,319.532c-7.103,4.102-9.536,13.184-5.436,20.286 c4.101,7.104,13.184,9.536,20.286,5.437c7.103-4.102,9.537-13.185,5.436-20.286C146.612,317.865,137.53,315.432,130.427,319.532" clip-path="url(#SVGID_70_)"/></g></g><g clip-path="url(#SVGID_4_)" opacity=".65"><g><defs><rect id="SVGID_71_" width="57.16" height="51.304" x="1.606" y="136.672"/></defs><clipPath id="SVGID_72_"><use overflow="visible" xlink:href="#SVGID_71_"/></clipPath><path fill="#BF1717" d="M22.761,149.463c-7.103,4.102-9.536,13.184-5.436,20.286 c4.101,7.104,13.184,9.536,20.286,5.437c7.103-4.102,9.537-13.185,5.436-20.286C38.946,147.797,29.864,145.362,22.761,149.463" clip-path="url(#SVGID_72_)"/></g></g><g clip-path="url(#SVGID_4_)" opacity=".65"><g><defs><rect id="SVGID_73_" width="57.159" height="51.305" x="213.694" y="239.347"/></defs><clipPath id="SVGID_74_"><use overflow="visible" xlink:href="#SVGID_73_"/></clipPath><path fill="#1A5318" d="M234.849,252.138c-7.104,4.102-9.537,13.183-5.437,20.286 c4.101,7.103,13.185,9.536,20.286,5.436c7.103-4.101,9.537-13.184,5.436-20.285 C251.034,250.471,241.952,248.037,234.849,252.138" clip-path="url(#SVGID_74_)"/></g></g></g><g clip-path="url(#SVGID_2_)"><defs><rect id="SVGID_75_" width="451.118" height="509.193" x="-1.342" y="-1.275"/></defs><clipPath id="SVGID_76_"><use overflow="visible" xlink:href="#SVGID_75_"/></clipPath><g clip-path="url(#SVGID_76_)" opacity=".65"><g><defs><rect id="SVGID_77_" width="57.16" height="51.304" x="271.043" y="78.988"/></defs><clipPath id="SVGID_78_"><use overflow="visible" xlink:href="#SVGID_77_"/></clipPath><path fill="#BF1717" d="M292.199,91.779c-7.104,4.101-9.536,13.183-5.437,20.286 c4.101,7.103,13.185,9.536,20.287,5.436c7.104-4.101,9.537-13.184,5.436-20.286S299.301,87.678,292.199,91.779" clip-path="url(#SVGID_78_)"/></g></g></g></g></svg>