<?xml version="1.0" encoding="utf-8"?>
<!-- Generator: Adobe Illustrator 15.1.0, SVG Export Plug-In . SVG Version: 6.00 Build 0)  -->
<!DOCTYPE svg PUBLIC "-//W3C//DTD SVG 1.1//EN" "http://www.w3.org/Graphics/SVG/1.1/DTD/svg11.dtd">
<svg version="1.1" id="Ebene_1" xmlns="http://www.w3.org/2000/svg" xmlns:xlink="http://www.w3.org/1999/xlink" x="0px" y="0px"
	 width="398.333px" height="462px" viewBox="0 0 398.333 462" enable-background="new 0 0 398.333 462" xml:space="preserve">
<g>
	<defs>
		<rect id="SVGID_1_" x="2.28" y="0.83" width="451.117" height="461.17"/>
	</defs>
	<clipPath id="SVGID_2_">
		<use xlink:href="#SVGID_1_"  overflow="visible"/>
	</clipPath>
	<g clip-path="url(#SVGID_2_)">
		<defs>
			<rect id="SVGID_3_" x="2.28" y="0.83" width="451.117" height="461.17"/>
		</defs>
		<clipPath id="SVGID_4_">
			<use xlink:href="#SVGID_3_"  overflow="visible"/>
		</clipPath>
		<g opacity="0.65" clip-path="url(#SVGID_4_)">
			<g>
				<defs>
					<rect id="SVGID_5_" x="16.686" y="91.967" width="78.526" height="62.526"/>
				</defs>
				<clipPath id="SVGID_6_">
					<use xlink:href="#SVGID_5_"  overflow="visible"/>
				</clipPath>
				<path clip-path="url(#SVGID_6_)" fill="#BF1717" d="M55.949,153.493c16.714,0,30.263-13.55,30.263-30.264
					c0-16.713-13.549-30.263-30.263-30.263c-16.714,0-30.263,13.55-30.263,30.263C25.686,139.943,39.235,153.493,55.949,153.493"/>
			</g>
		</g>
		<g opacity="0.65" clip-path="url(#SVGID_4_)">
			<g>
				<defs>
					<rect id="SVGID_7_" x="240.837" y="273.544" width="78.004" height="62.005"/>
				</defs>
				<clipPath id="SVGID_8_">
					<use xlink:href="#SVGID_7_"  overflow="visible"/>
				</clipPath>
				<path clip-path="url(#SVGID_8_)" fill="#E6007E" d="M279.839,334.549c16.57,0,30.003-13.433,30.003-30.002
					s-13.433-30.003-30.003-30.003s-30.003,13.434-30.003,30.003S263.269,334.549,279.839,334.549"/>
			</g>
		</g>
		<g opacity="0.65" clip-path="url(#SVGID_4_)">
			<g>
				<defs>
					<rect id="SVGID_9_" x="272.638" y="156.596" width="108.78" height="92.781"/>
				</defs>
				<clipPath id="SVGID_10_">
					<use xlink:href="#SVGID_9_"  overflow="visible"/>
				</clipPath>
			</g>
		</g>
		<g opacity="0.65" clip-path="url(#SVGID_4_)">
			<g>
				<defs>
					<rect id="SVGID_11_" x="229.552" y="11.95" width="74.841" height="58.841"/>
				</defs>
				<clipPath id="SVGID_12_">
					<use xlink:href="#SVGID_11_"  overflow="visible"/>
				</clipPath>
				<path clip-path="url(#SVGID_12_)" fill="#009EBC" d="M266.972,69.791c15.696,0,28.42-12.725,28.42-28.42
					c0-15.696-12.724-28.421-28.42-28.421c-15.695,0-28.42,12.725-28.42,28.421C238.552,57.066,251.276,69.791,266.972,69.791"/>
			</g>
		</g>
		<g opacity="0.65" clip-path="url(#SVGID_4_)">
			<g>
				<defs>
					<rect id="SVGID_13_" x="317.775" y="109.407" width="59.035" height="43.034"/>
				</defs>
				<clipPath id="SVGID_14_">
					<use xlink:href="#SVGID_13_"  overflow="visible"/>
				</clipPath>
				<path clip-path="url(#SVGID_14_)" fill="#009EBC" d="M347.293,151.441c11.331,0,20.517-9.187,20.517-20.518
					c0-11.332-9.186-20.517-20.517-20.517s-20.518,9.185-20.518,20.517C326.775,142.255,335.962,151.441,347.293,151.441"/>
			</g>
		</g>
		<g opacity="0.65" clip-path="url(#SVGID_4_)">
			<g>
				<defs>
					<rect id="SVGID_15_" x="123.888" y="107.868" width="84.515" height="68.515"/>
				</defs>
				<clipPath id="SVGID_16_">
					<use xlink:href="#SVGID_15_"  overflow="visible"/>
				</clipPath>
				<path clip-path="url(#SVGID_16_)" fill="#BF1717" d="M166.146,175.383c18.368,0,33.257-14.89,33.257-33.257
					c0-18.368-14.889-33.258-33.257-33.258c-18.368,0-33.257,14.89-33.257,33.258C132.889,160.493,147.778,175.383,166.146,175.383"
					/>
			</g>
		</g>
		<g opacity="0.65" clip-path="url(#SVGID_4_)">
			<g>
				<defs>
					<rect id="SVGID_17_" x="57.208" y="264.311" width="73.397" height="57.397"/>
				</defs>
				<clipPath id="SVGID_18_">
					<use xlink:href="#SVGID_17_"  overflow="visible"/>
				</clipPath>
				<path clip-path="url(#SVGID_18_)" fill="#544771" d="M93.906,320.708c15.297,0,27.698-12.401,27.698-27.698
					s-12.401-27.698-27.698-27.698s-27.698,12.401-27.698,27.698S78.609,320.708,93.906,320.708"/>
			</g>
		</g>
		<g opacity="0.65" clip-path="url(#SVGID_4_)">
			<g>
				<defs>
					<rect id="SVGID_19_" x="74.647" y="144.286" width="54.501" height="38.501"/>
				</defs>
				<clipPath id="SVGID_20_">
					<use xlink:href="#SVGID_19_"  overflow="visible"/>
				</clipPath>
				<path clip-path="url(#SVGID_20_)" fill="#009EBC" d="M101.897,181.787c10.079,0,18.25-8.172,18.25-18.25
					c0-10.08-8.171-18.251-18.25-18.251s-18.25,8.171-18.25,18.251C83.647,173.615,91.818,181.787,101.897,181.787"/>
			</g>
		</g>
		<g opacity="0.65" clip-path="url(#SVGID_4_)">
			<g>
				<defs>
					<rect id="SVGID_21_" x="297.259" y="55.036" width="47.7" height="31.701"/>
				</defs>
				<clipPath id="SVGID_22_">
					<use xlink:href="#SVGID_21_"  overflow="visible"/>
				</clipPath>
				<path clip-path="url(#SVGID_22_)" fill="#544771" d="M321.108,85.737c8.202,0,14.851-6.649,14.851-14.851
					c0-8.202-6.648-14.851-14.851-14.851c-8.201,0-14.85,6.648-14.85,14.851C306.259,79.088,312.907,85.737,321.108,85.737"/>
			</g>
		</g>
		<g opacity="0.65" clip-path="url(#SVGID_4_)">
			<g>
				<defs>
					<rect id="SVGID_23_" x="305.465" y="256.154" width="47.701" height="31.699"/>
				</defs>
				<clipPath id="SVGID_24_">
					<use xlink:href="#SVGID_23_"  overflow="visible"/>
				</clipPath>
				<path clip-path="url(#SVGID_24_)" fill="#BF1717" d="M329.315,286.854c8.202,0,14.851-6.649,14.851-14.851
					c0-8.202-6.648-14.851-14.851-14.851s-14.85,6.648-14.85,14.851C314.466,280.205,321.113,286.854,329.315,286.854"/>
			</g>
		</g>
		<g opacity="0.65" clip-path="url(#SVGID_4_)">
			<g>
				<defs>
					<rect id="SVGID_25_" x="173.129" y="61.191" width="47.701" height="31.7"/>
				</defs>
				<clipPath id="SVGID_26_">
					<use xlink:href="#SVGID_25_"  overflow="visible"/>
				</clipPath>
				<path clip-path="url(#SVGID_26_)" fill="#1A5318" d="M196.98,91.893c8.202,0,14.85-6.649,14.85-14.851
					c0-8.202-6.648-14.851-14.85-14.851s-14.85,6.648-14.85,14.851C182.13,85.243,188.778,91.893,196.98,91.893"/>
			</g>
		</g>
		<g opacity="0.65" clip-path="url(#SVGID_4_)">
			<g>
				<defs>
					<rect id="SVGID_27_" x="155.999" y="288.803" width="94.235" height="88.378"/>
				</defs>
				<clipPath id="SVGID_28_">
					<use xlink:href="#SVGID_27_"  overflow="visible"/>
				</clipPath>
				<path clip-path="url(#SVGID_28_)" fill="#C8A600" d="M188.907,308.379c-13.593,7.849-18.251,25.23-10.403,38.823
					c7.848,13.593,25.23,18.251,38.823,10.403c13.594-7.85,18.25-25.23,10.403-38.823
					C219.882,305.188,202.5,300.531,188.907,308.379"/>
			</g>
		</g>
		<g opacity="0.65" clip-path="url(#SVGID_4_)">
			<g>
				<defs>
					<rect id="SVGID_29_" x="52.459" y="262.204" width="72.642" height="66.786"/>
				</defs>
				<clipPath id="SVGID_30_">
					<use xlink:href="#SVGID_29_"  overflow="visible"/>
				</clipPath>
				<path clip-path="url(#SVGID_30_)" fill="#009EBC" d="M78.522,277.828c-9.813,5.666-13.175,18.215-7.51,28.027
					c5.666,9.813,18.214,13.175,28.027,7.51c9.813-5.666,13.176-18.214,7.51-28.026C100.883,275.525,88.335,272.162,78.522,277.828"
					/>
			</g>
		</g>
		<g opacity="0.65" clip-path="url(#SVGID_4_)">
			<g>
				<defs>
					<rect id="SVGID_31_" x="251.769" y="114.36" width="66.449" height="60.593"/>
				</defs>
				<clipPath id="SVGID_32_">
					<use xlink:href="#SVGID_31_"  overflow="visible"/>
				</clipPath>
				<path clip-path="url(#SVGID_32_)" fill="#009EBC" d="M275.868,128.851c-8.729,5.04-11.721,16.201-6.681,24.931
					c5.04,8.729,16.201,11.72,24.931,6.681c8.729-5.04,11.72-16.202,6.681-24.931C295.759,126.802,284.597,123.811,275.868,128.851"
					/>
			</g>
		</g>
		<g opacity="0.65" clip-path="url(#SVGID_4_)">
			<g>
				<defs>
					<rect id="SVGID_33_" x="241.742" y="291.909" width="66.45" height="60.593"/>
				</defs>
				<clipPath id="SVGID_34_">
					<use xlink:href="#SVGID_33_"  overflow="visible"/>
				</clipPath>
				<path clip-path="url(#SVGID_34_)" fill="#BF1717" d="M265.843,306.4c-8.729,5.039-11.721,16.2-6.681,24.93
					c5.04,8.729,16.201,11.72,24.931,6.681c8.729-5.04,11.72-16.202,6.681-24.931C285.733,304.351,274.571,301.36,265.843,306.4"/>
			</g>
		</g>
		<g opacity="0.65" clip-path="url(#SVGID_4_)">
			<g>
				<defs>
					<rect id="SVGID_35_" x="112.896" y="308.847" width="57.16" height="51.305"/>
				</defs>
				<clipPath id="SVGID_36_">
					<use xlink:href="#SVGID_35_"  overflow="visible"/>
				</clipPath>
				<path clip-path="url(#SVGID_36_)" fill="#544771" d="M134.05,321.638c-7.103,4.102-9.536,13.184-5.436,20.286
					c4.101,7.104,13.184,9.536,20.286,5.437c7.103-4.102,9.537-13.185,5.436-20.286C150.235,319.971,141.153,317.537,134.05,321.638
					"/>
			</g>
		</g>
		<g opacity="0.65" clip-path="url(#SVGID_4_)">
			<g>
				<defs>
					<rect id="SVGID_37_" x="5.229" y="138.777" width="57.16" height="51.304"/>
				</defs>
				<clipPath id="SVGID_38_">
					<use xlink:href="#SVGID_37_"  overflow="visible"/>
				</clipPath>
				<path clip-path="url(#SVGID_38_)" fill="#BF1717" d="M26.384,151.568c-7.103,4.102-9.536,13.184-5.436,20.286
					c4.101,7.104,13.184,9.536,20.286,5.437c7.103-4.102,9.537-13.185,5.436-20.286C42.569,149.901,33.487,147.468,26.384,151.568"
					/>
			</g>
		</g>
		<g opacity="0.65" clip-path="url(#SVGID_4_)">
			<g>
				<defs>
					<rect id="SVGID_39_" x="217.316" y="241.452" width="57.159" height="51.304"/>
				</defs>
				<clipPath id="SVGID_40_">
					<use xlink:href="#SVGID_39_"  overflow="visible"/>
				</clipPath>
				<path clip-path="url(#SVGID_40_)" fill="#1A5318" d="M238.472,254.243c-7.104,4.101-9.537,13.183-5.437,20.286
					c4.101,7.103,13.185,9.536,20.286,5.436c7.103-4.101,9.537-13.184,5.436-20.286
					C254.656,252.576,245.574,250.142,238.472,254.243"/>
			</g>
		</g>
	</g>
	<g clip-path="url(#SVGID_2_)">
		<defs>
			<rect id="SVGID_41_" x="2.28" y="0.83" width="451.117" height="461.17"/>
		</defs>
		<clipPath id="SVGID_42_">
			<use xlink:href="#SVGID_41_"  overflow="visible"/>
		</clipPath>
		<g opacity="0.65" clip-path="url(#SVGID_42_)">
			<g>
				<defs>
					<rect id="SVGID_43_" x="274.666" y="81.093" width="57.16" height="51.305"/>
				</defs>
				<clipPath id="SVGID_44_">
					<use xlink:href="#SVGID_43_"  overflow="visible"/>
				</clipPath>
				<path clip-path="url(#SVGID_44_)" fill="#BF1717" d="M295.821,93.885c-7.104,4.101-9.536,13.183-5.437,20.285
					c4.101,7.104,13.185,9.536,20.286,5.437c7.104-4.102,9.537-13.185,5.437-20.286C312.006,92.218,302.924,89.783,295.821,93.885"
					/>
			</g>
		</g>
	</g>
</g>
</svg>
