<svg xmlns="http://www.w3.org/2000/svg" xmlns:xlink="http://www.w3.org/1999/xlink" id="Ebene_1" width="390.41" height="470.889" x="0" y="0" enable-background="new 0 0 390.41 470.889" version="1.1" viewBox="0 0 390.41 470.889" xml:space="preserve"><g><defs><rect id="SVGID_1_" width="451.118" height="509.193" x="-1.342" y="-1.275"/></defs><clipPath id="SVGID_2_"><use overflow="visible" xlink:href="#SVGID_1_"/></clipPath><polygon fill="#C8A600" points="178.648 505.548 178.648 507.918 178.648 505.548 178.648 503.179" clip-path="url(#SVGID_2_)"/><g clip-path="url(#SVGID_2_)"><defs><rect id="SVGID_3_" width="451.118" height="509.193" x="-1.342" y="-1.275"/></defs><clipPath id="SVGID_4_"><use overflow="visible" xlink:href="#SVGID_3_"/></clipPath><g clip-path="url(#SVGID_4_)" opacity=".65"><g><defs><rect id="SVGID_5_" width="88.912" height="77.94" x="88.921" y="180.116"/></defs><clipPath id="SVGID_6_"><use overflow="visible" xlink:href="#SVGID_5_"/></clipPath><path fill="#AC0053" d="M125.459,246.698c15.249,4.373,31.156-4.445,35.529-19.694 c4.372-15.249-4.445-31.156-19.694-35.529c-15.25-4.372-31.156,4.445-35.529,19.694 C101.392,226.419,110.21,242.325,125.459,246.698" clip-path="url(#SVGID_6_)"/></g></g><g clip-path="url(#SVGID_4_)" opacity=".65"><g><defs><rect id="SVGID_7_" width="59.035" height="43.034" x="314.152" y="107.302"/></defs><clipPath id="SVGID_8_"><use overflow="visible" xlink:href="#SVGID_7_"/></clipPath><path fill="#009EBC" d="M343.67,149.336c11.332,0,20.518-9.187,20.518-20.518 c0-11.332-9.186-20.517-20.518-20.517c-11.33,0-20.518,9.185-20.518,20.517C323.152,140.149,332.34,149.336,343.67,149.336" clip-path="url(#SVGID_8_)"/></g></g><g clip-path="url(#SVGID_4_)" opacity=".65"><g><defs><rect id="SVGID_9_" width="84.515" height="68.516" x="120.266" y="105.763"/></defs><clipPath id="SVGID_10_"><use overflow="visible" xlink:href="#SVGID_9_"/></clipPath><path fill="#BF1717" d="M162.523,173.277c18.368,0,33.257-14.89,33.257-33.257 c0-18.368-14.889-33.258-33.257-33.258c-18.368,0-33.257,14.89-33.257,33.258C129.266,158.388,144.155,173.277,162.523,173.277" clip-path="url(#SVGID_10_)"/></g></g><g clip-path="url(#SVGID_4_)" opacity=".65"><g><defs><rect id="SVGID_11_" width="47.7" height="31.701" x="293.636" y="52.931"/></defs><clipPath id="SVGID_12_"><use overflow="visible" xlink:href="#SVGID_11_"/></clipPath><path fill="#544771" d="M317.486,83.632c8.201,0,14.85-6.649,14.85-14.85 c0-8.202-6.648-14.851-14.85-14.851s-14.85,6.649-14.85,14.851C302.637,76.983,309.285,83.632,317.486,83.632" clip-path="url(#SVGID_12_)"/></g></g><g clip-path="url(#SVGID_4_)" opacity=".65"><g><defs><rect id="SVGID_13_" width="47.701" height="31.701" x="169.507" y="59.086"/></defs><clipPath id="SVGID_14_"><use overflow="visible" xlink:href="#SVGID_13_"/></clipPath><path fill="#1A5318" d="M193.357,89.787c8.202,0,14.85-6.649,14.85-14.85 c0-8.202-6.648-14.851-14.85-14.851s-14.85,6.649-14.85,14.851C178.507,83.138,185.155,89.787,193.357,89.787" clip-path="url(#SVGID_14_)"/></g></g><g clip-path="url(#SVGID_4_)" opacity=".65"><g><defs><rect id="SVGID_15_" width="99.268" height="93.412" x="291.681" y="107.777"/></defs><clipPath id="SVGID_16_"><use overflow="visible" xlink:href="#SVGID_15_"/></clipPath></g></g><g clip-path="url(#SVGID_4_)" opacity=".65"><g><defs><rect id="SVGID_17_" width="87.588" height="75.935" x="178.349" y="72.203"/></defs><clipPath id="SVGID_18_"><use overflow="visible" xlink:href="#SVGID_17_"/></clipPath><path fill="#AC0053" d="M215.194,82.3c-15.393,3.838-24.76,19.427-20.922,34.819 s19.427,24.76,34.82,20.922c15.394-3.838,24.761-19.428,20.922-34.819C246.176,87.829,230.587,78.461,215.194,82.3" clip-path="url(#SVGID_18_)"/></g></g><g clip-path="url(#SVGID_4_)" opacity=".65"><g><defs><rect id="SVGID_19_" width="57.16" height="51.304" x="1.606" y="136.672"/></defs><clipPath id="SVGID_20_"><use overflow="visible" xlink:href="#SVGID_19_"/></clipPath><path fill="#BF1717" d="M22.761,149.463c-7.103,4.102-9.536,13.184-5.436,20.286 c4.101,7.104,13.184,9.536,20.286,5.437c7.103-4.102,9.537-13.185,5.436-20.286C38.946,147.797,29.864,145.362,22.761,149.463" clip-path="url(#SVGID_20_)"/></g></g><g clip-path="url(#SVGID_4_)" opacity=".65"><g><defs><rect id="SVGID_21_" width="57.159" height="51.305" x="213.694" y="239.347"/></defs><clipPath id="SVGID_22_"><use overflow="visible" xlink:href="#SVGID_21_"/></clipPath><path fill="#1A5318" d="M234.849,252.138c-7.104,4.102-9.537,13.183-5.437,20.286 c4.101,7.103,13.185,9.536,20.286,5.436c7.103-4.101,9.537-13.184,5.436-20.285 C251.034,250.471,241.952,248.037,234.849,252.138" clip-path="url(#SVGID_22_)"/></g></g></g><g clip-path="url(#SVGID_2_)"><defs><rect id="SVGID_23_" width="451.118" height="509.193" x="-1.342" y="-1.275"/></defs><clipPath id="SVGID_24_"><use overflow="visible" xlink:href="#SVGID_23_"/></clipPath><g clip-path="url(#SVGID_24_)" opacity=".65"><g><defs><rect id="SVGID_25_" width="57.16" height="51.304" x="271.043" y="78.988"/></defs><clipPath id="SVGID_26_"><use overflow="visible" xlink:href="#SVGID_25_"/></clipPath><path fill="#BF1717" d="M292.199,91.779c-7.104,4.101-9.536,13.183-5.437,20.286 c4.101,7.103,13.185,9.536,20.287,5.436c7.104-4.101,9.537-13.184,5.436-20.286S299.301,87.678,292.199,91.779" clip-path="url(#SVGID_26_)"/></g></g></g></g></svg>