<?xml version="1.0" encoding="utf-8"?>
<!-- Generator: Adobe Illustrator 15.1.0, SVG Export Plug-In . SVG Version: 6.00 Build 0)  -->
<!DOCTYPE svg PUBLIC "-//W3C//DTD SVG 1.1//EN" "http://www.w3.org/Graphics/SVG/1.1/DTD/svg11.dtd">
<svg version="1.1" id="Ebene_1" xmlns="http://www.w3.org/2000/svg" xmlns:xlink="http://www.w3.org/1999/xlink" x="0px" y="0px"
	 width="390.41px" height="470.889px" viewBox="0 0 390.41 470.889" enable-background="new 0 0 390.41 470.889"
	 xml:space="preserve">
<g>
	<defs>
		<rect id="SVGID_1_" x="-1.342" y="-1.275" width="451.118" height="509.193"/>
	</defs>
	<clipPath id="SVGID_2_">
		<use xlink:href="#SVGID_1_"  overflow="visible"/>
	</clipPath>
	<polygon clip-path="url(#SVGID_2_)" fill="#C8A600" points="178.648,505.548 178.648,507.918 178.648,505.548 178.648,503.179 	"/>
	<g clip-path="url(#SVGID_2_)">
		<defs>
			<rect id="SVGID_3_" x="-1.342" y="-1.275" width="451.118" height="509.193"/>
		</defs>
		<clipPath id="SVGID_4_">
			<use xlink:href="#SVGID_3_"  overflow="visible"/>
		</clipPath>
		<g opacity="0.65" clip-path="url(#SVGID_4_)">
			<g>
				<defs>
					<rect id="SVGID_5_" x="13.063" y="89.862" width="78.526" height="62.524"/>
				</defs>
				<clipPath id="SVGID_6_">
					<use xlink:href="#SVGID_5_"  overflow="visible"/>
				</clipPath>
				<path clip-path="url(#SVGID_6_)" fill="#BF1717" d="M52.327,151.388c16.714,0,30.263-13.549,30.263-30.264
					c0-16.713-13.549-30.263-30.263-30.263c-16.714,0-30.263,13.55-30.263,30.263C22.063,137.839,35.612,151.388,52.327,151.388"/>
			</g>
		</g>
		<g opacity="0.65" clip-path="url(#SVGID_4_)">
			<g>
				<defs>
					<rect id="SVGID_7_" x="88.921" y="180.116" width="88.912" height="77.94"/>
				</defs>
				<clipPath id="SVGID_8_">
					<use xlink:href="#SVGID_7_"  overflow="visible"/>
				</clipPath>
				<path clip-path="url(#SVGID_8_)" fill="#AC0053" d="M125.459,246.698c15.249,4.373,31.156-4.445,35.529-19.694
					c4.372-15.249-4.445-31.156-19.694-35.529c-15.25-4.372-31.156,4.445-35.529,19.694
					C101.392,226.419,110.21,242.325,125.459,246.698"/>
			</g>
		</g>
		<g opacity="0.65" clip-path="url(#SVGID_4_)">
			<g>
				<defs>
					<rect id="SVGID_9_" x="237.214" y="271.439" width="78.004" height="62.005"/>
				</defs>
				<clipPath id="SVGID_10_">
					<use xlink:href="#SVGID_9_"  overflow="visible"/>
				</clipPath>
				<path clip-path="url(#SVGID_10_)" fill="#E6007E" d="M276.216,332.444c16.57,0,30.002-13.434,30.002-30.003
					s-13.432-30.003-30.002-30.003s-30.003,13.434-30.003,30.003S259.646,332.444,276.216,332.444"/>
			</g>
		</g>
		<g opacity="0.65" clip-path="url(#SVGID_4_)">
			<g>
				<defs>
					<rect id="SVGID_11_" x="72.571" y="12.923" width="108.78" height="92.78"/>
				</defs>
				<clipPath id="SVGID_12_">
					<use xlink:href="#SVGID_11_"  overflow="visible"/>
				</clipPath>
				<path clip-path="url(#SVGID_12_)" fill="#BF1717" d="M126.961,104.703c25.068,0,45.39-20.322,45.39-45.39
					c0-25.069-20.322-45.391-45.39-45.391s-45.39,20.322-45.39,45.391C81.571,84.381,101.894,104.703,126.961,104.703"/>
			</g>
		</g>
		<g opacity="0.65" clip-path="url(#SVGID_4_)">
			<g>
				<defs>
					<rect id="SVGID_13_" x="225.929" y="9.845" width="74.84" height="58.841"/>
				</defs>
				<clipPath id="SVGID_14_">
					<use xlink:href="#SVGID_13_"  overflow="visible"/>
				</clipPath>
				<path clip-path="url(#SVGID_14_)" fill="#009EBC" d="M263.349,67.686c15.696,0,28.42-12.724,28.42-28.42
					c0-15.696-12.724-28.421-28.42-28.421c-15.695,0-28.42,12.725-28.42,28.421C234.929,54.962,247.654,67.686,263.349,67.686"/>
			</g>
		</g>
		<g opacity="0.65" clip-path="url(#SVGID_4_)">
			<g>
				<defs>
					<rect id="SVGID_15_" x="314.152" y="107.302" width="59.035" height="43.034"/>
				</defs>
				<clipPath id="SVGID_16_">
					<use xlink:href="#SVGID_15_"  overflow="visible"/>
				</clipPath>
				<path clip-path="url(#SVGID_16_)" fill="#009EBC" d="M343.67,149.336c11.332,0,20.518-9.187,20.518-20.518
					c0-11.332-9.186-20.517-20.518-20.517c-11.33,0-20.518,9.185-20.518,20.517C323.152,140.149,332.34,149.336,343.67,149.336"/>
			</g>
		</g>
		<g opacity="0.65" clip-path="url(#SVGID_4_)">
			<g>
				<defs>
					<rect id="SVGID_17_" x="120.266" y="105.763" width="84.515" height="68.516"/>
				</defs>
				<clipPath id="SVGID_18_">
					<use xlink:href="#SVGID_17_"  overflow="visible"/>
				</clipPath>
				<path clip-path="url(#SVGID_18_)" fill="#BF1717" d="M162.523,173.277c18.368,0,33.257-14.89,33.257-33.257
					c0-18.368-14.889-33.258-33.257-33.258c-18.368,0-33.257,14.89-33.257,33.258C129.266,158.388,144.155,173.277,162.523,173.277"
					/>
			</g>
		</g>
		<g opacity="0.65" clip-path="url(#SVGID_4_)">
			<g>
				<defs>
					<rect id="SVGID_19_" x="53.585" y="262.206" width="73.397" height="57.396"/>
				</defs>
				<clipPath id="SVGID_20_">
					<use xlink:href="#SVGID_19_"  overflow="visible"/>
				</clipPath>
				<path clip-path="url(#SVGID_20_)" fill="#544771" d="M90.283,318.603c15.297,0,27.698-12.401,27.698-27.698
					s-12.401-27.698-27.698-27.698s-27.698,12.401-27.698,27.698S74.986,318.603,90.283,318.603"/>
			</g>
		</g>
		<g opacity="0.65" clip-path="url(#SVGID_4_)">
			<g>
				<defs>
					<rect id="SVGID_21_" x="5.63" y="181.14" width="93.393" height="77.96"/>
				</defs>
				<clipPath id="SVGID_22_">
					<use xlink:href="#SVGID_21_"  overflow="visible"/>
				</clipPath>
				<path clip-path="url(#SVGID_22_)" fill="#009EBC" d="M51.056,256.516c20.101,0.702,36.965-15.023,37.667-35.125
					c0.702-20.101-15.024-36.965-35.125-37.667c-20.101-0.701-36.965,15.024-37.667,35.125
					C15.229,238.95,30.955,255.813,51.056,256.516"/>
			</g>
		</g>
		<g opacity="0.65" clip-path="url(#SVGID_4_)">
			<g>
				<defs>
					<rect id="SVGID_23_" x="188.999" y="185.267" width="81.603" height="65.604"/>
				</defs>
				<clipPath id="SVGID_24_">
					<use xlink:href="#SVGID_23_"  overflow="visible"/>
				</clipPath>
				<path clip-path="url(#SVGID_24_)" fill="#C8A600" d="M229.8,249.87c17.563,0,31.802-14.238,31.802-31.802
					s-14.238-31.802-31.802-31.802c-17.564,0-31.802,14.238-31.802,31.802S212.236,249.87,229.8,249.87"/>
			</g>
		</g>
		<g opacity="0.65" clip-path="url(#SVGID_4_)">
			<g>
				<defs>
					<rect id="SVGID_25_" x="293.636" y="52.931" width="47.7" height="31.701"/>
				</defs>
				<clipPath id="SVGID_26_">
					<use xlink:href="#SVGID_25_"  overflow="visible"/>
				</clipPath>
				<path clip-path="url(#SVGID_26_)" fill="#544771" d="M317.486,83.632c8.201,0,14.85-6.649,14.85-14.85
					c0-8.202-6.648-14.851-14.85-14.851s-14.85,6.649-14.85,14.851C302.637,76.983,309.285,83.632,317.486,83.632"/>
			</g>
		</g>
		<g opacity="0.65" clip-path="url(#SVGID_4_)">
			<g>
				<defs>
					<rect id="SVGID_27_" x="301.842" y="254.048" width="47.701" height="31.701"/>
				</defs>
				<clipPath id="SVGID_28_">
					<use xlink:href="#SVGID_27_"  overflow="visible"/>
				</clipPath>
				<path clip-path="url(#SVGID_28_)" fill="#BF1717" d="M325.693,284.749c8.201,0,14.85-6.649,14.85-14.85
					c0-8.202-6.648-14.852-14.85-14.852c-8.203,0-14.85,6.649-14.85,14.852C310.844,278.1,317.49,284.749,325.693,284.749"/>
			</g>
		</g>
		<g opacity="0.65" clip-path="url(#SVGID_4_)">
			<g>
				<defs>
					<rect id="SVGID_29_" x="169.507" y="59.086" width="47.701" height="31.701"/>
				</defs>
				<clipPath id="SVGID_30_">
					<use xlink:href="#SVGID_29_"  overflow="visible"/>
				</clipPath>
				<path clip-path="url(#SVGID_30_)" fill="#1A5318" d="M193.357,89.787c8.202,0,14.85-6.649,14.85-14.85
					c0-8.202-6.648-14.851-14.85-14.851s-14.85,6.649-14.85,14.851C178.507,83.138,185.155,89.787,193.357,89.787"/>
			</g>
		</g>
		<g opacity="0.65" clip-path="url(#SVGID_4_)">
			<g>
				<defs>
					<rect id="SVGID_31_" x="291.681" y="107.777" width="99.268" height="93.412"/>
				</defs>
				<clipPath id="SVGID_32_">
					<use xlink:href="#SVGID_31_"  overflow="visible"/>
				</clipPath>
				<path clip-path="url(#SVGID_32_)" fill="#BF1717" d="M326.186,128.274c-14.477,8.357-19.436,26.865-11.078,41.34
					s26.865,19.435,41.34,11.077c14.475-8.356,19.434-26.865,11.078-41.34C359.168,124.877,340.658,119.918,326.186,128.274"/>
			</g>
		</g>
		<g opacity="0.65" clip-path="url(#SVGID_4_)">
			<g>
				<defs>
					<rect id="SVGID_33_" x="178.349" y="72.203" width="87.588" height="75.935"/>
				</defs>
				<clipPath id="SVGID_34_">
					<use xlink:href="#SVGID_33_"  overflow="visible"/>
				</clipPath>
				<path clip-path="url(#SVGID_34_)" fill="#AC0053" d="M215.194,82.3c-15.393,3.838-24.76,19.427-20.922,34.819
					s19.427,24.76,34.82,20.922c15.394-3.838,24.761-19.428,20.922-34.819C246.176,87.829,230.587,78.461,215.194,82.3"/>
			</g>
		</g>
		<g opacity="0.65" clip-path="url(#SVGID_4_)">
			<g>
				<defs>
					<rect id="SVGID_35_" x="237.288" y="177.961" width="140.597" height="134.741"/>
				</defs>
				<clipPath id="SVGID_36_">
					<use xlink:href="#SVGID_35_"  overflow="visible"/>
				</clipPath>
				<path clip-path="url(#SVGID_36_)" fill="#C8A600" d="M284.89,206.021c-21.709,12.534-29.147,40.294-16.613,62.005
					c12.534,21.71,40.293,29.148,62.004,16.613c21.709-12.534,29.148-40.294,16.613-62.004
					C334.361,200.926,306.602,193.488,284.89,206.021"/>
			</g>
		</g>
		<g opacity="0.65" clip-path="url(#SVGID_4_)">
			<g>
				<defs>
					<rect id="SVGID_37_" x="182.711" y="142.421" width="107.449" height="101.593"/>
				</defs>
				<clipPath id="SVGID_38_">
					<use xlink:href="#SVGID_37_"  overflow="visible"/>
				</clipPath>
				<path clip-path="url(#SVGID_38_)" fill="#BF1717" d="M219.806,164.416c-15.907,9.184-21.357,29.523-12.173,45.431
					c9.184,15.906,29.524,21.356,45.431,12.173s21.356-29.523,12.174-45.431C256.053,160.682,235.713,155.231,219.806,164.416"/>
			</g>
		</g>
		<g opacity="0.65" clip-path="url(#SVGID_4_)">
			<g>
				<defs>
					<rect id="SVGID_39_" x="177.424" y="-16.774" width="92.261" height="86.404"/>
				</defs>
				<clipPath id="SVGID_40_">
					<use xlink:href="#SVGID_39_"  overflow="visible"/>
				</clipPath>
				<path clip-path="url(#SVGID_40_)" fill="#544771" d="M209.706,2.44c-13.248,7.649-17.787,24.589-10.138,37.836
					c7.648,13.248,24.588,17.787,37.836,10.139c13.248-7.649,17.787-24.589,10.138-37.837C239.894-0.668,222.954-5.208,209.706,2.44
					"/>
			</g>
		</g>
		<g opacity="0.65" clip-path="url(#SVGID_4_)">
			<g>
				<defs>
					<rect id="SVGID_41_" x="238.12" y="289.803" width="66.451" height="60.594"/>
				</defs>
				<clipPath id="SVGID_42_">
					<use xlink:href="#SVGID_41_"  overflow="visible"/>
				</clipPath>
				<path clip-path="url(#SVGID_42_)" fill="#BF1717" d="M262.22,304.295c-8.729,5.04-11.721,16.201-6.681,24.93
					c5.04,8.729,16.201,11.72,24.931,6.681c8.729-5.04,11.72-16.201,6.681-24.931C282.111,302.246,270.949,299.255,262.22,304.295"
					/>
			</g>
		</g>
		<g opacity="0.65" clip-path="url(#SVGID_4_)">
			<g>
				<defs>
					<rect id="SVGID_43_" x="87.412" y="110.456" width="103.472" height="97.616"/>
				</defs>
				<clipPath id="SVGID_44_">
					<use xlink:href="#SVGID_43_"  overflow="visible"/>
				</clipPath>
				<path clip-path="url(#SVGID_44_)" fill="#C8A600" d="M123.247,131.723c-15.21,8.782-20.422,28.231-11.64,43.442
					c8.782,15.21,28.231,20.422,43.442,11.64c15.21-8.781,20.422-28.23,11.64-43.441
					C157.907,128.153,138.457,122.941,123.247,131.723"/>
			</g>
		</g>
		<g opacity="0.65" clip-path="url(#SVGID_4_)">
			<g>
				<defs>
					<rect id="SVGID_45_" x="109.273" y="306.742" width="57.16" height="51.303"/>
				</defs>
				<clipPath id="SVGID_46_">
					<use xlink:href="#SVGID_45_"  overflow="visible"/>
				</clipPath>
				<path clip-path="url(#SVGID_46_)" fill="#544771" d="M130.427,319.532c-7.103,4.102-9.536,13.184-5.436,20.286
					c4.101,7.104,13.184,9.536,20.286,5.437c7.103-4.102,9.537-13.185,5.436-20.286C146.612,317.865,137.53,315.432,130.427,319.532
					"/>
			</g>
		</g>
		<g opacity="0.65" clip-path="url(#SVGID_4_)">
			<g>
				<defs>
					<rect id="SVGID_47_" x="1.606" y="136.672" width="57.16" height="51.304"/>
				</defs>
				<clipPath id="SVGID_48_">
					<use xlink:href="#SVGID_47_"  overflow="visible"/>
				</clipPath>
				<path clip-path="url(#SVGID_48_)" fill="#BF1717" d="M22.761,149.463c-7.103,4.102-9.536,13.184-5.436,20.286
					c4.101,7.104,13.184,9.536,20.286,5.437c7.103-4.102,9.537-13.185,5.436-20.286C38.946,147.797,29.864,145.362,22.761,149.463"
					/>
			</g>
		</g>
		<g opacity="0.65" clip-path="url(#SVGID_4_)">
			<g>
				<defs>
					<rect id="SVGID_49_" x="213.694" y="239.347" width="57.159" height="51.305"/>
				</defs>
				<clipPath id="SVGID_50_">
					<use xlink:href="#SVGID_49_"  overflow="visible"/>
				</clipPath>
				<path clip-path="url(#SVGID_50_)" fill="#1A5318" d="M234.849,252.138c-7.104,4.102-9.537,13.183-5.437,20.286
					c4.101,7.103,13.185,9.536,20.286,5.436c7.103-4.101,9.537-13.184,5.436-20.285
					C251.034,250.471,241.952,248.037,234.849,252.138"/>
			</g>
		</g>
	</g>
	<g clip-path="url(#SVGID_2_)">
		<defs>
			<rect id="SVGID_51_" x="-1.342" y="-1.275" width="451.118" height="509.193"/>
		</defs>
		<clipPath id="SVGID_52_">
			<use xlink:href="#SVGID_51_"  overflow="visible"/>
		</clipPath>
		<g opacity="0.65" clip-path="url(#SVGID_52_)">
			<g>
				<defs>
					<rect id="SVGID_53_" x="271.043" y="78.988" width="57.16" height="51.304"/>
				</defs>
				<clipPath id="SVGID_54_">
					<use xlink:href="#SVGID_53_"  overflow="visible"/>
				</clipPath>
				<path clip-path="url(#SVGID_54_)" fill="#BF1717" d="M292.199,91.779c-7.104,4.101-9.536,13.183-5.437,20.286
					c4.101,7.103,13.185,9.536,20.287,5.436c7.104-4.101,9.537-13.184,5.436-20.286S299.301,87.678,292.199,91.779"/>
			</g>
		</g>
	</g>
</g>
</svg>
