<?xml version="1.0" encoding="utf-8"?>
<!-- Generator: Adobe Illustrator 15.1.0, SVG Export Plug-In . SVG Version: 6.00 Build 0)  -->
<!DOCTYPE svg PUBLIC "-//W3C//DTD SVG 1.1//EN" "http://www.w3.org/Graphics/SVG/1.1/DTD/svg11.dtd">
<svg version="1.1" id="Ebene_1" xmlns="http://www.w3.org/2000/svg" xmlns:xlink="http://www.w3.org/1999/xlink" x="0px" y="0px"
	 width="398.333px" height="462px" viewBox="0 0 398.333 462" enable-background="new 0 0 398.333 462" xml:space="preserve">
<g>
	<defs>
		<rect id="SVGID_1_" x="2.28" y="0.83" width="451.117" height="461.17"/>
	</defs>
	<clipPath id="SVGID_2_">
		<use xlink:href="#SVGID_1_"  overflow="visible"/>
	</clipPath>

		<linearGradient id="SVGID_3_" gradientUnits="userSpaceOnUse" x1="1.0044" y1="843.3633" x2="2.0044" y2="843.3633" gradientTransform="matrix(298.368 0 0 -298.368 -253.75 252037.25)">
		<stop  offset="0" style="stop-color:#328029"/>
		<stop  offset="0.1132" style="stop-color:#4F8625"/>
		<stop  offset="0.5472" style="stop-color:#999805"/>
		<stop  offset="0.8527" style="stop-color:#BBA200"/>
		<stop  offset="1" style="stop-color:#C8A500"/>
	</linearGradient>
	<path clip-path="url(#SVGID_2_)" fill="url(#SVGID_3_)" d="M54.442,395.561v6.337h0.157c2.92-4.693,6.74-7.041,11.46-7.041
		c5.502,0,9.374,2.882,11.617,8.645c3.39-5.763,7.562-8.645,12.517-8.645c3.729,0,6.741,1.33,9.036,3.99
		c2.294,2.659,3.442,6.193,3.442,10.6v22.101h-3.833v-20.418c0-3.886-0.821-6.943-2.464-9.173c-1.643-2.229-3.951-3.345-6.923-3.345
		c-2.217,0-4.146,0.665-5.789,1.995c-1.643,1.33-3.338,3.469-5.085,6.415v24.525h-3.872v-20.496c0-3.99-0.854-7.061-2.562-9.212
		c-1.708-2.151-3.997-3.228-6.865-3.228c-4.172,0-7.784,2.569-10.835,7.706v25.229h-3.833v-35.986H54.442z M136.712,431.547v-5.946
		h-0.156c-1.669,2.399-3.384,4.107-5.144,5.124c-1.76,1.018-3.997,1.526-6.708,1.526c-3.859,0-7.054-1.252-9.583-3.756
		c-2.53-2.503-3.794-6.049-3.794-10.639v-22.296h3.833v22.218c0,3.338,0.913,5.959,2.738,7.862s4.198,2.854,7.119,2.854
		c2.503,0,4.635-0.573,6.396-1.721c1.76-1.147,3.526-3.129,5.3-5.945v-25.269h3.833v35.986H136.712z M181.246,412.224h-28.358
		c-0.078,0.626-0.117,1.252-0.117,1.878c0,4.016,1.434,7.419,4.302,10.209c2.868,2.79,6.258,4.185,10.17,4.185
		c4.563,0,9.022-1.785,13.377-5.358v4.342c-4.121,3.182-8.736,4.772-13.847,4.772c-5.189,0-9.479-1.8-12.869-5.398
		c-3.39-3.599-5.085-8.175-5.085-13.729c0-5.267,1.564-9.628,4.694-13.084c3.129-3.454,7.066-5.183,11.812-5.183
		c4.459,0,8.227,1.559,11.304,4.675C179.707,402.647,181.246,406.879,181.246,412.224z M153.396,409.134h23.312
		c-1.356-7.015-5.15-10.522-11.382-10.522c-2.947,0-5.496,0.92-7.647,2.758C155.527,403.208,154.1,405.796,153.396,409.134z
		 M199.121,394.856c2.946,0,6.154,1.018,9.622,3.052v4.146c-3.651-2.45-6.937-3.677-9.857-3.677c-2.165,0-3.99,0.586-5.476,1.756
		c-1.486,1.169-2.229,2.612-2.229,4.328c0,1.223,0.452,2.348,1.355,3.375c0.904,1.026,3.395,2.327,7.471,3.902
		c4.077,1.576,6.741,3.211,7.993,4.905c1.251,1.695,1.877,3.586,1.877,5.672c0,2.791-1.134,5.144-3.403,7.061
		c-2.269,1.916-5.072,2.875-8.41,2.875c-3.625,0-7.224-1.096-10.796-3.286v-3.755c4.25,2.19,8.019,3.285,11.304,3.285
		c2.216,0,4.035-0.586,5.457-1.759c1.421-1.173,2.132-2.671,2.132-4.495c0-1.251-0.463-2.404-1.39-3.46
		c-0.927-1.056-3.43-2.393-7.51-4.012c-4.08-1.618-6.727-3.217-7.939-4.795c-1.213-1.577-1.819-3.331-1.819-5.261
		c0-2.738,1.127-5.065,3.383-6.982C193.143,395.815,195.887,394.856,199.121,394.856L199.121,394.856z M221.808,376.903v54.644
		h-3.873v-54.644H221.808z M236.868,376.903v6.571h-3.873v-6.571H236.868z M236.868,395.561v35.986h-3.873v-35.986H236.868z
		 M260.182,432.251c-3.989,0-8.24-0.9-12.751-2.699v-52.648h3.833v23.82c3.833-3.911,8.161-5.867,12.985-5.867
		c4.694,0,8.541,1.637,11.539,4.909s4.498,7.49,4.498,12.653c0,5.998-1.832,10.803-5.495,14.414
		C271.127,430.445,266.257,432.251,260.182,432.251L260.182,432.251z M263.78,398.064c-4.277,0-8.449,2.321-12.517,6.962v21.787
		c2.973,1.122,5.919,1.682,8.84,1.682c4.642,0,8.481-1.492,11.519-4.479c3.038-2.985,4.558-6.772,4.558-11.362
		c0-4.25-1.173-7.745-3.521-10.483C270.312,399.434,267.353,398.064,263.78,398.064L263.78,398.064z M311.91,428.495
		c0.729,0,2.438-1.068,5.124-3.207v3.207c-3.312,2.504-5.737,3.756-7.275,3.756c-0.887,0-1.5-0.294-1.839-0.881
		c-0.339-0.586-0.587-1.779-0.743-3.579c-3.781,2.974-7.536,4.46-11.266,4.46c-2.712,0-5.006-0.887-6.884-2.66
		s-2.815-3.925-2.815-6.454c0-3.911,1.812-6.995,5.437-9.251c3.624-2.255,8.801-3.553,15.528-3.892v-4.576
		c0-4.902-2.66-7.354-7.979-7.354c-3.39,0-7.054,1.525-10.991,4.576v-3.95c4.068-2.556,7.94-3.834,11.617-3.834
		c3.26,0,5.945,0.802,8.058,2.406c2.112,1.604,3.168,3.931,3.168,6.981v22.413C311.049,427.883,311.336,428.495,311.91,428.495
		L311.91,428.495z M297.163,429.082c3.286,0,6.624-1.551,10.014-4.654v-11.227c-4.929-0.182-9.016,0.685-12.262,2.602
		c-3.247,1.917-4.871,4.361-4.871,7.334c0,1.669,0.678,3.077,2.035,4.225C293.435,428.509,295.13,429.082,297.163,429.082
		L297.163,429.082z M339.153,394.856c2.347,0,5.098,1.422,8.253,4.264l-2.229,3.599c-2.999-2.738-5.411-4.107-7.236-4.107
		c-3.599,0-7.445,3.442-11.539,10.327v22.608h-3.833v-35.986h3.833v9.466h0.157C330.861,398.247,335.059,394.856,339.153,394.856
		L339.153,394.856z"/>
	<g clip-path="url(#SVGID_2_)">
		<defs>
			<rect id="SVGID_4_" x="2.28" y="0.83" width="451.117" height="461.17"/>
		</defs>
		<clipPath id="SVGID_5_">
			<use xlink:href="#SVGID_4_"  overflow="visible"/>
		</clipPath>
		<g opacity="0.65" clip-path="url(#SVGID_5_)">
			<g>
				<defs>
					<rect id="SVGID_6_" x="16.686" y="91.967" width="78.526" height="62.526"/>
				</defs>
				<clipPath id="SVGID_7_">
					<use xlink:href="#SVGID_6_"  overflow="visible"/>
				</clipPath>
				<path clip-path="url(#SVGID_7_)" fill="#BF1717" d="M55.949,153.493c16.714,0,30.263-13.55,30.263-30.264
					c0-16.713-13.549-30.263-30.263-30.263c-16.714,0-30.263,13.55-30.263,30.263C25.686,139.943,39.235,153.493,55.949,153.493"/>
			</g>
		</g>
		<g opacity="0.65" clip-path="url(#SVGID_5_)">
			<g>
				<defs>
					<rect id="SVGID_8_" x="116.36" y="249.949" width="127.768" height="111.767"/>
				</defs>
				<clipPath id="SVGID_9_">
					<use xlink:href="#SVGID_8_"  overflow="visible"/>
				</clipPath>
				<path clip-path="url(#SVGID_9_)" fill="#1A5318" d="M180.244,360.716c30.311,0,54.882-24.571,54.882-54.883
					s-24.571-54.884-54.882-54.884s-54.883,24.572-54.883,54.884S149.933,360.716,180.244,360.716"/>
			</g>
		</g>
		<g opacity="0.65" clip-path="url(#SVGID_5_)">
			<g>
				<defs>
					<rect id="SVGID_10_" x="92.543" y="182.221" width="88.912" height="77.942"/>
				</defs>
				<clipPath id="SVGID_11_">
					<use xlink:href="#SVGID_10_"  overflow="visible"/>
				</clipPath>
				<path clip-path="url(#SVGID_11_)" fill="#AC0053" d="M129.082,248.803c15.249,4.373,31.156-4.444,35.529-19.693
					c4.372-15.249-4.445-31.156-19.694-35.529c-15.25-4.372-31.156,4.445-35.529,19.694
					C105.015,228.524,113.833,244.431,129.082,248.803"/>
			</g>
		</g>
		<g opacity="0.65" clip-path="url(#SVGID_5_)">
			<g>
				<defs>
					<rect id="SVGID_12_" x="240.837" y="273.544" width="78.004" height="62.005"/>
				</defs>
				<clipPath id="SVGID_13_">
					<use xlink:href="#SVGID_12_"  overflow="visible"/>
				</clipPath>
				<path clip-path="url(#SVGID_13_)" fill="#E6007E" d="M279.839,334.549c16.57,0,30.003-13.433,30.003-30.002
					s-13.433-30.003-30.003-30.003s-30.003,13.434-30.003,30.003S263.269,334.549,279.839,334.549"/>
			</g>
		</g>
		<g opacity="0.65" clip-path="url(#SVGID_5_)">
			<g>
				<defs>
					<rect id="SVGID_14_" x="272.638" y="156.596" width="108.78" height="92.781"/>
				</defs>
				<clipPath id="SVGID_15_">
					<use xlink:href="#SVGID_14_"  overflow="visible"/>
				</clipPath>
				<path clip-path="url(#SVGID_15_)" fill="#1A5318" d="M327.028,248.377c25.067,0,45.39-20.322,45.39-45.39
					c0-25.069-20.322-45.392-45.39-45.392c-25.068,0-45.391,20.322-45.391,45.392C281.638,228.055,301.96,248.377,327.028,248.377"
					/>
			</g>
		</g>
		<g opacity="0.65" clip-path="url(#SVGID_5_)">
			<g>
				<defs>
					<rect id="SVGID_16_" x="76.194" y="15.028" width="108.78" height="92.78"/>
				</defs>
				<clipPath id="SVGID_17_">
					<use xlink:href="#SVGID_16_"  overflow="visible"/>
				</clipPath>
				<path clip-path="url(#SVGID_17_)" fill="#BF1717" d="M130.584,106.809c25.068,0,45.39-20.322,45.39-45.39
					c0-25.069-20.322-45.392-45.39-45.392s-45.39,20.322-45.39,45.392C85.194,86.486,105.516,106.809,130.584,106.809"/>
			</g>
		</g>
		<g opacity="0.65" clip-path="url(#SVGID_5_)">
			<g>
				<defs>
					<rect id="SVGID_18_" x="229.552" y="11.95" width="74.841" height="58.841"/>
				</defs>
				<clipPath id="SVGID_19_">
					<use xlink:href="#SVGID_18_"  overflow="visible"/>
				</clipPath>
				<path clip-path="url(#SVGID_19_)" fill="#009EBC" d="M266.972,69.791c15.696,0,28.42-12.725,28.42-28.42
					c0-15.696-12.724-28.421-28.42-28.421c-15.695,0-28.42,12.725-28.42,28.421C238.552,57.066,251.276,69.791,266.972,69.791"/>
			</g>
		</g>
		<g opacity="0.65" clip-path="url(#SVGID_5_)">
			<g>
				<defs>
					<rect id="SVGID_20_" x="317.775" y="109.407" width="59.035" height="43.034"/>
				</defs>
				<clipPath id="SVGID_21_">
					<use xlink:href="#SVGID_20_"  overflow="visible"/>
				</clipPath>
				<path clip-path="url(#SVGID_21_)" fill="#009EBC" d="M347.293,151.441c11.331,0,20.517-9.187,20.517-20.518
					c0-11.332-9.186-20.517-20.517-20.517s-20.518,9.185-20.518,20.517C326.775,142.255,335.962,151.441,347.293,151.441"/>
			</g>
		</g>
		<g opacity="0.65" clip-path="url(#SVGID_5_)">
			<g>
				<defs>
					<rect id="SVGID_22_" x="123.888" y="107.868" width="84.515" height="68.515"/>
				</defs>
				<clipPath id="SVGID_23_">
					<use xlink:href="#SVGID_22_"  overflow="visible"/>
				</clipPath>
				<path clip-path="url(#SVGID_23_)" fill="#BF1717" d="M166.146,175.383c18.368,0,33.257-14.89,33.257-33.257
					c0-18.368-14.889-33.258-33.257-33.258c-18.368,0-33.257,14.89-33.257,33.258C132.889,160.493,147.778,175.383,166.146,175.383"
					/>
			</g>
		</g>
		<g opacity="0.65" clip-path="url(#SVGID_5_)">
			<g>
				<defs>
					<rect id="SVGID_24_" x="57.208" y="264.311" width="73.397" height="57.397"/>
				</defs>
				<clipPath id="SVGID_25_">
					<use xlink:href="#SVGID_24_"  overflow="visible"/>
				</clipPath>
				<path clip-path="url(#SVGID_25_)" fill="#544771" d="M93.906,320.708c15.297,0,27.698-12.401,27.698-27.698
					s-12.401-27.698-27.698-27.698s-27.698,12.401-27.698,27.698S78.609,320.708,93.906,320.708"/>
			</g>
		</g>
		<g opacity="0.65" clip-path="url(#SVGID_5_)">
			<g>
				<defs>
					<rect id="SVGID_26_" x="197.75" y="76.579" width="108.11" height="92.11"/>
				</defs>
				<clipPath id="SVGID_27_">
					<use xlink:href="#SVGID_26_"  overflow="visible"/>
				</clipPath>
				<path clip-path="url(#SVGID_27_)" fill="#AC0053" d="M251.806,167.688c24.883,0,45.055-20.172,45.055-45.055
					s-20.172-45.055-45.055-45.055c-24.884,0-45.056,20.172-45.056,45.055S226.922,167.688,251.806,167.688"/>
			</g>
		</g>
		<g opacity="0.65" clip-path="url(#SVGID_5_)">
			<g>
				<defs>
					<rect id="SVGID_28_" x="9.253" y="183.245" width="93.393" height="77.961"/>
				</defs>
				<clipPath id="SVGID_29_">
					<use xlink:href="#SVGID_28_"  overflow="visible"/>
				</clipPath>
				<path clip-path="url(#SVGID_29_)" fill="#009EBC" d="M54.678,258.621c20.101,0.702,36.965-15.024,37.667-35.125
					c0.702-20.101-15.024-36.965-35.125-37.667c-20.101-0.701-36.965,15.024-37.667,35.125
					C18.851,241.055,34.577,257.919,54.678,258.621"/>
			</g>
		</g>
		<g opacity="0.65" clip-path="url(#SVGID_5_)">
			<g>
				<defs>
					<rect id="SVGID_30_" x="74.647" y="144.286" width="54.501" height="38.501"/>
				</defs>
				<clipPath id="SVGID_31_">
					<use xlink:href="#SVGID_30_"  overflow="visible"/>
				</clipPath>
				<path clip-path="url(#SVGID_31_)" fill="#009EBC" d="M101.897,181.787c10.079,0,18.25-8.172,18.25-18.25
					c0-10.08-8.171-18.251-18.25-18.251s-18.25,8.171-18.25,18.251C83.647,173.615,91.818,181.787,101.897,181.787"/>
			</g>
		</g>
		<g opacity="0.65" clip-path="url(#SVGID_5_)">
			<g>
				<defs>
					<rect id="SVGID_32_" x="192.621" y="187.372" width="81.603" height="65.603"/>
				</defs>
				<clipPath id="SVGID_33_">
					<use xlink:href="#SVGID_32_"  overflow="visible"/>
				</clipPath>
				<path clip-path="url(#SVGID_33_)" fill="#C8A600" d="M233.423,251.976c17.563,0,31.802-14.238,31.802-31.803
					c0-17.562-14.238-31.801-31.802-31.801c-17.564,0-31.802,14.238-31.802,31.801C201.621,237.737,215.858,251.976,233.423,251.976
					"/>
			</g>
		</g>
		<g opacity="0.65" clip-path="url(#SVGID_5_)">
			<g>
				<defs>
					<rect id="SVGID_34_" x="297.259" y="55.036" width="47.7" height="31.701"/>
				</defs>
				<clipPath id="SVGID_35_">
					<use xlink:href="#SVGID_34_"  overflow="visible"/>
				</clipPath>
				<path clip-path="url(#SVGID_35_)" fill="#544771" d="M321.108,85.737c8.202,0,14.851-6.649,14.851-14.851
					c0-8.202-6.648-14.851-14.851-14.851c-8.201,0-14.85,6.648-14.85,14.851C306.259,79.088,312.907,85.737,321.108,85.737"/>
			</g>
		</g>
		<g opacity="0.65" clip-path="url(#SVGID_5_)">
			<g>
				<defs>
					<rect id="SVGID_36_" x="305.465" y="256.154" width="47.701" height="31.699"/>
				</defs>
				<clipPath id="SVGID_37_">
					<use xlink:href="#SVGID_36_"  overflow="visible"/>
				</clipPath>
				<path clip-path="url(#SVGID_37_)" fill="#BF1717" d="M329.315,286.854c8.202,0,14.851-6.649,14.851-14.851
					c0-8.202-6.648-14.851-14.851-14.851s-14.85,6.648-14.85,14.851C314.466,280.205,321.113,286.854,329.315,286.854"/>
			</g>
		</g>
		<g opacity="0.65" clip-path="url(#SVGID_5_)">
			<g>
				<defs>
					<rect id="SVGID_38_" x="173.129" y="61.191" width="47.701" height="31.7"/>
				</defs>
				<clipPath id="SVGID_39_">
					<use xlink:href="#SVGID_38_"  overflow="visible"/>
				</clipPath>
				<path clip-path="url(#SVGID_39_)" fill="#1A5318" d="M196.98,91.893c8.202,0,14.85-6.649,14.85-14.851
					c0-8.202-6.648-14.851-14.85-14.851s-14.85,6.648-14.85,14.851C182.13,85.243,188.778,91.893,196.98,91.893"/>
			</g>
		</g>
		<g opacity="0.65" clip-path="url(#SVGID_5_)">
			<g>
				<defs>
					<rect id="SVGID_40_" x="295.304" y="109.882" width="99.269" height="93.412"/>
				</defs>
				<clipPath id="SVGID_41_">
					<use xlink:href="#SVGID_40_"  overflow="visible"/>
				</clipPath>
				<path clip-path="url(#SVGID_41_)" fill="#BF1717" d="M329.808,130.38c-14.476,8.357-19.435,26.865-11.077,41.34
					c8.356,14.475,26.864,19.435,41.34,11.077c14.474-8.357,19.434-26.866,11.077-41.34
					C362.79,126.982,344.281,122.022,329.808,130.38"/>
			</g>
		</g>
		<g opacity="0.65" clip-path="url(#SVGID_5_)">
			<g>
				<defs>
					<rect id="SVGID_42_" x="62.729" y="-19.741" width="166.532" height="160.676"/>
				</defs>
				<clipPath id="SVGID_43_">
					<use xlink:href="#SVGID_42_"  overflow="visible"/>
				</clipPath>
				<path clip-path="url(#SVGID_43_)" fill="#1A5318" d="M118.553,13.066c-26.25,15.156-35.244,48.722-20.089,74.972
					c15.156,26.25,48.722,35.245,74.972,20.089c26.251-15.155,35.245-48.722,20.089-74.972
					C178.369,6.904,144.803-2.089,118.553,13.066"/>
			</g>
		</g>
		<g opacity="0.65" clip-path="url(#SVGID_5_)">
			<g>
				<defs>
					<rect id="SVGID_44_" x="181.971" y="74.308" width="87.588" height="75.936"/>
				</defs>
				<clipPath id="SVGID_45_">
					<use xlink:href="#SVGID_44_"  overflow="visible"/>
				</clipPath>
				<path clip-path="url(#SVGID_45_)" fill="#AC0053" d="M218.817,84.404c-15.393,3.839-24.76,19.428-20.922,34.82
					s19.427,24.759,34.82,20.921c15.394-3.837,24.761-19.427,20.922-34.818C249.799,89.934,234.21,80.566,218.817,84.404"/>
			</g>
		</g>
		<g opacity="0.65" clip-path="url(#SVGID_5_)">
			<g>
				<defs>
					<rect id="SVGID_46_" x="11.107" y="65.158" width="98.557" height="92.7"/>
				</defs>
				<clipPath id="SVGID_47_">
					<use xlink:href="#SVGID_46_"  overflow="visible"/>
				</clipPath>
				<path clip-path="url(#SVGID_47_)" fill="#E6007E" d="M45.385,85.525c-14.35,8.285-19.267,26.634-10.982,40.984
					c8.285,14.35,26.635,19.267,40.985,10.981s19.266-26.634,10.981-40.983C78.084,82.157,59.735,77.24,45.385,85.525"/>
			</g>
		</g>
		<g opacity="0.65" clip-path="url(#SVGID_5_)">
			<g>
				<defs>
					<rect id="SVGID_48_" y="155.686" width="140.597" height="134.741"/>
				</defs>
				<clipPath id="SVGID_49_">
					<use xlink:href="#SVGID_48_"  overflow="visible"/>
				</clipPath>
				<path clip-path="url(#SVGID_49_)" fill="#1A5318" d="M47.604,183.747c-21.71,12.534-29.148,40.294-16.614,62.004
					c12.534,21.71,40.294,29.149,62.004,16.614c21.71-12.534,29.149-40.294,16.614-62.004
					C97.074,178.651,69.313,171.213,47.604,183.747"/>
			</g>
		</g>
		<g opacity="0.65" clip-path="url(#SVGID_5_)">
			<g>
				<defs>
					<rect id="SVGID_50_" x="240.91" y="180.066" width="140.597" height="134.74"/>
				</defs>
				<clipPath id="SVGID_51_">
					<use xlink:href="#SVGID_50_"  overflow="visible"/>
				</clipPath>
				<path clip-path="url(#SVGID_51_)" fill="#C8A600" d="M288.513,208.127c-21.709,12.534-29.147,40.294-16.613,62.004
					s40.294,29.149,62.004,16.614c21.71-12.534,29.149-40.294,16.614-62.004C337.983,203.031,310.224,195.593,288.513,208.127"/>
			</g>
		</g>
		<g opacity="0.65" clip-path="url(#SVGID_5_)">
			<g>
				<defs>
					<rect id="SVGID_52_" x="155.999" y="288.803" width="94.235" height="88.378"/>
				</defs>
				<clipPath id="SVGID_53_">
					<use xlink:href="#SVGID_52_"  overflow="visible"/>
				</clipPath>
				<path clip-path="url(#SVGID_53_)" fill="#C8A600" d="M188.907,308.379c-13.593,7.849-18.251,25.23-10.403,38.823
					c7.848,13.593,25.23,18.251,38.823,10.403c13.594-7.85,18.25-25.23,10.403-38.823
					C219.882,305.188,202.5,300.531,188.907,308.379"/>
			</g>
		</g>
		<g opacity="0.65" clip-path="url(#SVGID_5_)">
			<g>
				<defs>
					<rect id="SVGID_54_" x="52.459" y="262.204" width="72.642" height="66.786"/>
				</defs>
				<clipPath id="SVGID_55_">
					<use xlink:href="#SVGID_54_"  overflow="visible"/>
				</clipPath>
				<path clip-path="url(#SVGID_55_)" fill="#009EBC" d="M78.522,277.828c-9.813,5.666-13.175,18.215-7.51,28.027
					c5.666,9.813,18.214,13.175,28.027,7.51c9.813-5.666,13.176-18.214,7.51-28.026C100.883,275.525,88.335,272.162,78.522,277.828"
					/>
			</g>
		</g>
		<g opacity="0.65" clip-path="url(#SVGID_5_)">
			<g>
				<defs>
					<rect id="SVGID_56_" x="186.333" y="144.526" width="107.449" height="101.593"/>
				</defs>
				<clipPath id="SVGID_57_">
					<use xlink:href="#SVGID_56_"  overflow="visible"/>
				</clipPath>
				<path clip-path="url(#SVGID_57_)" fill="#BF1717" d="M223.429,166.521c-15.907,9.185-21.357,29.524-12.173,45.432
					c9.184,15.905,29.524,21.355,45.431,12.173c15.906-9.185,21.356-29.524,12.174-45.431
					C259.676,162.787,239.336,157.337,223.429,166.521"/>
			</g>
		</g>
		<g opacity="0.65" clip-path="url(#SVGID_5_)">
			<g>
				<defs>
					<rect id="SVGID_58_" x="181.046" y="-14.669" width="92.261" height="86.405"/>
				</defs>
				<clipPath id="SVGID_59_">
					<use xlink:href="#SVGID_58_"  overflow="visible"/>
				</clipPath>
				<path clip-path="url(#SVGID_59_)" fill="#544771" d="M213.328,4.546c-13.248,7.649-17.787,24.589-10.138,37.836
					c7.648,13.248,24.588,17.787,37.836,10.139s17.787-24.589,10.138-37.837C243.517,1.437,226.576-3.103,213.328,4.546"/>
			</g>
		</g>
		<g opacity="0.65" clip-path="url(#SVGID_5_)">
			<g>
				<defs>
					<rect id="SVGID_60_" x="105.78" y="188.12" width="139.68" height="133.824"/>
				</defs>
				<clipPath id="SVGID_61_">
					<use xlink:href="#SVGID_60_"  overflow="visible"/>
				</clipPath>
				<path clip-path="url(#SVGID_61_)" fill="#AC0053" d="M153.093,216.014c-21.549,12.441-28.933,39.997-16.491,61.546
					c12.441,21.549,39.996,28.933,61.546,16.491c21.549-12.441,28.933-39.996,16.491-61.546S174.642,203.571,153.093,216.014"/>
			</g>
		</g>
		<g opacity="0.65" clip-path="url(#SVGID_5_)">
			<g>
				<defs>
					<rect id="SVGID_62_" x="237.772" y="16.495" width="115.337" height="108.721"/>
				</defs>
				<clipPath id="SVGID_63_">
					<use xlink:href="#SVGID_62_"  overflow="visible"/>
				</clipPath>
				<path clip-path="url(#SVGID_63_)" fill="#009EBC" d="M278.344,38.701c-17.759,9.443-24.5,31.494-15.058,49.251
					c9.441,17.76,31.494,24.501,49.252,15.059c17.759-9.442,24.501-31.493,15.058-49.252C318.153,36,296.103,29.258,278.344,38.701"
					/>
			</g>
		</g>
		<g opacity="0.65" clip-path="url(#SVGID_5_)">
			<g>
				<defs>
					<rect id="SVGID_64_" x="251.769" y="114.36" width="66.449" height="60.593"/>
				</defs>
				<clipPath id="SVGID_65_">
					<use xlink:href="#SVGID_64_"  overflow="visible"/>
				</clipPath>
				<path clip-path="url(#SVGID_65_)" fill="#009EBC" d="M275.868,128.851c-8.729,5.04-11.721,16.201-6.681,24.931
					c5.04,8.729,16.201,11.72,24.931,6.681c8.729-5.04,11.72-16.202,6.681-24.931C295.759,126.802,284.597,123.811,275.868,128.851"
					/>
			</g>
		</g>
		<g opacity="0.65" clip-path="url(#SVGID_5_)">
			<g>
				<defs>
					<rect id="SVGID_66_" x="241.742" y="291.909" width="66.45" height="60.593"/>
				</defs>
				<clipPath id="SVGID_67_">
					<use xlink:href="#SVGID_66_"  overflow="visible"/>
				</clipPath>
				<path clip-path="url(#SVGID_67_)" fill="#BF1717" d="M265.843,306.4c-8.729,5.039-11.721,16.2-6.681,24.93
					c5.04,8.729,16.201,11.72,24.931,6.681c8.729-5.04,11.72-16.202,6.681-24.931C285.733,304.351,274.571,301.36,265.843,306.4"/>
			</g>
		</g>
		<g opacity="0.65" clip-path="url(#SVGID_5_)">
			<g>
				<defs>
					<rect id="SVGID_68_" x="91.034" y="112.561" width="103.472" height="97.616"/>
				</defs>
				<clipPath id="SVGID_69_">
					<use xlink:href="#SVGID_68_"  overflow="visible"/>
				</clipPath>
				<path clip-path="url(#SVGID_69_)" fill="#C8A600" d="M126.869,133.828c-15.21,8.782-20.422,28.231-11.64,43.442
					c8.782,15.21,28.231,20.422,43.442,11.64c15.21-8.782,20.422-28.23,11.64-43.442
					C161.529,130.258,142.08,125.046,126.869,133.828"/>
			</g>
		</g>
		<g opacity="0.65" clip-path="url(#SVGID_5_)">
			<g>
				<defs>
					<rect id="SVGID_70_" x="112.896" y="308.847" width="57.16" height="51.305"/>
				</defs>
				<clipPath id="SVGID_71_">
					<use xlink:href="#SVGID_70_"  overflow="visible"/>
				</clipPath>
				<path clip-path="url(#SVGID_71_)" fill="#544771" d="M134.05,321.638c-7.103,4.102-9.536,13.184-5.436,20.286
					c4.101,7.104,13.184,9.536,20.286,5.437c7.103-4.102,9.537-13.185,5.436-20.286C150.235,319.971,141.153,317.537,134.05,321.638
					"/>
			</g>
		</g>
		<g opacity="0.65" clip-path="url(#SVGID_5_)">
			<g>
				<defs>
					<rect id="SVGID_72_" x="5.229" y="138.777" width="57.16" height="51.304"/>
				</defs>
				<clipPath id="SVGID_73_">
					<use xlink:href="#SVGID_72_"  overflow="visible"/>
				</clipPath>
				<path clip-path="url(#SVGID_73_)" fill="#BF1717" d="M26.384,151.568c-7.103,4.102-9.536,13.184-5.436,20.286
					c4.101,7.104,13.184,9.536,20.286,5.437c7.103-4.102,9.537-13.185,5.436-20.286C42.569,149.901,33.487,147.468,26.384,151.568"
					/>
			</g>
		</g>
		<g opacity="0.65" clip-path="url(#SVGID_5_)">
			<g>
				<defs>
					<rect id="SVGID_74_" x="217.316" y="241.452" width="57.159" height="51.304"/>
				</defs>
				<clipPath id="SVGID_75_">
					<use xlink:href="#SVGID_74_"  overflow="visible"/>
				</clipPath>
				<path clip-path="url(#SVGID_75_)" fill="#1A5318" d="M238.472,254.243c-7.104,4.101-9.537,13.183-5.437,20.286
					c4.101,7.103,13.185,9.536,20.286,5.436c7.103-4.101,9.537-13.184,5.436-20.286
					C254.656,252.576,245.574,250.142,238.472,254.243"/>
			</g>
		</g>
	</g>
	<g clip-path="url(#SVGID_2_)">
		<path fill="#F6F6F6" d="M15.055,456.709v-10.248h3.46c1.396,0,2.5,0.209,3.313,0.628s1.459,1.034,1.939,1.848c0.48,0.812,0.72,1.699,0.72,2.659
			c0,0.686-0.132,1.342-0.397,1.969c-0.264,0.627-0.642,1.178-1.131,1.653c-0.5,0.489-1.08,0.859-1.741,1.109
			c-0.387,0.151-0.742,0.253-1.065,0.305s-0.94,0.077-1.852,0.077H15.055z M18.361,447.769h-1.837v7.633h1.881
			c0.735,0,1.305-0.05,1.712-0.15c0.406-0.101,0.746-0.229,1.018-0.383c0.271-0.154,0.52-0.344,0.746-0.569
			c0.725-0.734,1.087-1.662,1.087-2.784c0-1.102-0.372-2-1.116-2.696c-0.274-0.259-0.589-0.473-0.944-0.639
			c-0.355-0.167-0.692-0.276-1.01-0.331C19.578,447.795,19.066,447.769,18.361,447.769z"/>
		<path fill="#F6F6F6" d="M41.864,446.401h1.033l4.602,10.322h-1.504l-1.368-3.041h-4.378l-1.283,3.041h-1.51L41.864,446.401z M44.022,452.374
			l-1.656-3.717l-1.536,3.717H44.022z"/>
		<path fill="#F6F6F6" d="M64.254,452.424l-1.117-0.679c-0.701-0.428-1.199-0.849-1.495-1.263c-0.296-0.413-0.444-0.89-0.444-1.429
			c0-0.808,0.28-1.464,0.841-1.969c0.561-0.505,1.289-0.757,2.186-0.757c0.857,0,1.643,0.24,2.358,0.722v1.668
			c-0.739-0.712-1.535-1.067-2.387-1.067c-0.48,0-0.875,0.111-1.183,0.333c-0.309,0.223-0.463,0.506-0.463,0.853
			c0,0.308,0.114,0.596,0.341,0.863c0.228,0.269,0.593,0.551,1.097,0.846l1.122,0.664c1.252,0.748,1.878,1.699,1.878,2.855
			c0,0.822-0.275,1.491-0.827,2.005c-0.551,0.515-1.267,0.771-2.149,0.771c-1.014,0-1.937-0.312-2.77-0.935v-1.866
			c0.793,1.006,1.712,1.508,2.755,1.508c0.46,0,0.844-0.128,1.15-0.384c0.306-0.257,0.459-0.577,0.459-0.963
			C65.605,453.576,65.155,452.984,64.254,452.424z"/>
		<path fill="#F6F6F6" d="M107.11,446.461h1.374v10.263h-1.477v-7.985l-3.155,3.967h-0.272l-3.192-3.967v7.985h-1.469v-10.263h1.391l3.41,4.215
			L107.11,446.461z"/>
		<path fill="#F6F6F6" d="M130.926,446.461h1.477v5.825c0,0.789-0.058,1.384-0.173,1.785c-0.115,0.402-0.257,0.736-0.426,1.003
			c-0.169,0.268-0.376,0.506-0.621,0.717c-0.813,0.7-1.876,1.05-3.188,1.05c-1.337,0-2.41-0.348-3.218-1.043
			c-0.245-0.216-0.452-0.456-0.621-0.724c-0.169-0.267-0.309-0.594-0.419-0.98c-0.11-0.387-0.165-0.994-0.165-1.822v-5.811h1.477
			v5.825c0,0.965,0.11,1.636,0.331,2.013c0.22,0.378,0.556,0.68,1.006,0.908c0.451,0.228,0.982,0.341,1.594,0.341
			c0.872,0,1.582-0.228,2.13-0.683c0.289-0.245,0.497-0.534,0.625-0.867s0.191-0.903,0.191-1.712V446.461z M126.562,444.19
			c0.191,0,0.356,0.068,0.496,0.206c0.14,0.137,0.209,0.304,0.209,0.499c0,0.196-0.066,0.361-0.198,0.496
			c-0.132,0.135-0.294,0.202-0.485,0.202c-0.196,0-0.363-0.07-0.5-0.21s-0.206-0.305-0.206-0.495c0-0.196,0.067-0.361,0.202-0.496
			S126.376,444.19,126.562,444.19z M129.391,444.19c0.191,0,0.356,0.068,0.496,0.206c0.139,0.137,0.209,0.304,0.209,0.499
			c0,0.196-0.066,0.361-0.198,0.496s-0.294,0.202-0.485,0.202c-0.196,0-0.362-0.07-0.5-0.21s-0.206-0.305-0.206-0.495
			c0-0.196,0.067-0.361,0.202-0.496C129.044,444.258,129.205,444.19,129.391,444.19z"/>
		<path fill="#F6F6F6" d="M150.054,452.424l-1.117-0.679c-0.701-0.428-1.199-0.849-1.495-1.263c-0.296-0.413-0.444-0.89-0.444-1.429
			c0-0.808,0.28-1.464,0.841-1.969c0.561-0.505,1.289-0.757,2.186-0.757c0.857,0,1.643,0.24,2.358,0.722v1.668
			c-0.739-0.712-1.535-1.067-2.387-1.067c-0.48,0-0.875,0.111-1.183,0.333c-0.309,0.223-0.463,0.506-0.463,0.853
			c0,0.308,0.114,0.596,0.341,0.863c0.228,0.269,0.593,0.551,1.097,0.846l1.122,0.664c1.252,0.748,1.878,1.699,1.878,2.855
			c0,0.822-0.275,1.491-0.827,2.005c-0.551,0.515-1.267,0.771-2.149,0.771c-1.014,0-1.937-0.312-2.77-0.935v-1.866
			c0.793,1.006,1.712,1.508,2.755,1.508c0.46,0,0.844-0.128,1.15-0.384c0.306-0.257,0.459-0.577,0.459-0.963
			C151.406,453.576,150.955,452.984,150.054,452.424z"/>
		<path fill="#F6F6F6" d="M167.478,446.461h1.469v8.926h4.621v1.337h-6.09V446.461z"/>
		<path fill="#F6F6F6" d="M187.943,446.461h1.469v10.263h-1.469V446.461z"/>
		<path fill="#F6F6F6" d="M222.05,446.461h5.473v1.308h-4.004v2.865h4.004v1.308h-4.004v4.782h-1.469V446.461z"/>
		<path fill="#F6F6F6" d="M249.311,446.461h1.477v5.825c0,0.789-0.058,1.384-0.173,1.785c-0.115,0.402-0.257,0.736-0.426,1.003
			c-0.169,0.268-0.376,0.506-0.621,0.717c-0.813,0.7-1.876,1.05-3.188,1.05c-1.337,0-2.41-0.348-3.218-1.043
			c-0.245-0.216-0.452-0.456-0.621-0.724c-0.169-0.267-0.309-0.594-0.419-0.98c-0.11-0.387-0.165-0.994-0.165-1.822v-5.811h1.477
			v5.825c0,0.965,0.11,1.636,0.331,2.013c0.22,0.378,0.556,0.68,1.006,0.908c0.451,0.228,0.982,0.341,1.594,0.341
			c0.872,0,1.582-0.228,2.13-0.683c0.289-0.245,0.497-0.534,0.625-0.867s0.191-0.903,0.191-1.712V446.461z M244.947,444.19
			c0.191,0,0.356,0.068,0.496,0.206c0.14,0.137,0.209,0.304,0.209,0.499c0,0.196-0.066,0.361-0.198,0.496
			c-0.132,0.135-0.294,0.202-0.485,0.202c-0.196,0-0.363-0.07-0.5-0.21s-0.206-0.305-0.206-0.495c0-0.196,0.067-0.361,0.202-0.496
			S244.761,444.19,244.947,444.19z M247.775,444.19c0.191,0,0.356,0.068,0.496,0.206c0.139,0.137,0.209,0.304,0.209,0.499
			c0,0.196-0.066,0.361-0.198,0.496s-0.294,0.202-0.485,0.202c-0.196,0-0.362-0.07-0.5-0.21s-0.206-0.305-0.206-0.495
			c0-0.196,0.067-0.361,0.202-0.496C247.429,444.258,247.589,444.19,247.775,444.19z"/>
		<path fill="#F6F6F6" d="M265.941,456.724v-10.263h2.571c1.039,0,1.862,0.257,2.472,0.771c0.61,0.515,0.915,1.21,0.915,2.087
			c0,0.598-0.149,1.114-0.448,1.55c-0.299,0.437-0.728,0.762-1.286,0.978c0.328,0.216,0.649,0.509,0.962,0.882
			c0.313,0.372,0.754,1.021,1.322,1.946c0.357,0.583,0.644,1.021,0.859,1.315l0.544,0.734h-1.749l-0.448-0.676
			c-0.015-0.024-0.044-0.066-0.088-0.125l-0.286-0.404l-0.455-0.75l-0.492-0.802c-0.303-0.421-0.581-0.757-0.833-1.006
			s-0.48-0.429-0.684-0.539s-0.545-0.165-1.026-0.165h-0.383v4.467H265.941z M267.852,447.709h-0.441v3.24h0.559
			c0.745,0,1.255-0.063,1.532-0.191c0.277-0.127,0.492-0.319,0.646-0.576s0.231-0.55,0.231-0.878c0-0.323-0.086-0.616-0.257-0.878
			s-0.413-0.447-0.724-0.555S268.572,447.709,267.852,447.709z"/>
		<path fill="#F6F6F6" d="M305.345,456.709v-10.248h3.46c1.396,0,2.5,0.209,3.313,0.628c0.812,0.419,1.459,1.034,1.939,1.848
			c0.479,0.812,0.72,1.699,0.72,2.659c0,0.686-0.132,1.342-0.396,1.969s-0.642,1.178-1.132,1.653
			c-0.499,0.489-1.08,0.859-1.741,1.109c-0.387,0.151-0.742,0.253-1.065,0.305s-0.939,0.077-1.851,0.077H305.345z M308.65,447.769
			h-1.837v7.633h1.881c0.734,0,1.306-0.05,1.712-0.15s0.745-0.229,1.018-0.383c0.271-0.154,0.521-0.344,0.745-0.569
			c0.726-0.734,1.088-1.662,1.088-2.784c0-1.102-0.372-2-1.117-2.696c-0.274-0.259-0.589-0.473-0.943-0.639
			c-0.355-0.167-0.692-0.276-1.011-0.331C309.867,447.795,309.355,447.769,308.65,447.769z"/>
		<path fill="#F6F6F6" d="M329.72,446.461h1.469v10.263h-1.469V446.461z"/>
		<path fill="#F6F6F6" d="M355.386,454.344v1.616c-1.077,0.587-2.321,0.881-3.732,0.881c-1.146,0-2.118-0.229-2.916-0.69
			c-0.799-0.46-1.431-1.095-1.896-1.902c-0.466-0.809-0.698-1.683-0.698-2.623c0-1.494,0.533-2.75,1.599-3.769
			c1.064-1.019,2.379-1.528,3.941-1.528c1.077,0,2.274,0.282,3.592,0.845v1.58c-1.2-0.686-2.373-1.029-3.519-1.029
			c-1.176,0-2.151,0.371-2.928,1.113s-1.164,1.672-1.164,2.788c0,1.127,0.382,2.053,1.146,2.777s1.741,1.087,2.932,1.087
			C352.986,455.489,354.2,455.107,355.386,454.344z"/>
		<path fill="#F6F6F6" d="M377.505,446.461h1.469v10.263h-1.469v-4.467h-5.768v4.467h-1.469v-10.263h1.469v4.437h5.768V446.461z"/>
	</g>
	<g clip-path="url(#SVGID_2_)">
		<defs>
			<rect id="SVGID_76_" x="2.28" y="0.83" width="451.117" height="461.17"/>
		</defs>
		<clipPath id="SVGID_77_">
			<use xlink:href="#SVGID_76_"  overflow="visible"/>
		</clipPath>
		<g opacity="0.65" clip-path="url(#SVGID_77_)">
			<g>
				<defs>
					<rect id="SVGID_78_" x="274.666" y="81.093" width="57.16" height="51.305"/>
				</defs>
				<clipPath id="SVGID_79_">
					<use xlink:href="#SVGID_78_"  overflow="visible"/>
				</clipPath>
				<path clip-path="url(#SVGID_79_)" fill="#BF1717" d="M295.821,93.885c-7.104,4.101-9.536,13.183-5.437,20.285
					c4.101,7.104,13.185,9.536,20.286,5.437c7.104-4.102,9.537-13.185,5.437-20.286C312.006,92.218,302.924,89.783,295.821,93.885"
					/>
			</g>
		</g>
	</g>
</g>
</svg>
