<?xml version="1.0" encoding="utf-8"?>
<!-- Generator: Adobe Illustrator 15.1.0, SVG Export Plug-In . SVG Version: 6.00 Build 0)  -->
<!DOCTYPE svg PUBLIC "-//W3C//DTD SVG 1.1//EN" "http://www.w3.org/Graphics/SVG/1.1/DTD/svg11.dtd">
<svg version="1.1" id="Ebene_1" xmlns="http://www.w3.org/2000/svg" xmlns:xlink="http://www.w3.org/1999/xlink" x="0px" y="0px"
	 width="509px" height="222.52px" viewBox="0 0 509 222.52" enable-background="new 0 0 509 222.52" xml:space="preserve">
<rect fill="#917C7D" width="543.51" height="222.52"/>
<text transform="matrix(1 0 0 1 14.1733 50.1338)"><tspan x="0" y="0" fill="#B7B7B7" font-family="'AvenirNext-Bold'" font-size="15">G</tspan><tspan x="11.535" y="0" fill="#B7B7B7" font-family="'AvenirNext-Bold'" font-size="15">O</tspan><tspan x="24.03" y="0" fill="#B7B7B7" font-family="'AvenirNext-Bold'" font-size="15">ALS / HOBBIES</tspan></text>
<text transform="matrix(1 0 0 1 14.1733 72.9365)"><tspan x="0" y="0" fill="#FFFFFF" font-family="'AvenirNext-Regular'" font-size="13">-</tspan><tspan x="4.16" y="0" fill="#FFFFFF" font-family="'AvenirNext-Regular'" font-size="13"> </tspan><tspan x="7.111" y="0" fill="#FFFFFF" font-family="'AvenirNext-Regular'" font-size="13" letter-spacing="-1">T</tspan><tspan x="13.364" y="0" fill="#FFFFFF" font-family="'AvenirNext-Regular'" font-size="13">r</tspan><tspan x="17.9" y="0" fill="#FFFFFF" font-family="'AvenirNext-Regular'" font-size="13">aveling</tspan><tspan x="60.917" y="0" fill="#FFFFFF" font-family="'AvenirNext-Regular'" font-size="13">,</tspan><tspan x="63.92" y="0" fill="#FFFFFF" font-family="'AvenirNext-Regular'" font-size="13"> a</tspan><tspan x="74.112" y="0" fill="#FFFFFF" font-family="'AvenirNext-Regular'" font-size="13">r</tspan><tspan x="78.649" y="0" fill="#FFFFFF" font-family="'AvenirNext-Regular'" font-size="13">t</tspan><tspan x="82.77" y="0" fill="#FFFFFF" font-family="'AvenirNext-Regular'" font-size="13">,</tspan><tspan x="85.772" y="0" fill="#FFFFFF" font-family="'AvenirNext-Regular'" font-size="13"> museum -&gt; </tspan></text>
<text transform="matrix(1 0 0 1 173.709 72.9365)" fill="#FFFFFF" font-family="'AvenirNext-Italic'" font-size="13">inquisitive </text>
<text transform="matrix(1 0 0 1 14.1733 90.9414)"><tspan x="0" y="0" fill="#FFFFFF" font-family="'AvenirNext-Regular'" font-size="13">- strives to imp</tspan><tspan x="86.332" y="0" fill="#FFFFFF" font-family="'AvenirNext-Regular'" font-size="13">r</tspan><tspan x="90.791" y="0" fill="#FFFFFF" font-family="'AvenirNext-Regular'" font-size="13">ove her knowledge about cultu</tspan><tspan x="275.518" y="0" fill="#FFFFFF" font-family="'AvenirNext-Regular'" font-size="13">r</tspan><tspan x="279.977" y="0" fill="#FFFFFF" font-family="'AvenirNext-Regular'" font-size="13">e</tspan><tspan x="287.413" y="0" fill="#FFFFFF" font-family="'AvenirNext-Regular'" font-size="13">,</tspan><tspan x="290.402" y="0" fill="#FFFFFF" font-family="'AvenirNext-Regular'" font-size="13"> history and cur</tspan><tspan x="381.349" y="0" fill="#FFFFFF" font-family="'AvenirNext-Regular'" font-size="13">r</tspan><tspan x="385.808" y="0" fill="#FFFFFF" font-family="'AvenirNext-Regular'" font-size="13">ent </tspan></text>
<text transform="matrix(1 0 0 1 14.1733 108.9473)" fill="#FFFFFF" font-family="'AvenirNext-Regular'" font-size="13">topics everyday -&gt; </text>
<text transform="matrix(1 0 0 1 126.3896 108.9473)"><tspan x="0" y="0" fill="#FFFFFF" font-family="'AvenirNext-Italic'" font-size="13">good gene</tspan><tspan x="65.351" y="0" fill="#FFFFFF" font-family="'AvenirNext-Italic'" font-size="13">r</tspan><tspan x="69.731" y="0" fill="#FFFFFF" font-family="'AvenirNext-Italic'" font-size="13">al knowledge</tspan></text>
<text transform="matrix(1 0 0 1 14.1733 126.9521)"><tspan x="0" y="0" fill="#FFFFFF" font-family="'AvenirNext-Regular'" font-size="13">- wants to give her son the oppo</tspan><tspan x="190.798" y="0" fill="#FFFFFF" font-family="'AvenirNext-Regular'" font-size="13">r</tspan><tspan x="195.335" y="0" fill="#FFFFFF" font-family="'AvenirNext-Regular'" font-size="13">tunity to b</tspan><tspan x="255.121" y="0" fill="#FFFFFF" font-family="'AvenirNext-Regular'" font-size="13">r</tspan><tspan x="259.58" y="0" fill="#FFFFFF" font-family="'AvenirNext-Regular'" font-size="13">oaden his mind</tspan></text>
<text transform="matrix(1 0 0 1 14.1733 144.957)"><tspan x="0" y="0" fill="#FFFFFF" font-family="'AvenirNext-Regular'" font-size="13">- </tspan><tspan x="7.41" y="0" fill="#FFFFFF" font-family="'AvenirNext-Regular'" font-size="13">F</tspan><tspan x="14.105" y="0" fill="#FFFFFF" font-family="'AvenirNext-Regular'" font-size="13">amily time</tspan><tspan x="74.931" y="0" fill="#FFFFFF" font-family="'AvenirNext-Regular'" font-size="13">,</tspan><tspan x="77.934" y="0" fill="#FFFFFF" font-family="'AvenirNext-Regular'" font-size="13"> n</tspan><tspan x="88.737" y="0" fill="#FFFFFF" font-family="'AvenirNext-Regular'" font-size="13">a</tspan><tspan x="95.549" y="0" fill="#FFFFFF" font-family="'AvenirNext-Regular'" font-size="13">tu</tspan><tspan x="107.223" y="0" fill="#FFFFFF" font-family="'AvenirNext-Regular'" font-size="13">r</tspan><tspan x="111.682" y="0" fill="#FFFFFF" font-family="'AvenirNext-Regular'" font-size="13">e</tspan><tspan x="119.118" y="0" fill="#FFFFFF" font-family="'AvenirNext-Regular'" font-size="13">,</tspan><tspan x="122.121" y="0" fill="#FFFFFF" font-family="'AvenirNext-Regular'" font-size="13"> walking -&gt; </tspan></text>
<text transform="matrix(1 0 0 1 204.376 144.957)" fill="#FFFFFF" font-family="'AvenirNext-Italic'" font-size="13">loves her family </text>
<text transform="matrix(1 0 0 1 14.1733 162.9619)"><tspan x="0" y="0" fill="#FFFFFF" font-family="'AvenirNext-Regular'" font-size="13">-</tspan><tspan x="4.16" y="0" fill="#FFFFFF" font-family="'AvenirNext-Regular'" font-size="13"> </tspan><tspan x="7.93" y="0" fill="#FFFFFF" font-family="'AvenirNext-Regular'" font-size="13">Classical conce</tspan><tspan x="98.201" y="0" fill="#FFFFFF" font-family="'AvenirNext-Regular'" font-size="13">r</tspan><tspan x="102.738" y="0" fill="#FFFFFF" font-family="'AvenirNext-Regular'" font-size="13">ts</tspan><tspan x="112.63" y="0" fill="#FFFFFF" font-family="'AvenirNext-Regular'" font-size="13">,</tspan><tspan x="115.633" y="0" fill="#FFFFFF" font-family="'AvenirNext-Regular'" font-size="13"> dinner with friends -&gt; </tspan></text>
<text transform="matrix(1 0 0 1 263.0576 162.9619)" fill="#FFFFFF" font-family="'AvenirNext-Italic'" font-size="13">sociable</text>
</svg>
