<?xml version="1.0" encoding="utf-8"?>
<!-- Generator: Adobe Illustrator 15.1.0, SVG Export Plug-In . SVG Version: 6.00 Build 0)  -->
<!DOCTYPE svg PUBLIC "-//W3C//DTD SVG 1.1//EN" "http://www.w3.org/Graphics/SVG/1.1/DTD/svg11.dtd">
<svg version="1.1" id="Ebene_1" xmlns="http://www.w3.org/2000/svg" xmlns:xlink="http://www.w3.org/1999/xlink" x="0px" y="0px"
	 width="595px" height="222.52px" viewBox="0 0 595 222.52" enable-background="new 0 0 595 222.52" xml:space="preserve">
<rect fill="#917C7D" width="595.156" height="222.52"/>
<text transform="matrix(1 0 0 1 21.1045 51.791)"><tspan x="0" y="0" fill="#B7B7B7" font-family="'AvenirNext-Bold'" font-size="15">PERSONALI</tspan><tspan x="85.724" y="0" fill="#B7B7B7" font-family="'AvenirNext-Bold'" font-size="15">T</tspan><tspan x="94.259" y="0" fill="#B7B7B7" font-family="'AvenirNext-Bold'" font-size="15">Y</tspan></text>
<rect x="25.522" y="74.351" fill="none" stroke="#FFFFFF" width="269.291" height="15"/>
<text transform="matrix(1 0 0 1 25.022 70.5859)"><tspan x="0" y="0" fill="#FFFFFF" font-family="'AvenirNext-Regular'" font-size="11">Ext</tspan><tspan x="15.323" y="0" fill="#FFFFFF" font-family="'AvenirNext-Regular'" font-size="11">r</tspan><tspan x="19.096" y="0" fill="#FFFFFF" font-family="'AvenirNext-Regular'" font-size="11">ove</tspan><tspan x="37.476" y="0" fill="#FFFFFF" font-family="'AvenirNext-Regular'" font-size="11">r</tspan><tspan x="41.315" y="0" fill="#FFFFFF" font-family="'AvenirNext-Regular'" font-size="11">t</tspan></text>
<text transform="matrix(1 0 0 1 253.1182 70.5859)"><tspan x="0" y="0" fill="#FFFFFF" font-family="'AvenirNext-Regular'" font-size="11">Int</tspan><tspan x="12.738" y="0" fill="#FFFFFF" font-family="'AvenirNext-Regular'" font-size="11">r</tspan><tspan x="16.511" y="0" fill="#FFFFFF" font-family="'AvenirNext-Regular'" font-size="11">ove</tspan><tspan x="34.891" y="0" fill="#FFFFFF" font-family="'AvenirNext-Regular'" font-size="11">r</tspan><tspan x="38.73" y="0" fill="#FFFFFF" font-family="'AvenirNext-Regular'" font-size="11">t</tspan></text>
<rect x="25.522" y="107.422" fill="none" stroke="#FFFFFF" width="269.291" height="15"/>
<text transform="matrix(1 0 0 1 25.022 103.6572)" fill="#FFFFFF" font-family="'AvenirNext-Regular'" font-size="11">Sensing</text>
<text transform="matrix(1 0 0 1 254.0859 102.9531)" fill="#FFFFFF" font-family="'AvenirNext-Regular'" font-size="11">Intuition</text>
<rect x="26.967" y="147.433" fill="none" stroke="#FFFFFF" width="269.291" height="15"/>
<text transform="matrix(1 0 0 1 26.4668 140.126)"><tspan x="0" y="0" fill="#FFFFFF" font-family="'AvenirNext-Regular'" font-size="11">T</tspan><tspan x="6.083" y="0" fill="#FFFFFF" font-family="'AvenirNext-Regular'" font-size="11">hinking</tspan></text>
<text transform="matrix(1 0 0 1 259.6558 139.4219)"><tspan x="0" y="0" fill="#FFFFFF" font-family="'AvenirNext-Regular'" font-size="11">F</tspan><tspan x="5.665" y="0" fill="#FFFFFF" font-family="'AvenirNext-Regular'" font-size="11">eeling</tspan></text>
<rect x="49.475" y="74.851" fill="#B7B7B7" width="114.829" height="13.815"/>
<rect x="166.721" y="74.942" fill="#B7B7B7" width="35.258" height="13.815"/>
<rect x="83.049" y="107.968" fill="#B7B7B7" width="81.254" height="13.814"/>
<rect x="166.721" y="108.06" fill="#B7B7B7" width="52.441" height="13.815"/>
<rect x="111.481" y="148.325" fill="#B7B7B7" width="52.441" height="13.815"/>
<rect x="166.34" y="148.418" fill="#B7B7B7" width="75.891" height="13.814"/>
<line fill="none" stroke="#FFFFFF" stroke-width="2" stroke-linecap="round" stroke-linejoin="round" stroke-dasharray="0,3.963" x1="165.512" y1="65.14" x2="165.512" y2="178.078"/>
<path fill="none" stroke="#FFFFFF" stroke-width="2" stroke-linecap="round" stroke-linejoin="round" d="M165.512,180.059
	L165.512,180.059 M165.512,61.177L165.512,61.177"/>
<text transform="matrix(1 0 0 1 359.395 50.9756)"><tspan x="0" y="0" fill="#B7B7B7" font-family="'AvenirNext-Bold'" font-size="15">MEDI</tspan><tspan x="39.81" y="0" fill="#B7B7B7" font-family="'AvenirNext-Bold'" font-size="15">A</tspan><tspan x="50.489" y="0" fill="#B7B7B7" font-family="'AvenirNext-Bold'" font-size="15"> USE</tspan></text>
<path fill="#FFFFFF" d="M371.561,71.96c0,0.84-0.146,1.607-0.436,2.303s-0.692,1.29-1.207,1.785
	c-0.516,0.495-1.128,0.877-1.838,1.147c-0.71,0.27-1.48,0.405-2.311,0.405s-1.597-0.136-2.302-0.405
	c-0.705-0.271-1.315-0.652-1.83-1.147s-0.917-1.09-1.208-1.785c-0.289-0.695-0.435-1.463-0.435-2.303
	c0-0.85,0.146-1.617,0.435-2.302c0.291-0.686,0.693-1.268,1.208-1.748c0.515-0.479,1.125-0.85,1.83-1.11
	c0.705-0.26,1.472-0.39,2.302-0.39s1.601,0.13,2.311,0.39c0.71,0.261,1.322,0.631,1.838,1.11c0.515,0.48,0.917,1.062,1.207,1.748
	C371.415,70.343,371.561,71.11,371.561,71.96z M368.814,71.96c0-0.46-0.074-0.89-0.225-1.29c-0.15-0.399-0.357-0.742-0.622-1.027
	s-0.585-0.51-0.96-0.675s-0.787-0.247-1.238-0.247c-0.449,0-0.859,0.082-1.229,0.247s-0.69,0.39-0.96,0.675
	s-0.478,0.628-0.623,1.027c-0.145,0.4-0.217,0.83-0.217,1.29c0,0.48,0.074,0.923,0.225,1.328c0.15,0.404,0.357,0.752,0.623,1.042
	c0.265,0.29,0.582,0.518,0.952,0.683s0.78,0.247,1.229,0.247c0.451,0,0.86-0.082,1.23-0.247s0.689-0.393,0.96-0.683
	s0.479-0.638,0.63-1.042C368.74,72.883,368.814,72.44,368.814,71.96z M377.755,67.79c-0.09-0.03-0.194-0.055-0.315-0.075
	c-0.119-0.02-0.239-0.029-0.359-0.029c-0.23,0-0.415,0.04-0.555,0.12c-0.141,0.08-0.25,0.188-0.33,0.322s-0.135,0.287-0.165,0.457
	c-0.03,0.171-0.045,0.341-0.045,0.511v0.75h1.665v1.829h-1.665v5.641h-2.46v-5.641h-1.365v-1.829h1.365v-0.721
	c0-0.46,0.05-0.897,0.15-1.312c0.1-0.415,0.271-0.779,0.517-1.095s0.575-0.564,0.99-0.75c0.415-0.185,0.933-0.277,1.553-0.277
	c0.21,0,0.417,0.013,0.622,0.037c0.205,0.025,0.393,0.062,0.562,0.112L377.755,67.79z M382.766,67.79
	c-0.09-0.03-0.195-0.055-0.315-0.075c-0.12-0.02-0.24-0.029-0.36-0.029c-0.23,0-0.415,0.04-0.555,0.12
	c-0.141,0.08-0.25,0.188-0.33,0.322s-0.135,0.287-0.165,0.457c-0.03,0.171-0.045,0.341-0.045,0.511v0.75h1.665v1.829h-1.665v5.641
	h-2.46v-5.641h-1.365v-1.829h1.365v-0.721c0-0.46,0.05-0.897,0.15-1.312c0.1-0.415,0.271-0.779,0.518-1.095
	c0.244-0.315,0.574-0.564,0.989-0.75c0.415-0.185,0.933-0.277,1.553-0.277c0.21,0,0.417,0.013,0.622,0.037
	c0.205,0.025,0.393,0.062,0.562,0.112L382.766,67.79z M383.68,77.315v-11.34h2.506v11.34H383.68z M390.79,67.46
	c0,0.19-0.038,0.368-0.112,0.533c-0.075,0.165-0.176,0.307-0.301,0.427s-0.274,0.216-0.449,0.285
	c-0.176,0.07-0.357,0.105-0.548,0.105c-0.399,0-0.735-0.133-1.005-0.397c-0.27-0.266-0.404-0.583-0.404-0.953
	c0-0.18,0.034-0.353,0.104-0.518c0.069-0.165,0.17-0.308,0.3-0.427c0.13-0.12,0.279-0.218,0.45-0.293
	c0.17-0.075,0.354-0.112,0.555-0.112c0.19,0,0.372,0.035,0.548,0.104c0.175,0.07,0.324,0.165,0.449,0.285s0.226,0.263,0.301,0.428
	C390.752,67.093,390.79,67.271,390.79,67.46z M388.15,77.315v-7.47h2.46v7.47H388.15z M397.465,77.315v-4.08
	c0-0.21-0.018-0.41-0.053-0.601c-0.035-0.189-0.092-0.357-0.172-0.502s-0.193-0.26-0.338-0.345s-0.327-0.128-0.547-0.128
	c-0.221,0-0.412,0.043-0.578,0.128c-0.164,0.085-0.303,0.202-0.412,0.353c-0.11,0.149-0.193,0.322-0.248,0.518
	c-0.055,0.194-0.082,0.397-0.082,0.607v4.05h-2.475v-7.47h2.385v1.034h0.029c0.09-0.159,0.208-0.317,0.354-0.472
	c0.145-0.155,0.314-0.288,0.51-0.398c0.195-0.109,0.407-0.199,0.637-0.27c0.23-0.07,0.476-0.105,0.735-0.105
	c0.5,0,0.925,0.091,1.275,0.271c0.35,0.18,0.632,0.412,0.847,0.697s0.371,0.613,0.466,0.982c0.095,0.37,0.142,0.74,0.142,1.11v4.62
	H397.465z M409.21,73.67c0,0.101,0,0.2,0,0.301c0,0.1-0.005,0.194-0.015,0.284h-5.415c0.02,0.21,0.082,0.4,0.188,0.57
	c0.104,0.17,0.24,0.317,0.405,0.442s0.35,0.223,0.555,0.293c0.205,0.069,0.417,0.104,0.638,0.104c0.39,0,0.72-0.072,0.989-0.218
	c0.271-0.145,0.49-0.332,0.66-0.562l1.71,1.08c-0.35,0.511-0.812,0.903-1.387,1.178c-0.575,0.275-1.243,0.413-2.003,0.413
	c-0.561,0-1.09-0.088-1.59-0.263s-0.938-0.43-1.312-0.766c-0.375-0.335-0.67-0.747-0.885-1.237c-0.216-0.489-0.323-1.05-0.323-1.68
	c0-0.61,0.105-1.163,0.315-1.657c0.21-0.495,0.495-0.915,0.854-1.261c0.36-0.345,0.785-0.612,1.275-0.802
	c0.49-0.19,1.02-0.285,1.59-0.285c0.55,0,1.055,0.093,1.516,0.277c0.459,0.186,0.854,0.452,1.185,0.803
	c0.33,0.35,0.587,0.774,0.772,1.274C409.117,72.46,409.21,73.03,409.21,73.67z M406.945,72.726c0-0.391-0.123-0.726-0.368-1.005
	c-0.245-0.28-0.612-0.421-1.102-0.421c-0.24,0-0.461,0.038-0.66,0.113c-0.2,0.074-0.375,0.178-0.525,0.308s-0.27,0.282-0.36,0.457
	c-0.09,0.175-0.14,0.357-0.149,0.548H406.945z"/>
<text transform="matrix(1 0 0 1 359.395 96.8174)" fill="#FFFFFF" font-family="'AvenirNext-Regular'" font-size="11">Magazines</text>
<text transform="matrix(1 0 0 1 359.395 119.8184)" fill="#FFFFFF" font-family="'AvenirNext-Regular'" font-size="11">Newspaper</text>
<text transform="matrix(1 0 0 1 359.395 150.7783)" fill="#FFFFFF" font-family="'AvenirNext-Bold'" font-size="15">Online</text>
<text transform="matrix(1 0 0 1 359.395 168.8652)" fill="#FFFFFF" font-family="'AvenirNext-Regular'" font-size="11">Internet usage</text>
<text transform="matrix(1 0 0 1 359.395 191.8662)" fill="#FFFFFF" font-family="'AvenirNext-Regular'" font-size="11">Mobile usage</text>
<g>
	<defs>
		<rect id="SVGID_1_" width="595.156" height="222.52"/>
	</defs>
	<clipPath id="SVGID_2_">
		<use xlink:href="#SVGID_1_"  overflow="visible"/>
	</clipPath>
	<path clip-path="url(#SVGID_2_)" fill="#FFFFFF" d="M475.791,190.908c2.854,0,5.169-2.313,5.169-5.169
		c0-2.854-2.314-5.17-5.169-5.17c-2.855,0-5.169,2.315-5.169,5.17C470.622,188.595,472.936,190.908,475.791,190.908"/>
	<circle clip-path="url(#SVGID_2_)" fill="none" stroke="#FFFFFF" cx="475.791" cy="185.739" r="5.169"/>
	<path clip-path="url(#SVGID_2_)" fill="#FFFFFF" d="M497.051,190.908c2.854,0,5.169-2.313,5.169-5.169
		c0-2.854-2.314-5.17-5.169-5.17c-2.855,0-5.169,2.315-5.169,5.17C491.882,188.595,494.195,190.908,497.051,190.908"/>
	<circle clip-path="url(#SVGID_2_)" fill="none" stroke="#FFFFFF" cx="497.051" cy="185.739" r="5.169"/>
	<path clip-path="url(#SVGID_2_)" fill="#FFFFFF" d="M518.311,190.908c2.854,0,5.169-2.313,5.169-5.169
		c0-2.854-2.314-5.17-5.169-5.17c-2.855,0-5.169,2.315-5.169,5.17C513.142,188.595,515.455,190.908,518.311,190.908"/>
	<circle clip-path="url(#SVGID_2_)" fill="none" stroke="#FFFFFF" cx="518.311" cy="185.739" r="5.169"/>
	<path clip-path="url(#SVGID_2_)" fill="#FFFFFF" d="M539.57,190.908c2.854,0,5.169-2.313,5.169-5.169
		c0-2.854-2.314-5.17-5.169-5.17c-2.855,0-5.169,2.315-5.169,5.17C534.401,188.595,536.715,190.908,539.57,190.908"/>
	<circle clip-path="url(#SVGID_2_)" fill="none" stroke="#FFFFFF" cx="539.57" cy="185.739" r="5.169"/>
	<circle clip-path="url(#SVGID_2_)" fill="none" stroke="#FFFFFF" cx="560.83" cy="185.739" r="5.169"/>
	<path clip-path="url(#SVGID_2_)" fill="#FFFFFF" d="M475.791,168.939c2.854,0,5.169-2.313,5.169-5.169
		c0-2.854-2.314-5.17-5.169-5.17c-2.855,0-5.169,2.315-5.169,5.17C470.622,166.626,472.936,168.939,475.791,168.939"/>
	<circle clip-path="url(#SVGID_2_)" fill="none" stroke="#FFFFFF" cx="475.791" cy="163.77" r="5.169"/>
	<path clip-path="url(#SVGID_2_)" fill="#FFFFFF" d="M497.051,168.939c2.854,0,5.169-2.313,5.169-5.169
		c0-2.854-2.314-5.17-5.169-5.17c-2.855,0-5.169,2.315-5.169,5.17C491.882,166.626,494.195,168.939,497.051,168.939"/>
	<circle clip-path="url(#SVGID_2_)" fill="none" stroke="#FFFFFF" cx="497.051" cy="163.77" r="5.169"/>
	<path clip-path="url(#SVGID_2_)" fill="#FFFFFF" d="M518.311,168.939c2.854,0,5.169-2.313,5.169-5.169
		c0-2.854-2.314-5.17-5.169-5.17c-2.855,0-5.169,2.315-5.169,5.17C513.142,166.626,515.455,168.939,518.311,168.939"/>
	<circle clip-path="url(#SVGID_2_)" fill="none" stroke="#FFFFFF" cx="518.311" cy="163.77" r="5.169"/>
	<circle clip-path="url(#SVGID_2_)" fill="none" stroke="#FFFFFF" cx="539.57" cy="163.77" r="5.169"/>
	<circle clip-path="url(#SVGID_2_)" fill="none" stroke="#FFFFFF" cx="560.83" cy="163.77" r="5.169"/>
	<path clip-path="url(#SVGID_2_)" fill="#FFFFFF" d="M475.791,120.278c2.854,0,5.169-2.313,5.169-5.169
		c0-2.854-2.314-5.17-5.169-5.17c-2.855,0-5.169,2.315-5.169,5.17C470.622,117.965,472.936,120.278,475.791,120.278"/>
	<circle clip-path="url(#SVGID_2_)" fill="none" stroke="#FFFFFF" cx="475.791" cy="115.109" r="5.169"/>
	<path clip-path="url(#SVGID_2_)" fill="#FFFFFF" d="M497.051,120.278c2.854,0,5.169-2.313,5.169-5.169
		c0-2.854-2.314-5.17-5.169-5.17c-2.855,0-5.169,2.315-5.169,5.17C491.882,117.965,494.195,120.278,497.051,120.278"/>
	<circle clip-path="url(#SVGID_2_)" fill="none" stroke="#FFFFFF" cx="497.051" cy="115.109" r="5.169"/>
	<path clip-path="url(#SVGID_2_)" fill="#FFFFFF" d="M518.311,120.278c2.854,0,5.169-2.313,5.169-5.169
		c0-2.854-2.314-5.17-5.169-5.17c-2.855,0-5.169,2.315-5.169,5.17C513.142,117.965,515.455,120.278,518.311,120.278"/>
	<circle clip-path="url(#SVGID_2_)" fill="none" stroke="#FFFFFF" cx="518.311" cy="115.109" r="5.169"/>
	<circle clip-path="url(#SVGID_2_)" fill="none" stroke="#FFFFFF" cx="539.57" cy="115.109" r="5.169"/>
	<circle clip-path="url(#SVGID_2_)" fill="none" stroke="#FFFFFF" cx="560.83" cy="115.109" r="5.169"/>
	<path clip-path="url(#SVGID_2_)" fill="#FFFFFF" d="M475.791,99.728c2.854,0,5.169-2.314,5.169-5.169
		c0-2.855-2.314-5.17-5.169-5.17c-2.855,0-5.169,2.314-5.169,5.17C470.622,97.413,472.936,99.728,475.791,99.728"/>
	<circle clip-path="url(#SVGID_2_)" fill="none" stroke="#FFFFFF" cx="475.791" cy="94.558" r="5.169"/>
	<path clip-path="url(#SVGID_2_)" fill="#FFFFFF" d="M497.051,99.728c2.854,0,5.169-2.314,5.169-5.169
		c0-2.855-2.314-5.17-5.169-5.17c-2.855,0-5.169,2.314-5.169,5.17C491.882,97.413,494.195,99.728,497.051,99.728"/>
	<circle clip-path="url(#SVGID_2_)" fill="none" stroke="#FFFFFF" cx="497.051" cy="94.558" r="5.169"/>
	<path clip-path="url(#SVGID_2_)" fill="#FFFFFF" d="M518.311,99.728c2.854,0,5.169-2.314,5.169-5.169
		c0-2.855-2.314-5.17-5.169-5.17c-2.855,0-5.169,2.314-5.169,5.17C513.142,97.413,515.455,99.728,518.311,99.728"/>
	<circle clip-path="url(#SVGID_2_)" fill="none" stroke="#FFFFFF" cx="518.311" cy="94.558" r="5.169"/>
	<path clip-path="url(#SVGID_2_)" fill="#FFFFFF" d="M539.57,99.728c2.854,0,5.169-2.314,5.169-5.169c0-2.855-2.314-5.17-5.169-5.17
		c-2.855,0-5.169,2.314-5.169,5.17C534.401,97.413,536.715,99.728,539.57,99.728"/>
	<circle clip-path="url(#SVGID_2_)" fill="none" stroke="#FFFFFF" cx="539.57" cy="94.558" r="5.169"/>
	<circle clip-path="url(#SVGID_2_)" fill="none" stroke="#FFFFFF" cx="560.83" cy="94.558" r="5.169"/>
</g>
</svg>
