<svg xmlns="http://www.w3.org/2000/svg" width="933.333" height="933.333" preserveAspectRatio="xMidYMid meet" version="1.0" viewBox="0 0 700 700"><metadata>Created by potrace 1.14, written by Peter Selinger 2001-2017</metadata><g fill="#000" stroke="none"><path d="M5360 5699 c-30 -4 -79 -10 -109 -14 -148 -17 -467 -117 -612 -191 -241 -123 -377 -218 -555 -387 l-83 -79 77 -91 c134 -160 224 -298 305 -469 42 -88 127 -307 127 -327 0 -5 5 -22 11 -37 l10 -28 41 64 c157 250 436 451 717 516 129 31 173 36 311 36 261 0 522 -93 737 -264 l62 -49 55 110 c124 248 260 432 457 620 l88 84 -47 39 c-143 119 -400 265 -602 341 -131 50 -314 97 -435 113 -22 3 -69 9 -105 13 -82 11 -377 11 -450 0z" transform="translate(0.000000,700.000000) scale(0.100000,-0.100000)"/><path d="M2087 5654 c-1 -1 -40 -4 -87 -8 -47 -4 -96 -8 -110 -11 -14 -2 -41 -6 -60 -9 -118 -17 -284 -63 -426 -116 -442 -166 -830 -490 -1086 -905 -115 -188 -233 -480 -265 -654 -2 -14 -9 -46 -14 -71 -11 -47 -14 -72 -28 -185 -8 -69 -7 -416 2 -465 2 -14 8 -50 11 -80 28 -212 122 -501 228 -694 21 -38 38 -70 38 -72 0 -11 116 -180 178 -259 247 -317 606 -577 984 -710 85 -31 274 -80 338 -90 24 -4 47 -8 50 -10 16 -10 188 -20 340 -20 205 0 289 7 425 36 28 6 61 13 75 15 57 10 211 59 305 96 110 44 315 147 315 160 0 4 -22 49 -50 100 -60 113 -98 212 -108 281 -4 29 -7 199 -7 380 0 180 -2 327 -4 327 -2 0 -12 -10 -23 -22 -162 -188 -349 -314 -567 -382 -140 -44 -221 -55 -391 -51 -129 2 -173 7 -260 30 -58 15 -109 31 -114 36 -6 5 -17 9 -26 9 -9 0 -55 20 -103 44 -539 275 -796 880 -615 1446 96 300 328 570 613 712 117 59 226 93 375 116 82 12 301 6 388 -12 255 -53 482 -180 654 -365 172 -185 292 -445 313 -682 4 -35 8 -386 9 -779 2 -393 6 -732 10 -752 9 -57 34 -124 78 -213 46 -93 67 -123 147 -204 153 -153 433 -283 707 -326 l40 -6 -1 1173 c-1 645 -5 1196 -9 1223 -3 28 -9 64 -11 80 -3 17 -7 48 -10 70 -11 81 -48 223 -87 340 -200 599 -670 1092 -1269 1329 -99 39 -287 95 -369 110 -126 22 -149 25 -222 32 -63 5 -296 12 -301 8z" transform="translate(0.000000,700.000000) scale(0.100000,-0.100000)"/></g></svg>